SplineFontDB: 3.0
FontName: Nautilon
FullName: Nautilon
FamilyName: Nautilon
Weight: Medium
Copyright: Nautilon is derivated and reworked by Gerhard Grossmann. You can reach him via pregunto@web.de. The font is an modification of Neuton (name reserved!), Copyright (c) 2010, Brian Zick (http://21326.info). \n\nLicensed under the Apache License, Version 2.0 (the "License"); you may not use this file except in compliance with the License. You may obtain a copy of the License at\n\n   http://www.apache.org/licenses/LICENSE-2.0\n\nUnless required by applicable law or agreed to in writing, software distributed under the License is distributed on an "AS IS" BASIS, WITHOUT WARRANTIES OR CONDITIONS OF ANY KIND, either express or implied.\nSee the License for the specific language governing permissions and limitations under the License.
Version: 1.2r
ItalicAngle: 0
UnderlinePosition: -220
UnderlineWidth: 110
Ascent: 1580
Descent: 468
LayerCount: 2
Layer: 0 1 "Back"  1
Layer: 1 1 "Zeichenebene"  0
XUID: [1021 809 1757398514 13531312]
FSType: 0
OS2Version: 0
OS2_WeightWidthSlopeOnly: 0
OS2_UseTypoMetrics: 1
CreationTime: 1273463161
ModificationTime: 1290665270
PfmFamily: 17
TTFWeight: 500
TTFWidth: 5
LineGap: 184
VLineGap: 0
Panose: 2 0 6 3 0 0 0 0 0 0
OS2TypoAscent: 0
OS2TypoAOffset: 1
OS2TypoDescent: 0
OS2TypoDOffset: 1
OS2TypoLinegap: 184
OS2WinAscent: 0
OS2WinAOffset: 1
OS2WinDescent: 0
OS2WinDOffset: 1
HheadAscent: 0
HheadAOffset: 1
HheadDescent: 0
HheadDOffset: 1
OS2SubXSize: 1330
OS2SubYSize: 1432
OS2SubXOff: 0
OS2SubYOff: 286
OS2SupXSize: 1330
OS2SupYSize: 1432
OS2SupXOff: 0
OS2SupYOff: 982
OS2StrikeYSize: 102
OS2StrikeYPos: 530
OS2Vendor: 'ShSt'
OS2CodePages: 80000093.00000000
OS2UnicodeRanges: 8000002f.10000040.00000020.00000000
Lookup: 4 0 1 "<1,2> Normale Ligaturen in Latin lookup 0"  {"<1,2> Normale Ligaturen in Latin lookup 0 subtable"  } [<1,2> ('DFLT' <'dflt' > 'latn' <'dflt' > ) 'liga' ('DFLT' <'dflt' > 'latn' <'dflt' > ) ]

StartChar: exclam
Encoding: 289 33 33
Width: 588
Flags: HMW
LayerCount: 2
Fore
SplineSet
348 440 m 0,0,-1
 348 432 l 0,1,-1
 240 456 l 0,2,-1
 240 460 l 0,3,4
 176 1292 176 1292 176 1514 c 0,5,-1
 176 1518 l 0,6,7
 182 1540 182 1540 237 1553 c 128,-1,8
 292 1566 292 1566 336 1566 c 0,9,10
 414 1566 414 1566 414 1518 c 0,11,12
 414 1244 414 1244 348 440 c 0,0,-1
446 110 m 0,13,14
 446 46 446 46 402 1 c 128,-1,15
 358 -44 358 -44 294 -44 c 0,16,17
 232 -44 232 -44 188 2 c 128,-1,18
 144 48 144 48 144 112 c 0,19,20
 144 172 144 172 188 213 c 128,-1,21
 232 254 232 254 294 254 c 128,-1,22
 356 254 356 254 401 212 c 128,-1,23
 446 170 446 170 446 110 c 0,13,14
EndSplineSet
EndChar

StartChar: quotedbl
Encoding: 290 34 34
Width: 674
Flags: HMW
LayerCount: 2
Fore
SplineSet
352 1578 m 0,0,1
 368 1580 368 1580 398 1580 c 0,2,3
 482 1580 482 1580 574 1558 c 0,4,-1
 530 1094 l 0,5,6
 488 1080 488 1080 440 1080 c 0,7,-1
 416 1080 l 0,8,-1
 352 1578 l 0,0,1
100 1578 m 0,9,10
 116 1580 116 1580 146 1580 c 0,11,12
 230 1580 230 1580 322 1558 c 0,13,-1
 278 1094 l 0,14,15
 236 1080 236 1080 188 1080 c 0,16,-1
 164 1080 l 0,17,-1
 100 1578 l 0,9,10
EndSplineSet
EndChar

StartChar: numbersign
Encoding: 291 35 35
Width: 1138
Flags: HMW
LayerCount: 2
Fore
SplineSet
406 314 m 1,0,-1
 352 -10 l 1,1,-1
 224 -20 l 1,2,-1
 280 314 l 1,3,-1
 76 314 l 1,4,-1
 106 436 l 1,5,-1
 302 436 l 1,6,-1
 340 692 l 1,7,-1
 144 692 l 1,8,-1
 172 814 l 1,9,-1
 360 814 l 1,10,-1
 418 1126 l 1,11,-1
 542 1138 l 1,12,-1
 484 814 l 1,13,-1
 732 814 l 1,14,-1
 788 1126 l 1,15,-1
 912 1136 l 1,16,-1
 856 814 l 1,17,-1
 1060 814 l 1,18,-1
 1032 692 l 1,19,-1
 836 692 l 1,20,-1
 798 436 l 1,21,-1
 992 436 l 1,22,-1
 964 314 l 1,23,-1
 776 314 l 1,24,-1
 724 -10 l 1,25,-1
 596 -20 l 1,26,-1
 652 314 l 1,27,-1
 406 314 l 1,0,-1
426 436 m 1,28,-1
 672 436 l 1,29,-1
 712 692 l 1,30,-1
 464 692 l 1,31,-1
 426 436 l 1,28,-1
EndSplineSet
EndChar

StartChar: dollar
Encoding: 292 36 36
Width: 1082
Flags: HMW
LayerCount: 2
Fore
SplineSet
908 1072 m 0,0,-1
 814 1092 l 0,1,-1
 754 1324 l 0,2,3
 748 1342 748 1342 709 1372 c 128,-1,4
 670 1402 670 1402 620 1418 c 0,5,-1
 620 884 l 0,6,7
 820 764 820 764 884 710 c 0,8,9
 1030 584 1030 584 1030 428 c 0,10,11
 1030 254 1030 254 908 135 c 128,-1,12
 786 16 786 16 602 -18 c 0,13,-1
 602 -134 l 0,14,-1
 482 -134 l 0,15,-1
 482 -30 l 0,16,-1
 476 -30 l 0,17,18
 214 -30 214 -30 62 148 c 0,19,-1
 78 472 l 0,20,-1
 178 456 l 0,21,-1
 240 226 l 0,22,23
 280 168 280 168 347 130 c 128,-1,24
 414 92 414 92 484 90 c 0,25,-1
 484 638 l 0,26,27
 404 684 404 684 346 727 c 128,-1,28
 288 770 288 770 228 830 c 128,-1,29
 168 890 168 890 137 965 c 128,-1,30
 106 1040 106 1040 106 1126 c 0,31,32
 106 1306 106 1306 217 1410 c 128,-1,33
 328 1514 328 1514 498 1534 c 0,34,-1
 498 1626 l 0,35,-1
 618 1626 l 0,36,-1
 618 1536 l 0,37,38
 806 1520 806 1520 928 1412 c 0,39,-1
 908 1072 l 0,0,-1
500 946 m 0,40,-1
 500 1432 l 0,41,42
 330 1412 330 1412 330 1214 c 0,43,44
 330 1128 330 1128 374 1058 c 128,-1,45
 418 988 418 988 500 946 c 0,40,-1
604 598 m 0,46,-1
 604 104 l 0,47,48
 690 126 690 126 746 187 c 128,-1,49
 802 248 802 248 802 352 c 0,50,51
 802 478 802 478 604 598 c 0,46,-1
EndSplineSet
EndChar

StartChar: percent
Encoding: 293 37 37
Width: 1306
Flags: HMW
LayerCount: 2
Fore
SplineSet
876 256 m 0,0,1
 876 168 876 168 911 112 c 128,-1,2
 946 56 946 56 1012 56 c 0,3,4
 1142 56 1142 56 1142 258 c 0,5,6
 1142 348 1142 348 1109 405 c 128,-1,7
 1076 462 1076 462 1010 462 c 0,8,9
 876 462 876 462 876 256 c 0,0,1
1294 256 m 0,10,11
 1294 138 1294 138 1207 48 c 128,-1,12
 1120 -42 1120 -42 1012 -42 c 0,13,14
 894 -42 894 -42 809 42 c 128,-1,15
 724 126 724 126 724 258 c 0,16,17
 724 378 724 378 811 469 c 128,-1,18
 898 560 898 560 1010 560 c 0,19,20
 1136 560 1136 560 1215 473 c 128,-1,21
 1294 386 1294 386 1294 256 c 0,10,11
180 874 m 0,22,23
 180 786 180 786 215 731 c 128,-1,24
 250 676 250 676 316 676 c 0,25,26
 446 676 446 676 446 876 c 0,27,28
 446 966 446 966 413 1023 c 128,-1,29
 380 1080 380 1080 314 1080 c 0,30,31
 180 1080 180 1080 180 874 c 0,22,23
598 876 m 0,32,33
 598 756 598 756 511 666 c 128,-1,34
 424 576 424 576 316 576 c 0,35,36
 198 576 198 576 114 660 c 128,-1,37
 30 744 30 744 30 878 c 0,38,39
 30 998 30 998 116 1088 c 128,-1,40
 202 1178 202 1178 314 1178 c 0,41,42
 440 1178 440 1178 519 1092 c 128,-1,43
 598 1006 598 1006 598 876 c 0,32,33
990 1182 m 0,44,-1
 1126 1172 l 0,45,-1
 332 -46 l 0,46,-1
 186 -34 l 0,47,-1
 990 1182 l 0,44,-1
EndSplineSet
EndChar

StartChar: ampersand
Encoding: 294 38 38
Width: 1540
Flags: HMW
LayerCount: 2
Fore
SplineSet
1354 876 m 0,0,-1
 1102 428 l 0,1,2
 1376 132 1376 132 1498 96 c 0,3,-1
 1538 84 l 0,4,-1
 1520 0 l 0,5,6
 1450 -24 1450 -24 1374 -24 c 0,7,8
 1282 -24 1282 -24 1183 51 c 128,-1,9
 1084 126 1084 126 958 264 c 0,10,11
 904 190 904 190 853 136 c 128,-1,12
 802 82 802 82 695 29 c 128,-1,13
 588 -24 588 -24 462 -24 c 0,14,15
 266 -24 266 -24 144 94 c 128,-1,16
 22 212 22 212 22 380 c 0,17,18
 22 650 22 650 374 850 c 0,19,20
 306 906 306 906 252 994 c 128,-1,21
 198 1082 198 1082 198 1180 c 0,22,23
 198 1318 198 1318 312 1429 c 128,-1,24
 426 1540 426 1540 580 1540 c 0,25,26
 746 1540 746 1540 856 1465 c 128,-1,27
 966 1390 966 1390 966 1224 c 0,28,29
 966 1044 966 1044 676 868 c 0,30,-1
 676 854 l 0,31,-1
 1016 512 l 0,32,-1
 1220 872 l 0,33,-1
 1016 922 l 0,34,-1
 1028 1014 l 0,35,-1
 1572 1014 l 0,36,-1
 1560 922 l 0,37,-1
 1354 876 l 0,0,-1
452 762 m 0,38,-1
 432 764 l 0,39,40
 250 640 250 640 250 476 c 0,41,42
 250 340 250 340 327 234 c 128,-1,43
 404 128 404 128 534 128 c 0,44,45
 652 128 652 128 746 205 c 128,-1,46
 840 282 840 282 872 342 c 0,47,-1
 452 762 l 0,38,-1
594 936 m 0,48,49
 682 996 682 996 721 1054 c 128,-1,50
 760 1112 760 1112 760 1196 c 0,51,52
 760 1296 760 1296 704 1367 c 128,-1,53
 648 1438 648 1438 556 1438 c 0,54,55
 480 1438 480 1438 436 1377 c 128,-1,56
 392 1316 392 1316 392 1240 c 0,57,58
 392 1162 392 1162 455 1080 c 128,-1,59
 518 998 518 998 594 936 c 0,48,49
EndSplineSet
EndChar

StartChar: quotesingle
Encoding: 295 39 39
Width: 462
Flags: HMW
LayerCount: 2
Fore
SplineSet
120 1578 m 0,0,1
 136 1580 136 1580 166 1580 c 0,2,3
 250 1580 250 1580 342 1558 c 0,4,-1
 298 1094 l 0,5,6
 256 1080 256 1080 208 1080 c 0,7,-1
 184 1080 l 0,8,-1
 120 1578 l 0,0,1
EndSplineSet
EndChar

StartChar: parenleft
Encoding: 296 40 40
Width: 574
Flags: HMW
LayerCount: 2
Fore
SplineSet
546 -384 m 1,0,-1
 462 -454 l 1,1,2
 424 -418 424 -418 394 -387 c 128,-1,3
 364 -356 364 -356 296 -260 c 128,-1,4
 228 -164 228 -164 182 -62 c 128,-1,5
 136 40 136 40 98 202 c 128,-1,6
 60 364 60 364 60 540 c 0,7,8
 60 1174 60 1174 468 1520 c 1,9,-1
 528 1440 l 1,10,11
 460 1352 460 1352 413 1262 c 128,-1,12
 366 1172 366 1172 321 981 c 128,-1,13
 276 790 276 790 276 552 c 0,14,15
 276 56 276 56 546 -384 c 1,0,-1
EndSplineSet
EndChar

StartChar: asterisk
Encoding: 298 42 42
Width: 744
Flags: HMW
LayerCount: 2
Fore
SplineSet
24 1002 m 1,0,-1
 6 1140 l 1,1,-1
 10 1140 l 1,2,3
 22 1140 l 0,4,5
 186 1140 186 1140 288 1174 c 1,6,-1
 292 1176 l 1,7,-1
 318 1108 l 1,8,-1
 314 1106 l 1,9,10
 220 1028 220 1028 28 1002 c 1,11,-1
 24 1002 l 1,0,-1
716 1324 m 1,12,-1
 734 1180 l 1,13,-1
 728 1180 l 1,14,15
 716 1180 l 0,16,17
 550 1180 550 1180 452 1146 c 1,18,-1
 448 1146 l 1,19,-1
 422 1218 l 1,20,-1
 424 1220 l 1,21,22
 522 1296 522 1296 710 1322 c 1,23,-1
 716 1324 l 1,12,-1
206 1498 m 1,24,-1
 356 1516 l 1,25,-1
 356 1510 l 1,26,27
 354 1506 354 1506 354 1498 c 0,28,29
 354 1342 354 1342 388 1234 c 1,30,-1
 390 1230 l 1,31,-1
 312 1204 l 1,32,-1
 310 1206 l 1,33,34
 274 1252 274 1252 245 1335 c 128,-1,35
 216 1418 216 1418 206 1492 c 1,36,-1
 206 1498 l 1,24,-1
536 824 m 1,37,-1
 386 806 l 1,38,-1
 386 810 l 1,39,-1
 386 822 l 2,40,41
 386 986 386 986 352 1088 c 1,42,-1
 352 1092 l 1,43,-1
 430 1116 l 1,44,-1
 432 1114 l 1,45,46
 510 1018 510 1018 536 828 c 1,47,-1
 536 824 l 1,37,-1
EndSplineSet
EndChar

StartChar: plus
Encoding: 299 43 43
Width: 790
Flags: HMW
LayerCount: 2
Fore
SplineSet
460 516 m 1,0,-1
 462 220 l 1,1,-1
 328 234 l 1,2,-1
 328 516 l 1,3,-1
 50 516 l 1,4,-1
 64 638 l 1,5,-1
 328 638 l 1,6,-1
 328 928 l 1,7,-1
 458 914 l 1,8,-1
 460 638 l 1,9,-1
 736 638 l 1,10,-1
 722 516 l 1,11,-1
 460 516 l 1,0,-1
EndSplineSet
EndChar

StartChar: comma
Encoding: 300 44 44
Width: 442
Flags: HMW
LayerCount: 2
Fore
SplineSet
24 -296 m 0,0,1
 134 -266 134 -266 189 -208 c 128,-1,2
 244 -150 244 -150 244 -86 c 0,3,4
 244 -30 244 -30 196 5 c 128,-1,5
 148 40 148 40 68 46 c 0,6,7
 50 88 50 88 50 120 c 0,8,9
 50 186 50 186 98 225 c 128,-1,10
 146 264 146 264 198 264 c 0,11,12
 274 264 274 264 342 200 c 128,-1,13
 410 136 410 136 410 12 c 0,14,15
 410 -286 410 -286 52 -380 c 0,16,-1
 24 -296 l 0,0,1
EndSplineSet
EndChar

StartChar: hyphen
Encoding: 301 45 45
Width: 740
Flags: HMW
LayerCount: 2
Fore
SplineSet
110 624 m 4,0,-1
 654 646 l 4,1,-1
 640 504 l 0,2,-1
 96 482 l 0,3,-1
 110 624 l 4,0,-1
EndSplineSet
EndChar

StartChar: period
Encoding: 302 46 46
Width: 490
Flags: HMW
LayerCount: 2
Fore
SplineSet
244 248 m 128,-1,1
 304 248 304 248 347 208 c 128,-1,2
 390 168 390 168 390 110 c 0,3,4
 390 48 390 48 347 5 c 128,-1,5
 304 -38 304 -38 244 -38 c 128,-1,6
 184 -38 184 -38 142 6 c 128,-1,7
 100 50 100 50 100 112 c 0,8,9
 100 170 100 170 142 209 c 128,-1,0
 184 248 184 248 244 248 c 128,-1,1
EndSplineSet
EndChar

StartChar: slash
Encoding: 303 47 47
Width: 664
Flags: HMW
LayerCount: 2
Fore
SplineSet
532 1496 m 0,0,-1
 692 1506 l 0,1,-1
 128 -430 l 0,2,-1
 -28 -440 l 0,3,-1
 532 1496 l 0,0,-1
EndSplineSet
EndChar

StartChar: zero
Encoding: 304 48 48
Width: 1182
Flags: HMW
LayerCount: 2
Fore
SplineSet
270 566 m 0,0,1
 270 380 270 380 359 241 c 128,-1,2
 448 102 448 102 596 102 c 0,3,4
 752 102 752 102 829 231 c 128,-1,5
 906 360 906 360 906 570 c 0,6,7
 906 762 906 762 821 902 c 128,-1,8
 736 1042 736 1042 592 1042 c 0,9,10
 434 1042 434 1042 352 909 c 128,-1,11
 270 776 270 776 270 566 c 0,0,1
1118 566 m 0,12,13
 1118 320 1118 320 971 144 c 128,-1,14
 824 -32 824 -32 594 -32 c 0,15,16
 342 -32 342 -32 201 131 c 128,-1,17
 60 294 60 294 60 570 c 0,18,19
 60 816 60 816 211 994 c 128,-1,20
 362 1172 362 1172 590 1172 c 0,21,22
 838 1172 838 1172 978 1001 c 128,-1,23
 1118 830 1118 830 1118 566 c 0,12,13
EndSplineSet
EndChar

StartChar: one
Encoding: 305 49 49
Width: 748
Flags: HMW
LayerCount: 2
Fore
SplineSet
494 1140 m 4,0,-1
 494 138 l 4,1,-1
 724 98 l 4,2,-1
 712 0 l 4,3,-1
 58 0 l 4,4,-1
 68 90 l 4,5,-1
 292 146 l 4,6,-1
 292 952 l 4,7,-1
 82 954 l 4,8,-1
 92 1048 l 4,9,-1
 460 1140 l 4,10,-1
 494 1140 l 4,0,-1
EndSplineSet
EndChar

StartChar: two
Encoding: 306 50 50
Width: 1004
Flags: HMW
LayerCount: 2
Fore
SplineSet
888 0 m 0,0,-1
 84 0 l 0,1,-1
 76 124 l 0,2,-1
 384 364 l 0,3,4
 630 556 630 556 630 798 c 0,5,6
 630 898 630 898 582 955 c 128,-1,7
 534 1012 534 1012 448 1012 c 0,8,9
 386 1012 386 1012 327 967 c 128,-1,10
 268 922 268 922 239 878 c 128,-1,11
 210 834 210 834 188 788 c 0,12,-1
 98 824 l 0,13,14
 110 888 110 888 162 965 c 128,-1,15
 214 1042 214 1042 315 1106 c 128,-1,16
 416 1170 416 1170 532 1170 c 0,17,18
 668 1170 668 1170 758 1081 c 128,-1,19
 848 992 848 992 848 852 c 0,20,21
 848 688 848 688 735 542 c 128,-1,22
 622 396 622 396 424 250 c 0,23,-1
 312 168 l 0,24,-1
 762 168 l 0,25,-1
 856 336 l 0,26,-1
 942 324 l 0,27,-1
 888 0 l 0,0,-1
EndSplineSet
EndChar

StartChar: three
Encoding: 307 51 51
Width: 890
Flags: HMW
LayerCount: 2
Fore
SplineSet
154 -66 m 0,0,1
 164 -126 164 -126 208 -190 c 128,-1,2
 252 -254 252 -254 328 -254 c 0,3,4
 482 -254 482 -254 545 -171 c 128,-1,5
 608 -88 608 -88 608 36 c 0,6,7
 608 142 608 142 509 245 c 128,-1,8
 410 348 410 348 300 348 c 0,9,-1
 280 348 l 0,10,-1
 268 428 l 0,11,12
 292 436 292 436 335 464 c 128,-1,13
 378 492 378 492 431 538 c 128,-1,14
 484 584 484 584 522 655 c 128,-1,15
 560 726 560 726 560 802 c 0,16,17
 560 890 560 890 523 949 c 128,-1,18
 486 1008 486 1008 408 1008 c 0,19,20
 318 1008 318 1008 267 963 c 128,-1,21
 216 918 216 918 178 826 c 0,22,-1
 84 858 l 0,23,24
 104 968 104 968 216 1069 c 128,-1,25
 328 1170 328 1170 478 1170 c 0,26,27
 614 1170 614 1170 691 1086 c 128,-1,28
 768 1002 768 1002 768 866 c 0,29,30
 768 738 768 738 693 638 c 128,-1,31
 618 538 618 538 524 480 c 0,32,-1
 524 466 l 0,33,34
 666 426 666 426 745 327 c 128,-1,35
 824 228 824 228 824 108 c 0,36,37
 824 -62 824 -62 677 -211 c 128,-1,38
 530 -360 530 -360 304 -360 c 0,39,40
 158 -360 158 -360 79 -309 c 128,-1,41
 0 -258 0 -258 0 -192 c 0,42,43
 0 -144 0 -144 41 -109 c 128,-1,44
 82 -74 82 -74 154 -66 c 0,0,1
EndSplineSet
EndChar

StartChar: four
Encoding: 308 52 52
Width: 1164
Flags: HMW
LayerCount: 2
Fore
SplineSet
656 -368 m 0,0,-1
 656 108 l 0,1,-1
 68 108 l 0,2,-1
 40 198 l 0,3,-1
 790 1194 l 0,4,-1
 868 1172 l 0,5,6
 856 956 856 956 856 524 c 0,7,-1
 856 256 l 0,8,-1
 1164 256 l 0,9,-1
 1144 104 l 0,10,-1
 858 104 l 0,11,-1
 858 -324 l 0,12,-1
 656 -368 l 0,0,-1
654 256 m 0,13,-1
 654 820 l 0,14,-1
 246 256 l 0,15,-1
 654 256 l 0,13,-1
EndSplineSet
EndChar

StartChar: five
Encoding: 309 53 53
Width: 912
Flags: HMW
LayerCount: 2
Fore
SplineSet
810 1150 m 0,0,-1
 780 952 l 0,1,-1
 366 924 l 0,2,-1
 312 660 l 0,3,4
 858 566 858 566 858 156 c 0,5,6
 858 -38 858 -38 695 -199 c 128,-1,7
 532 -360 532 -360 300 -360 c 0,8,9
 140 -360 140 -360 63 -313 c 128,-1,10
 -14 -266 -14 -266 -14 -202 c 0,11,12
 -14 -156 -14 -156 20 -120 c 128,-1,13
 54 -84 54 -84 108 -74 c 0,14,15
 234 -250 234 -250 364 -250 c 0,16,17
 480 -250 480 -250 558 -152 c 128,-1,18
 636 -54 636 -54 636 78 c 0,19,20
 636 260 636 260 524 359 c 128,-1,21
 412 458 412 458 166 486 c 0,22,-1
 272 1104 l 0,23,-1
 810 1150 l 0,0,-1
EndSplineSet
EndChar

StartChar: six
Encoding: 310 54 54
Width: 1028
Flags: HMW
LayerCount: 2
Fore
SplineSet
328 728 m 0,0,-1
 340 728 l 0,1,2
 444 848 444 848 612 848 c 128,-1,3
 780 848 780 848 873 726 c 128,-1,4
 966 604 966 604 966 428 c 0,5,6
 966 242 966 242 834 108 c 128,-1,7
 702 -26 702 -26 520 -26 c 0,8,9
 302 -26 302 -26 196 125 c 128,-1,10
 90 276 90 276 90 510 c 0,11,12
 90 812 90 812 298 1089 c 128,-1,13
 506 1366 506 1366 794 1460 c 0,14,-1
 838 1390 l 0,15,16
 688 1322 688 1322 577 1207 c 128,-1,17
 466 1092 466 1092 410 975 c 128,-1,18
 354 858 354 858 328 728 c 0,0,-1
530 74 m 0,19,20
 626 74 626 74 686 165 c 128,-1,21
 746 256 746 256 746 396 c 0,22,23
 746 538 746 538 694 631 c 128,-1,24
 642 724 642 724 524 724 c 0,25,26
 462 724 462 724 406 694 c 128,-1,27
 350 664 350 664 324 628 c 0,28,29
 316 548 316 548 316 492 c 0,30,31
 316 324 316 324 373 199 c 128,-1,32
 430 74 430 74 530 74 c 0,19,20
EndSplineSet
EndChar

StartChar: seven
Encoding: 311 55 55
Width: 938
Flags: HMW
LayerCount: 2
Fore
SplineSet
194 -62 m 0,0,1
 260 86 260 86 348 246 c 128,-1,2
 436 406 436 406 564 620 c 0,3,-1
 748 932 l 0,4,-1
 240 932 l 0,5,-1
 184 782 l 0,6,-1
 100 798 l 0,7,-1
 130 1116 l 0,8,-1
 902 1116 l 0,9,-1
 918 1000 l 0,10,-1
 768 734 l 0,11,-1
 628 482 l 0,12,-1
 528 280 l 0,13,-1
 430 38 l 0,14,15
 348 -204 348 -204 348 -358 c 0,16,17
 344 -358 344 -358 321 -363 c 128,-1,18
 298 -368 298 -368 292 -368 c 0,19,20
 232 -368 232 -368 191 -332 c 128,-1,21
 150 -296 150 -296 150 -236 c 0,22,23
 150 -160 150 -160 194 -62 c 0,0,1
EndSplineSet
EndChar

StartChar: eight
Encoding: 312 56 56
Width: 972
Flags: HMW
LayerCount: 2
Fore
SplineSet
398 672 m 0,0,1
 346 632 346 632 306 545 c 128,-1,2
 266 458 266 458 266 368 c 0,3,4
 266 256 266 256 331 168 c 128,-1,5
 396 80 396 80 490 80 c 0,6,7
 596 80 596 80 657 142 c 128,-1,8
 718 204 718 204 718 322 c 0,9,10
 718 412 718 412 635 494 c 128,-1,11
 552 576 552 576 398 672 c 0,0,1
66 340 m 0,12,13
 66 548 66 548 328 714 c 0,14,-1
 328 724 l 0,15,16
 248 772 248 772 184 867 c 128,-1,17
 120 962 120 962 120 1074 c 0,18,19
 120 1228 120 1228 233 1341 c 128,-1,20
 346 1454 346 1454 504 1454 c 0,21,22
 658 1454 658 1454 752 1367 c 128,-1,23
 846 1280 846 1280 846 1142 c 0,24,25
 846 930 846 930 646 782 c 0,26,-1
 644 770 l 0,27,28
 910 602 910 602 910 374 c 0,29,30
 910 204 910 204 776 86 c 128,-1,31
 642 -32 642 -32 436 -32 c 0,32,33
 268 -32 268 -32 167 68 c 128,-1,34
 66 168 66 168 66 340 c 0,12,13
564 820 m 0,35,36
 668 932 668 932 668 1098 c 0,37,38
 668 1204 668 1204 615 1283 c 128,-1,39
 562 1362 562 1362 472 1362 c 0,40,41
 400 1362 400 1362 351 1310 c 128,-1,42
 302 1258 302 1258 302 1184 c 0,43,44
 302 1084 302 1084 370 988 c 128,-1,45
 438 892 438 892 564 820 c 0,35,36
EndSplineSet
EndChar

StartChar: nine
Encoding: 313 57 57
Width: 1042
Flags: HMW
LayerCount: 2
Fore
SplineSet
720 408 m 0,0,-1
 704 408 l 0,1,2
 660 348 660 348 586 313 c 128,-1,3
 512 278 512 278 432 278 c 0,4,5
 264 278 264 278 173 398 c 128,-1,6
 82 518 82 518 82 694 c 0,7,8
 82 878 82 878 215 1013 c 128,-1,9
 348 1148 348 1148 524 1148 c 0,10,11
 746 1148 746 1148 849 998 c 128,-1,12
 952 848 952 848 952 612 c 0,13,14
 952 310 952 310 747 47 c 128,-1,15
 542 -216 542 -216 240 -312 c 0,16,-1
 212 -222 l 0,17,18
 340 -168 340 -168 433 -96 c 128,-1,19
 526 -24 526 -24 582 61 c 128,-1,20
 638 146 638 146 669 227 c 128,-1,21
 700 308 700 308 720 408 c 0,0,-1
514 1050 m 0,22,23
 408 1050 408 1050 351 960 c 128,-1,24
 294 870 294 870 294 726 c 0,25,26
 294 588 294 588 347 498 c 128,-1,27
 400 408 400 408 520 408 c 0,28,29
 582 408 582 408 640 438 c 128,-1,30
 698 468 698 468 726 514 c 0,31,32
 736 570 736 570 736 664 c 0,33,34
 736 820 736 820 675 935 c 128,-1,35
 614 1050 614 1050 514 1050 c 0,22,23
EndSplineSet
EndChar

StartChar: colon
Encoding: 314 58 58
Width: 490
Flags: HMW
LayerCount: 2
Fore
SplineSet
250 1032 m 128,-1,1
 306 1032 306 1032 346 994 c 128,-1,2
 386 956 386 956 386 902 c 0,3,4
 386 844 386 844 346 803 c 128,-1,5
 306 762 306 762 250 762 c 128,-1,6
 194 762 194 762 154 804 c 128,-1,7
 114 846 114 846 114 904 c 0,8,9
 114 958 114 958 154 995 c 128,-1,0
 194 1032 194 1032 250 1032 c 128,-1,1
250 272 m 128,-1,11
 306 272 306 272 346 234 c 128,-1,12
 386 196 386 196 386 142 c 0,13,14
 386 84 386 84 346 43 c 128,-1,15
 306 2 306 2 250 2 c 128,-1,16
 194 2 194 2 154 44 c 128,-1,17
 114 86 114 86 114 144 c 0,18,19
 114 198 114 198 154 235 c 128,-1,10
 194 272 194 272 250 272 c 128,-1,11
EndSplineSet
EndChar

StartChar: semicolon
Encoding: 315 59 59
Width: 490
Flags: HMW
LayerCount: 2
Fore
SplineSet
236 1032 m 0,0,1
 296 1032 296 1032 336 994 c 128,-1,2
 376 956 376 956 376 900 c 0,3,4
 376 836 376 836 336 798 c 0,5,6
 294 758 294 758 236 758 c 128,-1,7
 178 758 178 758 138 800 c 128,-1,8
 98 842 98 842 98 902 c 0,9,10
 98 958 98 958 138 995 c 128,-1,11
 178 1032 178 1032 236 1032 c 0,0,1
38 -280 m 0,12,13
 142 -252 142 -252 192 -198 c 128,-1,14
 242 -144 242 -144 242 -80 c 0,15,16
 242 -32 242 -32 198 0 c 0,17,18
 156 30 156 30 80 38 c 0,19,20
 62 40 62 40 62 108 c 0,21,22
 62 170 62 170 108 206 c 128,-1,23
 154 242 154 242 196 242 c 0,24,25
 198 242 198 242 200 242 c 0,26,27
 270 242 270 242 334 182 c 128,-1,28
 398 122 398 122 398 8 c 0,29,30
 396 -270 396 -270 64 -358 c 0,31,-1
 38 -280 l 0,12,13
EndSplineSet
EndChar

StartChar: less
Encoding: 316 60 60
Width: 810
Flags: HMW
LayerCount: 2
Fore
SplineSet
28 586 m 1,0,-1
 700 1056 l 5,1,-1
 764 940 l 5,2,-1
 222 584 l 1,3,-1
 770 220 l 1,4,-1
 690 100 l 1,5,-1
 30 552 l 1,6,-1
 28 586 l 1,0,-1
EndSplineSet
EndChar

StartChar: equal
Encoding: 317 61 61
Width: 870
Flags: HMW
LayerCount: 2
Fore
SplineSet
82 514 m 0,0,-1
 786 514 l 0,1,-1
 772 386 l 0,2,-1
 68 386 l 0,3,-1
 82 514 l 0,0,-1
86 804 m 0,4,-1
 790 804 l 0,5,-1
 776 676 l 0,6,-1
 72 676 l 0,7,-1
 86 804 l 0,4,-1
EndSplineSet
EndChar

StartChar: question
Encoding: 319 63 63
Width: 728
Flags: HMW
LayerCount: 2
Fore
SplineSet
28 1396 m 0,0,1
 28 1458 28 1458 86 1509 c 128,-1,2
 144 1560 144 1560 272 1560 c 0,3,4
 424 1560 424 1560 556 1411 c 128,-1,5
 688 1262 688 1262 688 1042 c 0,6,7
 688 962 688 962 652 905 c 128,-1,8
 616 848 616 848 565 818 c 128,-1,9
 514 788 514 788 463 762 c 128,-1,10
 412 736 412 736 376 700 c 128,-1,11
 340 664 340 664 340 616 c 0,12,13
 340 550 340 550 366 464 c 0,14,-1
 276 444 l 0,15,16
 182 584 182 584 182 708 c 0,17,18
 182 784 182 784 220 826 c 0,19,20
 238 846 238 846 420 956 c 0,21,22
 552 1036 552 1036 552 1136 c 0,23,24
 552 1218 552 1218 486 1282 c 0,25,26
 418 1348 418 1348 356 1348 c 0,27,28
 300 1348 300 1348 140 1268 c 0,29,30
 136 1266 136 1266 136 1268 c 0,31,32
 118 1268 118 1268 64 1318 c 0,33,34
 28 1352 28 1352 28 1396 c 0,0,1
470 110 m 0,35,36
 470 46 470 46 426 1 c 128,-1,37
 382 -44 382 -44 318 -44 c 0,38,39
 256 -44 256 -44 212 2 c 128,-1,40
 168 48 168 48 168 112 c 0,41,42
 168 172 168 172 212 213 c 128,-1,43
 256 254 256 254 318 254 c 128,-1,44
 380 254 380 254 425 212 c 128,-1,45
 470 170 470 170 470 110 c 0,35,36
EndSplineSet
EndChar

StartChar: at
Encoding: 320 64 64
Width: 1648
Flags: HMW
LayerCount: 2
Fore
SplineSet
962 838 m 0,0,1
 906 852 906 852 856 852 c 0,2,3
 756 852 756 852 692 724 c 128,-1,4
 628 596 628 596 628 446 c 0,5,6
 628 318 628 318 654 268 c 128,-1,7
 680 218 680 218 730 218 c 0,8,9
 820 218 820 218 898 308 c 0,10,-1
 962 838 l 0,0,1
912 1156 m 0,11,12
 720 1156 720 1156 567 1052 c 128,-1,13
 414 948 414 948 335 782 c 128,-1,14
 256 616 256 616 256 424 c 0,15,16
 256 154 256 154 423 -5 c 128,-1,17
 590 -164 590 -164 884 -164 c 0,18,19
 998 -164 998 -164 1119 -120 c 128,-1,20
 1240 -76 1240 -76 1298 -34 c 0,21,-1
 1310 -24 l 0,22,-1
 1354 -100 l 0,23,-1
 1344 -106 l 0,24,25
 1096 -276 1096 -276 840 -276 c 0,26,27
 694 -276 694 -276 562 -239 c 128,-1,28
 430 -202 430 -202 316 -126 c 128,-1,29
 202 -50 202 -50 135 83 c 128,-1,30
 68 216 68 216 68 392 c 0,31,32
 68 758 68 758 319 1011 c 128,-1,33
 570 1264 570 1264 956 1264 c 0,34,35
 1218 1264 1218 1264 1402 1110 c 128,-1,36
 1586 956 1586 956 1586 714 c 0,37,38
 1586 462 1586 462 1421 273 c 128,-1,39
 1256 84 1256 84 1012 84 c 0,40,41
 966 84 966 84 930 114 c 128,-1,42
 894 144 894 144 894 188 c 0,43,-1
 896 226 l 0,44,-1
 886 226 l 0,45,46
 844 164 844 164 783 118 c 128,-1,47
 722 72 722 72 658 72 c 0,48,49
 560 72 560 72 500 157 c 128,-1,50
 440 242 440 242 440 394 c 0,51,52
 440 636 440 636 595 796 c 128,-1,53
 750 956 750 956 920 956 c 0,54,55
 1032 956 1032 956 1120 936 c 0,56,-1
 1124 934 l 0,57,-1
 1146 910 l 0,58,-1
 1096 466 l 0,59,60
 1080 322 1080 322 1080 278 c 0,61,62
 1080 204 1080 204 1110 204 c 0,63,64
 1246 204 1246 204 1335 340 c 128,-1,65
 1424 476 1424 476 1424 664 c 0,66,67
 1424 894 1424 894 1279 1025 c 128,-1,68
 1134 1156 1134 1156 912 1156 c 0,11,12
EndSplineSet
EndChar

StartChar: A
Encoding: 321 65 65
Width: 1548
Flags: HMW
LayerCount: 2
Fore
SplineSet
908 1536 m 0,0,-1
 1380 150 l 0,1,-1
 1546 98 l 0,2,-1
 1536 0 l 0,3,-1
 912 0 l 0,4,-1
 926 90 l 0,5,-1
 1134 156 l 0,6,-1
 1002 524 l 0,7,-1
 494 524 l 0,8,-1
 358 150 l 0,9,-1
 584 98 l 0,10,-1
 570 0 l 0,11,-1
 2 0 l 0,12,-1
 14 90 l 0,13,-1
 194 156 l 0,14,-1
 724 1498 l 0,15,-1
 908 1536 l 0,0,-1
540 646 m 0,16,-1
 966 646 l 0,17,-1
 764 1252 l 0,18,-1
 540 646 l 0,16,-1
EndSplineSet
EndChar

StartChar: B
Encoding: 322 66 66
Width: 1366
Flags: HMW
LayerCount: 2
Fore
SplineSet
746 732 m 0,0,-1
 476 732 l 0,1,-1
 476 116 l 0,2,-1
 742 116 l 0,3,4
 892 116 892 116 980 209 c 128,-1,5
 1068 302 1068 302 1068 428 c 0,6,7
 1068 550 1068 550 982 641 c 128,-1,8
 896 732 896 732 746 732 c 0,0,-1
924 824 m 0,9,-1
 924 814 l 0,10,11
 1100 804 1100 804 1203 701 c 128,-1,12
 1306 598 1306 598 1306 468 c 0,13,14
 1306 278 1306 278 1131 139 c 128,-1,15
 956 0 956 0 614 0 c 0,16,-1
 28 0 l 0,17,-1
 40 90 l 0,18,-1
 244 146 l 0,19,-1
 244 1338 l 0,20,-1
 36 1374 l 0,21,-1
 48 1466 l 0,22,23
 428 1522 428 1522 644 1522 c 0,24,25
 908 1522 908 1522 1041 1421 c 128,-1,26
 1174 1320 1174 1320 1174 1170 c 0,27,28
 1174 1062 1174 1062 1115 967 c 128,-1,29
 1056 872 1056 872 924 824 c 0,9,-1
476 1410 m 0,30,-1
 476 834 l 0,31,-1
 728 834 l 0,32,33
 832 834 832 834 889 904 c 128,-1,34
 946 974 946 974 946 1102 c 0,35,36
 946 1234 946 1234 860 1326 c 128,-1,37
 774 1418 774 1418 572 1418 c 0,38,39
 518 1418 518 1418 476 1410 c 0,30,-1
EndSplineSet
EndChar

StartChar: C
Encoding: 323 67 67
Width: 1346
Flags: HMW
LayerCount: 2
Fore
SplineSet
320 798 m 0,0,1
 320 470 320 470 482 299 c 128,-1,2
 644 128 644 128 878 128 c 0,3,4
 1104 128 1104 128 1286 312 c 0,5,6
 1330 286 1330 286 1346 246 c 0,7,8
 1146 -30 1146 -30 780 -30 c 0,9,10
 484 -30 484 -30 272 169 c 128,-1,11
 60 368 60 368 60 714 c 0,12,13
 60 826 60 826 87 938 c 128,-1,14
 114 1050 114 1050 176 1159 c 128,-1,15
 238 1268 238 1268 326 1351 c 128,-1,16
 414 1434 414 1434 547 1486 c 128,-1,17
 680 1538 680 1538 840 1538 c 0,18,19
 1118 1538 1118 1538 1278 1416 c 0,20,-1
 1240 1014 l 0,21,-1
 1134 1030 l 0,22,-1
 1084 1296 l 0,23,24
 986 1422 986 1422 770 1422 c 0,25,26
 576 1422 576 1422 448 1253 c 128,-1,27
 320 1084 320 1084 320 798 c 0,0,1
EndSplineSet
EndChar

StartChar: D
Encoding: 324 68 68
Width: 1608
Flags: HMW
LayerCount: 2
Fore
SplineSet
478 1392 m 0,0,-1
 478 126 l 0,1,-1
 656 126 l 0,2,3
 946 126 946 126 1117 302 c 128,-1,4
 1288 478 1288 478 1288 724 c 0,5,6
 1288 1020 1288 1020 1119 1210 c 128,-1,7
 950 1400 950 1400 626 1400 c 0,8,9
 544 1400 544 1400 478 1392 c 0,0,-1
1548 798 m 0,10,11
 1548 648 1548 648 1483 507 c 128,-1,12
 1418 366 1418 366 1301 252 c 128,-1,13
 1184 138 1184 138 1002 69 c 128,-1,14
 820 0 820 0 604 0 c 0,15,-1
 22 0 l 0,16,-1
 38 90 l 0,17,-1
 246 156 l 0,18,-1
 246 1336 l 0,19,-1
 38 1372 l 0,20,-1
 48 1464 l 0,21,22
 424 1524 424 1524 670 1524 c 0,23,24
 868 1524 868 1524 1022 1484 c 128,-1,25
 1176 1444 1176 1444 1274 1377 c 128,-1,26
 1372 1310 1372 1310 1435 1215 c 128,-1,27
 1498 1120 1498 1120 1523 1018 c 128,-1,28
 1548 916 1548 916 1548 798 c 0,10,11
EndSplineSet
EndChar

StartChar: E
Encoding: 325 69 69
Width: 1302
Flags: HMW
LayerCount: 2
Fore
SplineSet
42 1506 m 0,0,-1
 1248 1506 l 0,1,-1
 1210 1120 l 0,2,-1
 1106 1136 l 0,3,-1
 1056 1396 l 0,4,-1
 484 1396 l 0,5,-1
 484 820 l 0,6,-1
 836 820 l 0,7,-1
 888 964 l 0,8,-1
 1002 980 l 0,9,-1
 962 510 l 0,10,-1
 858 494 l 0,11,-1
 818 706 l 0,12,-1
 484 706 l 0,13,-1
 484 116 l 0,14,-1
 1086 116 l 0,15,-1
 1204 394 l 0,16,-1
 1304 380 l 0,17,-1
 1268 0 l 0,18,-1
 38 0 l 0,19,-1
 48 90 l 0,20,-1
 250 146 l 0,21,-1
 250 1364 l 0,22,-1
 30 1414 l 0,23,-1
 42 1506 l 0,0,-1
EndSplineSet
EndChar

StartChar: F
Encoding: 326 70 70
Width: 1246
Flags: HMW
LayerCount: 2
Fore
SplineSet
42 1506 m 0,0,-1
 1246 1506 l 0,1,-1
 1196 1118 l 0,2,-1
 1090 1134 l 0,3,-1
 1048 1396 l 0,4,-1
 484 1396 l 0,5,-1
 484 812 l 0,6,-1
 832 812 l 0,7,-1
 884 958 l 0,8,-1
 992 974 l 0,9,-1
 960 500 l 0,10,-1
 854 482 l 0,11,-1
 816 700 l 0,12,-1
 484 700 l 0,13,-1
 482 148 l 0,14,-1
 770 102 l 0,15,-1
 754 0 l 0,16,-1
 38 0 l 0,17,-1
 48 90 l 0,18,-1
 250 146 l 0,19,-1
 250 1364 l 0,20,-1
 30 1414 l 0,21,-1
 42 1506 l 0,0,-1
EndSplineSet
EndChar

StartChar: G
Encoding: 327 71 71
Width: 1546
Flags: HMW
LayerCount: 2
Fore
SplineSet
1368 1408 m 0,0,-1
 1338 1018 l 0,1,-1
 1232 1036 l 0,2,-1
 1188 1268 l 0,3,4
 1144 1324 1144 1324 1043 1365 c 128,-1,5
 942 1406 942 1406 792 1406 c 0,6,7
 698 1406 698 1406 618 1375 c 128,-1,8
 538 1344 538 1344 469 1275 c 128,-1,9
 400 1206 400 1206 361 1081 c 128,-1,10
 322 956 322 956 322 784 c 0,11,12
 322 496 322 496 479 294 c 128,-1,13
 636 92 636 92 910 92 c 0,14,15
 1074 92 1074 92 1130 148 c 0,16,-1
 1130 526 l 0,17,-1
 844 572 l 0,18,-1
 858 672 l 0,19,-1
 1532 672 l 0,20,-1
 1518 582 l 0,21,-1
 1368 532 l 0,22,-1
 1368 106 l 0,23,24
 1168 -38 1168 -38 766 -38 c 0,25,26
 590 -38 590 -38 451 23 c 128,-1,27
 312 84 312 84 229 188 c 128,-1,28
 146 292 146 292 103 422 c 128,-1,29
 60 552 60 552 60 700 c 0,30,31
 60 892 60 892 127 1051 c 128,-1,32
 194 1210 194 1210 306 1312 c 128,-1,33
 418 1414 418 1414 559 1470 c 128,-1,34
 700 1526 700 1526 852 1526 c 0,35,36
 1192 1526 1192 1526 1368 1408 c 0,0,-1
EndSplineSet
EndChar

StartChar: H
Encoding: 328 72 72
Width: 1716
Flags: HMW
LayerCount: 2
Fore
SplineSet
694 0 m 0,0,-1
 38 0 l 0,1,-1
 48 90 l 0,2,-1
 250 146 l 0,3,-1
 250 1364 l 0,4,-1
 30 1414 l 0,5,-1
 42 1506 l 0,6,-1
 702 1506 l 0,7,-1
 690 1414 l 0,8,-1
 486 1368 l 0,9,-1
 486 838 l 0,10,-1
 1246 838 l 0,11,-1
 1246 1364 l 0,12,-1
 1024 1414 l 0,13,-1
 1038 1506 l 0,14,-1
 1698 1506 l 0,15,-1
 1684 1414 l 0,16,-1
 1482 1368 l 0,17,-1
 1482 138 l 0,18,-1
 1702 98 l 0,19,-1
 1690 0 l 0,20,-1
 1032 0 l 0,21,-1
 1046 90 l 0,22,-1
 1246 146 l 0,23,-1
 1246 716 l 0,24,-1
 486 714 l 0,25,-1
 486 138 l 0,26,-1
 710 98 l 0,27,-1
 694 0 l 0,0,-1
EndSplineSet
EndChar

StartChar: I
Encoding: 329 73 73
Width: 728
Flags: HMW
LayerCount: 2
Fore
SplineSet
692 0 m 0,0,-1
 38 0 l 0,1,-1
 48 90 l 0,2,-1
 250 146 l 0,3,-1
 250 1364 l 0,4,-1
 30 1414 l 0,5,-1
 42 1506 l 0,6,-1
 702 1506 l 0,7,-1
 690 1414 l 0,8,-1
 484 1368 l 0,9,-1
 484 138 l 0,10,-1
 704 98 l 0,11,-1
 692 0 l 0,0,-1
EndSplineSet
EndChar

StartChar: J
Encoding: 330 74 74
Width: 718
Flags: HMW
LayerCount: 2
Fore
SplineSet
28 -394 m 0,0,1
 -4 -360 -4 -360 -38 -288 c 0,2,3
 108 -148 108 -148 178 -25 c 128,-1,4
 248 98 248 98 248 238 c 0,5,-1
 250 1364 l 0,6,-1
 30 1414 l 0,7,-1
 42 1506 l 0,8,-1
 702 1506 l 0,9,-1
 690 1414 l 0,10,-1
 484 1368 l 0,11,-1
 482 466 l 0,12,13
 482 278 482 278 461 155 c 128,-1,14
 440 32 440 32 383 -66 c 128,-1,15
 326 -164 326 -164 248 -233 c 128,-1,16
 170 -302 170 -302 28 -394 c 0,0,1
EndSplineSet
EndChar

StartChar: K
Encoding: 331 75 75
Width: 1488
Flags: HMW
LayerCount: 2
Fore
SplineSet
832 316 m 0,0,-1
 622 616 l 0,1,2
 556 702 556 702 520 732 c 0,3,-1
 520 762 l 0,4,5
 602 828 602 828 652 892 c 0,6,-1
 1008 1358 l 0,7,-1
 814 1414 l 0,8,-1
 824 1506 l 0,9,-1
 1426 1506 l 0,10,-1
 1412 1414 l 0,11,-1
 1198 1358 l 0,12,-1
 746 792 l 0,13,-1
 1022 466 l 0,14,15
 1176 282 1176 282 1257 208 c 128,-1,16
 1338 134 1338 134 1446 100 c 0,17,-1
 1492 86 l 0,18,-1
 1478 2 l 0,19,20
 1400 -26 1400 -26 1320 -26 c 0,21,22
 1180 -26 1180 -26 1062 64 c 128,-1,23
 944 154 944 154 832 316 c 0,0,-1
484 150 m 0,24,-1
 714 98 l 0,25,-1
 700 0 l 0,26,-1
 30 0 l 0,27,-1
 42 90 l 0,28,-1
 250 156 l 0,29,-1
 250 1354 l 0,30,-1
 22 1414 l 0,31,-1
 38 1506 l 0,32,-1
 704 1506 l 0,33,-1
 692 1414 l 0,34,-1
 484 1358 l 0,35,-1
 484 150 l 0,24,-1
EndSplineSet
EndChar

StartChar: L
Encoding: 332 76 76
Width: 1290
Flags: HMW
LayerCount: 2
Fore
SplineSet
712 1506 m 0,0,-1
 700 1414 l 0,1,-1
 492 1358 l 0,2,-1
 492 116 l 0,3,-1
 1028 116 l 0,4,-1
 1186 416 l 0,5,-1
 1290 400 l 0,6,-1
 1244 0 l 0,7,-1
 46 0 l 0,8,-1
 56 90 l 0,9,-1
 258 146 l 0,10,-1
 258 1354 l 0,11,-1
 30 1414 l 0,12,-1
 46 1506 l 0,13,-1
 712 1506 l 0,0,-1
EndSplineSet
EndChar

StartChar: M
Encoding: 333 77 77
Width: 2016
Flags: HMW
LayerCount: 2
Fore
SplineSet
882 38 m 0,0,-1
 466 1170 l 0,1,-1
 388 138 l 0,2,-1
 612 98 l 0,3,-1
 596 0 l 0,4,-1
 14 0 l 0,5,-1
 28 90 l 0,6,-1
 230 146 l 0,7,-1
 318 1364 l 0,8,-1
 96 1414 l 0,9,-1
 110 1506 l 0,10,-1
 594 1506 l 0,11,-1
 690 1272 l 0,12,-1
 1006 374 l 0,13,-1
 1382 1312 l 0,14,-1
 1466 1506 l 0,15,-1
 1944 1506 l 0,16,-1
 1932 1414 l 0,17,-1
 1728 1368 l 0,18,-1
 1792 138 l 0,19,-1
 2012 98 l 0,20,-1
 2000 0 l 0,21,-1
 1352 0 l 0,22,-1
 1366 90 l 0,23,-1
 1566 146 l 0,24,-1
 1498 1216 l 0,25,-1
 1036 62 l 0,26,-1
 882 38 l 0,0,-1
EndSplineSet
EndChar

StartChar: N
Encoding: 334 78 78
Width: 1620
Flags: HMW
LayerCount: 2
Fore
SplineSet
1208 -36 m 0,0,-1
 404 1164 l 0,1,-1
 404 138 l 0,2,-1
 626 98 l 0,3,-1
 614 0 l 0,4,-1
 38 0 l 0,5,-1
 48 90 l 0,6,-1
 250 146 l 0,7,-1
 250 1354 l 0,8,-1
 30 1414 l 0,9,-1
 42 1506 l 0,10,-1
 468 1506 l 0,11,-1
 1246 330 l 0,12,-1
 1246 1364 l 0,13,-1
 1022 1414 l 0,14,-1
 1036 1506 l 0,15,-1
 1612 1506 l 0,16,-1
 1596 1414 l 0,17,-1
 1394 1368 l 0,18,-1
 1394 2 l 0,19,-1
 1208 -36 l 0,0,-1
EndSplineSet
EndChar

StartChar: O
Encoding: 335 79 79
Width: 1602
Flags: HMW
LayerCount: 2
Fore
SplineSet
784 1424 m 0,0,1
 330 1424 330 1424 330 820 c 0,2,3
 330 680 330 680 358 555 c 128,-1,4
 386 430 386 430 442 325 c 128,-1,5
 498 220 498 220 595 158 c 128,-1,6
 692 96 692 96 818 96 c 0,7,8
 950 96 950 96 1044 147 c 128,-1,9
 1138 198 1138 198 1187 287 c 128,-1,10
 1236 376 1236 376 1257 475 c 128,-1,11
 1278 574 1278 574 1278 694 c 0,12,13
 1278 828 1278 828 1249 954 c 128,-1,14
 1220 1080 1220 1080 1163 1187 c 128,-1,15
 1106 1294 1106 1294 1008 1359 c 128,-1,16
 910 1424 910 1424 784 1424 c 0,0,1
1542 750 m 0,17,18
 1542 538 1542 538 1453 362 c 128,-1,19
 1364 186 1364 186 1183 77 c 128,-1,20
 1002 -32 1002 -32 758 -32 c 0,21,22
 450 -32 450 -32 255 192 c 128,-1,23
 60 416 60 416 60 750 c 0,24,25
 60 1104 60 1104 272 1323 c 128,-1,26
 484 1542 484 1542 842 1542 c 0,27,28
 1054 1542 1054 1542 1216 1432 c 128,-1,29
 1378 1322 1378 1322 1460 1143 c 128,-1,30
 1542 964 1542 964 1542 750 c 0,17,18
EndSplineSet
EndChar

StartChar: P
Encoding: 336 80 80
Width: 1222
Flags: HMW
LayerCount: 2
Fore
SplineSet
1232 1080 m 0,0,1
 1232 868 1232 868 1075 731 c 128,-1,2
 918 594 918 594 694 594 c 0,3,4
 638 594 638 594 554 604 c 0,5,-1
 532 704 l 0,6,-1
 596 704 l 0,7,8
 982 704 982 704 982 1036 c 0,9,10
 982 1202 982 1202 887 1311 c 128,-1,11
 792 1420 792 1420 604 1420 c 0,12,-1
 476 1414 l 0,13,-1
 476 148 l 0,14,-1
 762 102 l 0,15,-1
 746 0 l 0,16,-1
 28 0 l 0,17,-1
 40 90 l 0,18,-1
 244 146 l 0,19,-1
 244 1338 l 0,20,-1
 36 1374 l 0,21,-1
 48 1466 l 0,22,23
 400 1520 400 1520 626 1520 c 0,24,25
 1232 1520 1232 1520 1232 1080 c 0,0,1
EndSplineSet
EndChar

StartChar: Q
Encoding: 337 81 81
Width: 1616
Flags: HMW
LayerCount: 2
Fore
SplineSet
806 1414 m 0,0,1
 576 1414 576 1414 448 1259 c 128,-1,2
 320 1104 320 1104 320 824 c 0,3,4
 320 730 320 730 336 637 c 128,-1,5
 352 544 352 544 395 445 c 128,-1,6
 438 346 438 346 502 270 c 128,-1,7
 566 194 566 194 671 142 c 128,-1,8
 776 90 776 90 908 82 c 0,9,10
 1324 186 1324 186 1324 682 c 0,11,12
 1324 864 1324 864 1263 1029 c 128,-1,13
 1202 1194 1202 1194 1081 1304 c 128,-1,14
 960 1414 960 1414 806 1414 c 0,0,1
852 -26 m 0,15,16
 834 -32 834 -32 774 -32 c 0,17,18
 464 -32 464 -32 269 186 c 128,-1,19
 74 404 74 404 74 736 c 0,20,21
 74 1090 74 1090 295 1316 c 128,-1,22
 516 1542 516 1542 874 1542 c 0,23,24
 1190 1542 1190 1542 1382 1316 c 128,-1,25
 1574 1090 1574 1090 1574 762 c 0,26,27
 1574 488 1574 488 1418 273 c 128,-1,28
 1262 58 1262 58 992 -8 c 0,29,30
 1032 -98 1032 -98 1083 -154 c 128,-1,31
 1134 -210 1134 -210 1241 -258 c 128,-1,32
 1348 -306 1348 -306 1516 -334 c 0,33,34
 1516 -392 1516 -392 1504 -424 c 0,35,36
 1416 -466 1416 -466 1290 -466 c 0,37,38
 1120 -466 1120 -466 994 -346 c 128,-1,39
 868 -226 868 -226 852 -26 c 0,15,16
EndSplineSet
EndChar

StartChar: R
Encoding: 338 82 82
Width: 1470
Flags: HMW
LayerCount: 2
Fore
SplineSet
1208 1134 m 0,0,1
 1208 1012 1208 1012 1117 899 c 128,-1,2
 1026 786 1026 786 862 726 c 0,3,-1
 862 724 l 0,4,-1
 1080 422 l 0,5,6
 1202 254 1202 254 1266 190 c 128,-1,7
 1330 126 1330 126 1434 94 c 0,8,-1
 1474 82 l 0,9,-1
 1456 -2 l 0,10,11
 1386 -26 1386 -26 1310 -26 c 0,12,13
 1068 -26 1068 -26 880 306 c 0,14,-1
 686 650 l 0,15,-1
 476 650 l 0,16,-1
 476 152 l 0,17,-1
 704 100 l 0,18,-1
 692 0 l 0,19,-1
 28 0 l 0,20,-1
 40 90 l 0,21,-1
 244 146 l 0,22,-1
 244 1334 l 0,23,-1
 36 1370 l 0,24,-1
 48 1462 l 0,25,26
 404 1518 404 1518 602 1518 c 0,27,28
 1208 1518 1208 1518 1208 1134 c 0,0,1
676 760 m 0,29,30
 786 760 786 760 872 850 c 128,-1,31
 958 940 958 940 958 1066 c 0,32,33
 958 1220 958 1220 868 1318 c 128,-1,34
 778 1416 778 1416 622 1416 c 0,35,-1
 476 1410 l 0,36,-1
 476 760 l 0,37,-1
 676 760 l 0,29,30
EndSplineSet
EndChar

StartChar: S
Encoding: 339 83 83
Width: 1046
Flags: HMW
LayerCount: 2
Fore
SplineSet
872 1074 m 1,0,-1
 750 1088 l 1,1,-1
 718 1320 l 1,2,3
 700 1360 700 1360 638 1397 c 128,-1,4
 576 1434 576 1434 514 1434 c 0,5,6
 416 1434 416 1434 354 1376 c 128,-1,7
 292 1318 292 1318 292 1206 c 0,8,9
 292 1136 292 1136 331 1078 c 128,-1,10
 370 1020 370 1020 432 979 c 128,-1,11
 494 938 494 938 570 898 c 128,-1,12
 646 858 646 858 722 815 c 128,-1,13
 798 772 798 772 860 721 c 128,-1,14
 922 670 922 670 961 595 c 128,-1,15
 1000 520 1000 520 1000 428 c 0,16,17
 1000 226 1000 226 839 98 c 128,-1,18
 678 -30 678 -30 462 -30 c 0,19,20
 334 -30 334 -30 219 21 c 128,-1,21
 104 72 104 72 54 148 c 1,22,-1
 70 472 l 1,23,-1
 194 454 l 1,24,-1
 240 226 l 1,25,26
 314 94 314 94 490 94 c 0,27,28
 600 94 600 94 689 159 c 128,-1,29
 778 224 778 224 778 348 c 0,30,31
 778 420 778 420 727 482 c 128,-1,32
 676 544 676 544 598 585 c 128,-1,33
 520 626 520 626 431 678 c 128,-1,34
 342 730 342 730 264 782 c 128,-1,35
 186 834 186 834 135 919 c 128,-1,36
 84 1004 84 1004 84 1110 c 0,37,38
 84 1306 84 1306 224 1422 c 128,-1,39
 364 1538 364 1538 561 1538 c 128,-1,40
 758 1538 758 1538 898 1416 c 1,41,-1
 872 1074 l 1,0,-1
EndSplineSet
EndChar

StartChar: T
Encoding: 340 84 84
Width: 1356
Flags: HMW
LayerCount: 2
Fore
SplineSet
10 1506 m 0,0,-1
 1356 1506 l 0,1,-1
 1314 1098 l 0,2,-1
 1200 1116 l 0,3,-1
 1152 1396 l 0,4,-1
 784 1396 l 0,5,-1
 784 138 l 0,6,-1
 1008 98 l 0,7,-1
 992 0 l 0,8,-1
 338 0 l 0,9,-1
 348 90 l 0,10,-1
 552 146 l 0,11,-1
 552 1396 l 0,12,-1
 194 1396 l 0,13,-1
 130 1102 l 0,14,-1
 20 1118 l 0,15,-1
 10 1506 l 0,0,-1
EndSplineSet
EndChar

StartChar: U
Encoding: 341 85 85
Width: 1658
Flags: HMW
LayerCount: 2
Fore
SplineSet
888 112 m 0,0,1
 992 112 992 112 1068 144 c 128,-1,2
 1144 176 1144 176 1184 222 c 128,-1,3
 1224 268 1224 268 1247 337 c 128,-1,4
 1270 406 1270 406 1276 460 c 128,-1,5
 1282 514 1282 514 1282 582 c 0,6,-1
 1284 1364 l 0,7,-1
 1064 1414 l 0,8,-1
 1076 1506 l 0,9,-1
 1656 1506 l 0,10,-1
 1642 1414 l 0,11,-1
 1440 1368 l 0,12,-1
 1434 604 l 0,13,14
 1428 -32 1428 -32 810 -32 c 0,15,16
 732 -32 732 -32 661 -19 c 128,-1,17
 590 -6 590 -6 509 33 c 128,-1,18
 428 72 428 72 370 136 c 128,-1,19
 312 200 312 200 273 311 c 128,-1,20
 234 422 234 422 234 568 c 0,21,-1
 234 1364 l 0,22,-1
 10 1414 l 0,23,-1
 26 1506 l 0,24,-1
 682 1506 l 0,25,-1
 670 1414 l 0,26,-1
 466 1368 l 0,27,-1
 466 598 l 0,28,29
 466 350 466 350 579 231 c 128,-1,30
 692 112 692 112 888 112 c 0,0,1
EndSplineSet
EndChar

StartChar: V
Encoding: 342 86 86
Width: 1556
Flags: HMW
LayerCount: 2
Fore
SplineSet
686 -30 m 0,0,-1
 178 1364 l 0,1,-1
 2 1414 l 0,2,-1
 14 1506 l 0,3,-1
 664 1506 l 0,4,-1
 652 1414 l 0,5,-1
 448 1368 l 0,6,-1
 826 304 l 0,7,-1
 1214 1364 l 0,8,-1
 992 1414 l 0,9,-1
 1002 1506 l 0,10,-1
 1554 1506 l 0,11,-1
 1544 1414 l 0,12,-1
 1386 1368 l 0,13,-1
 870 6 l 0,14,-1
 686 -30 l 0,0,-1
EndSplineSet
EndChar

StartChar: W
Encoding: 343 87 87
Width: 2234
Flags: HMW
LayerCount: 2
Fore
SplineSet
1432 -30 m 0,0,-1
 1126 1152 l 0,1,-1
 770 6 l 0,2,-1
 574 -30 l 0,3,-1
 178 1364 l 0,4,-1
 10 1414 l 0,5,-1
 20 1506 l 0,6,-1
 642 1506 l 0,7,-1
 626 1414 l 0,8,-1
 422 1368 l 0,9,-1
 716 330 l 0,10,-1
 1066 1446 l 0,11,-1
 1280 1476 l 0,12,-1
 1570 348 l 0,13,-1
 1886 1364 l 0,14,-1
 1666 1414 l 0,15,-1
 1680 1506 l 0,16,-1
 2224 1506 l 0,17,-1
 2210 1414 l 0,18,-1
 2062 1368 l 0,19,-1
 1620 6 l 0,20,-1
 1432 -30 l 0,0,-1
EndSplineSet
EndChar

StartChar: X
Encoding: 344 88 88
Width: 1456
Flags: HMW
LayerCount: 2
Fore
SplineSet
864 788 m 0,0,-1
 1278 138 l 0,1,-1
 1446 98 l 0,2,-1
 1430 0 l 0,3,-1
 808 0 l 0,4,-1
 824 90 l 0,5,-1
 1026 146 l 0,6,-1
 708 632 l 0,7,-1
 350 138 l 0,8,-1
 570 98 l 0,9,-1
 558 0 l 0,10,-1
 10 0 l 0,11,-1
 26 90 l 0,12,-1
 172 146 l 0,13,-1
 616 736 l 0,14,-1
 204 1354 l 0,15,-1
 44 1414 l 0,16,-1
 58 1506 l 0,17,-1
 696 1506 l 0,18,-1
 682 1414 l 0,19,-1
 474 1358 l 0,20,-1
 774 900 l 0,21,-1
 1102 1364 l 0,22,-1
 876 1414 l 0,23,-1
 890 1506 l 0,24,-1
 1438 1506 l 0,25,-1
 1428 1414 l 0,26,-1
 1274 1368 l 0,27,-1
 864 788 l 0,0,-1
EndSplineSet
EndChar

StartChar: Y
Encoding: 345 89 89
Width: 1466
Flags: HMW
LayerCount: 2
Fore
SplineSet
866 640 m 0,0,-1
 866 138 l 0,1,-1
 1064 98 l 0,2,-1
 1052 0 l 0,3,-1
 438 0 l 0,4,-1
 450 90 l 0,5,-1
 632 146 l 0,6,-1
 632 612 l 0,7,-1
 204 1364 l 0,8,-1
 38 1414 l 0,9,-1
 54 1506 l 0,10,-1
 668 1506 l 0,11,-1
 654 1414 l 0,12,-1
 462 1368 l 0,13,-1
 798 776 l 0,14,-1
 1118 1364 l 0,15,-1
 896 1414 l 0,16,-1
 908 1506 l 0,17,-1
 1446 1506 l 0,18,-1
 1434 1414 l 0,19,-1
 1284 1368 l 0,20,-1
 866 640 l 0,0,-1
EndSplineSet
EndChar

StartChar: Z
Encoding: 346 90 90
Width: 1222
Flags: HMW
LayerCount: 2
Fore
SplineSet
62 1506 m 0,0,-1
 1186 1506 l 0,1,-1
 1186 1414 l 0,2,-1
 260 122 l 0,3,-1
 950 122 l 0,4,-1
 1100 424 l 0,5,-1
 1212 406 l 0,6,-1
 1144 0 l 0,7,-1
 10 0 l 0,8,-1
 0 126 l 0,9,-1
 902 1392 l 0,10,-1
 252 1392 l 0,11,-1
 158 1094 l 0,12,-1
 50 1116 l 0,13,-1
 62 1506 l 0,0,-1
EndSplineSet
EndChar

StartChar: bracketleft
Encoding: 347 91 91
Width: 690
Flags: HMW
LayerCount: 2
Fore
SplineSet
550 -454 m 0,0,-1
 266 -454 l 0,1,-1
 238 -428 l 0,2,-1
 240 1494 l 0,3,-1
 274 1520 l 0,4,-1
 556 1520 l 0,5,-1
 556 1396 l 0,6,-1
 398 1392 l 0,7,-1
 398 -314 l 0,8,-1
 550 -318 l 0,9,-1
 550 -454 l 0,0,-1
EndSplineSet
EndChar

StartChar: backslash
Encoding: 348 92 92
Width: 664
Flags: HMW
LayerCount: 2
Fore
SplineSet
132 1496 m 0,0,-1
 692 -440 l 0,1,-1
 536 -430 l 0,2,-1
 -28 1506 l 0,3,-1
 132 1496 l 0,0,-1
EndSplineSet
EndChar

StartChar: bracketright
Encoding: 349 93 93
Width: 690
Flags: HMW
LayerCount: 2
Fore
SplineSet
140 -454 m 0,0,-1
 140 -318 l 0,1,-1
 292 -314 l 0,2,-1
 292 1392 l 0,3,-1
 134 1396 l 0,4,-1
 134 1520 l 0,5,-1
 416 1520 l 0,6,-1
 450 1494 l 0,7,-1
 452 -428 l 0,8,-1
 424 -454 l 0,9,-1
 140 -454 l 0,0,-1
EndSplineSet
EndChar

StartChar: asciicircum
Encoding: 350 94 94
Width: 924
Flags: HMW
LayerCount: 2
Fore
SplineSet
286 1238 m 0,0,-1
 182 1296 l 0,1,-1
 392 1550 l 0,2,3
 436 1572 436 1572 470 1572 c 0,4,5
 488 1572 488 1572 496 1570 c 0,6,-1
 742 1304 l 0,7,-1
 634 1244 l 0,8,-1
 448 1434 l 0,9,-1
 286 1238 l 0,0,-1
EndSplineSet
EndChar

StartChar: underscore
Encoding: 351 95 95
Width: 1092
Flags: HMW
LayerCount: 2
Fore
SplineSet
50 -32 m 0,0,-1
 1054 -32 l 0,1,-1
 1040 -160 l 0,2,-1
 36 -160 l 0,3,-1
 50 -32 l 0,0,-1
EndSplineSet
EndChar

StartChar: grave
Encoding: 352 96 96
Width: 448
Flags: HMW
LayerCount: 2
Fore
SplineSet
10 1450 m 0,0,-1
 208 1552 l 0,1,2
 236 1470 236 1470 302 1336 c 128,-1,3
 368 1202 368 1202 420 1136 c 0,4,-1
 332 1064 l 0,5,6
 250 1114 250 1114 159 1227 c 128,-1,7
 68 1340 68 1340 10 1450 c 0,0,-1
EndSplineSet
EndChar

StartChar: a
Encoding: 353 97 97
Width: 1066
Flags: HMW
LayerCount: 2
Fore
SplineSet
638 508 m 0,0,1
 426 460 426 460 359 407 c 128,-1,2
 292 354 292 354 292 260 c 0,3,4
 292 208 292 208 329 164 c 128,-1,5
 366 120 366 120 428 120 c 0,6,7
 486 120 486 120 544 154 c 128,-1,8
 602 188 602 188 638 228 c 0,9,-1
 638 508 l 0,0,1
850 -22 m 0,10,11
 754 -22 754 -22 708 27 c 128,-1,12
 662 76 662 76 662 140 c 0,13,-1
 662 158 l 0,14,-1
 648 158 l 0,15,16
 618 98 618 98 521 34 c 128,-1,17
 424 -30 424 -30 318 -30 c 0,18,19
 218 -30 218 -30 149 33 c 128,-1,20
 80 96 80 96 80 204 c 0,21,22
 80 500 80 500 638 592 c 0,23,-1
 638 654 l 0,24,25
 638 970 638 970 438 970 c 0,26,27
 358 970 358 970 335 920 c 128,-1,28
 312 870 312 870 296 736 c 0,29,30
 130 736 130 736 130 862 c 0,31,32
 130 924 130 924 197 979 c 128,-1,33
 264 1034 264 1034 357 1063 c 128,-1,34
 450 1092 450 1092 536 1092 c 0,35,36
 696 1092 696 1092 766 1002 c 128,-1,37
 836 912 836 912 836 718 c 0,38,-1
 836 278 l 0,39,40
 836 192 836 192 861 161 c 128,-1,41
 886 130 886 130 970 116 c 0,42,-1
 1030 106 l 0,43,-1
 1016 2 l 0,44,45
 1010 2 1010 2 951 -10 c 128,-1,46
 892 -22 892 -22 850 -22 c 0,10,11
EndSplineSet
EndChar

StartChar: b
Encoding: 354 98 98
Width: 1244
Flags: HMW
LayerCount: 2
Fore
SplineSet
168 60 m 0,0,-1
 168 1342 l 0,1,-1
 -16 1406 l 0,2,-1
 0 1498 l 0,3,-1
 336 1524 l 0,4,-1
 366 1496 l 0,5,-1
 366 1028 l 0,6,-1
 348 902 l 0,7,-1
 362 902 l 0,8,9
 528 1088 528 1088 708 1088 c 0,10,11
 884 1088 884 1088 991 945 c 128,-1,12
 1098 802 1098 802 1098 572 c 0,13,14
 1098 296 1098 296 923 134 c 128,-1,15
 748 -28 748 -28 500 -28 c 0,16,17
 308 -28 308 -28 168 60 c 0,0,-1
882 494 m 0,18,19
 882 570 882 570 870 640 c 128,-1,20
 858 710 858 710 832 778 c 128,-1,21
 806 846 806 846 753 888 c 128,-1,22
 700 930 700 930 626 930 c 0,23,24
 476 930 476 930 366 814 c 0,25,-1
 366 188 l 0,26,27
 448 106 448 106 622 106 c 0,28,29
 734 106 734 106 808 204 c 128,-1,30
 882 302 882 302 882 494 c 0,18,19
EndSplineSet
EndChar

StartChar: c
Encoding: 355 99 99
Width: 972
Flags: HMW
LayerCount: 2
Fore
SplineSet
662 100 m 0,0,1
 720 100 720 100 773 116 c 128,-1,2
 826 132 826 132 850 146 c 128,-1,3
 874 160 874 160 918 190 c 0,4,5
 930 168 930 168 946 120 c 0,6,7
 796 -36 796 -36 558 -36 c 0,8,9
 356 -36 356 -36 229 122 c 128,-1,10
 102 280 102 280 102 504 c 0,11,12
 102 764 102 764 256 927 c 128,-1,13
 410 1090 410 1090 616 1090 c 0,14,15
 758 1090 758 1090 832 1036 c 128,-1,16
 906 982 906 982 906 904 c 0,17,18
 906 790 906 790 754 778 c 0,19,20
 750 802 750 802 738 831 c 128,-1,21
 726 860 726 860 705 895 c 128,-1,22
 684 930 684 930 645 953 c 128,-1,23
 606 976 606 976 558 976 c 0,24,25
 450 976 450 976 383 877 c 128,-1,26
 316 778 316 778 316 614 c 0,27,28
 316 502 316 502 348 390 c 128,-1,29
 380 278 380 278 462 189 c 128,-1,30
 544 100 544 100 662 100 c 0,0,1
EndSplineSet
EndChar

StartChar: d
Encoding: 356 100 100
Width: 1244
Flags: HMW
LayerCount: 2
Fore
SplineSet
844 158 m 0,0,-1
 832 158 l 0,1,2
 784 104 784 104 748 71 c 128,-1,3
 712 38 712 38 643 6 c 128,-1,4
 574 -26 574 -26 496 -26 c 0,5,6
 328 -26 328 -26 215 109 c 128,-1,7
 102 244 102 244 102 484 c 0,8,9
 102 610 102 610 151 726 c 128,-1,10
 200 842 200 842 276 921 c 128,-1,11
 352 1000 352 1000 441 1046 c 128,-1,12
 530 1092 530 1092 612 1092 c 0,13,14
 752 1092 752 1092 840 1036 c 0,15,-1
 850 1036 l 0,16,-1
 834 1192 l 0,17,-1
 834 1346 l 0,18,-1
 650 1412 l 0,19,-1
 666 1502 l 0,20,-1
 1002 1532 l 0,21,-1
 1030 1502 l 0,22,-1
 1030 260 l 0,23,24
 1030 214 1030 214 1037 186 c 128,-1,25
 1044 158 1044 158 1068 142 c 128,-1,26
 1092 126 1092 126 1106 122 c 128,-1,27
 1120 118 1120 118 1162 108 c 0,28,-1
 1216 96 l 0,29,-1
 1202 -6 l 0,30,31
 1114 -28 1114 -28 1024 -28 c 0,32,33
 936 -28 936 -28 890 21 c 128,-1,34
 844 70 844 70 844 150 c 0,35,-1
 844 158 l 0,0,-1
832 238 m 0,36,-1
 832 798 l 0,37,38
 724 972 724 972 568 972 c 0,39,40
 444 972 444 972 380 858 c 128,-1,41
 316 744 316 744 316 560 c 0,42,43
 316 350 316 350 389 239 c 128,-1,44
 462 128 462 128 580 128 c 0,45,46
 652 128 652 128 725 162 c 128,-1,47
 798 196 798 196 832 238 c 0,36,-1
EndSplineSet
EndChar

StartChar: e
Encoding: 357 101 101
Width: 1010
Flags: HMW
LayerCount: 2
Fore
SplineSet
876 546 m 0,0,-1
 290 540 l 0,1,2
 298 376 298 376 385 245 c 128,-1,3
 472 114 472 114 628 114 c 0,4,5
 704 114 704 114 761 127 c 128,-1,6
 818 140 818 140 904 186 c 0,7,-1
 928 126 l 0,8,9
 772 -36 772 -36 530 -36 c 0,10,11
 344 -36 344 -36 209 111 c 128,-1,12
 74 258 74 258 74 518 c 0,13,14
 74 776 74 776 228 932 c 128,-1,15
 382 1088 382 1088 572 1088 c 0,16,17
 712 1088 712 1088 804 988 c 128,-1,18
 896 888 896 888 896 704 c 0,19,20
 896 630 896 630 876 546 c 0,0,-1
292 638 m 0,21,-1
 672 664 l 0,22,23
 680 690 680 690 680 744 c 0,24,25
 680 970 680 970 512 970 c 0,26,27
 430 970 430 970 365 886 c 128,-1,28
 300 802 300 802 292 638 c 0,21,-1
EndSplineSet
EndChar

StartChar: f
Encoding: 358 102 102
Width: 742
Flags: HMW
LayerCount: 2
Fore
SplineSet
450 1188 m 4,0,-1
 448 1058 l 4,1,-1
 760 1058 l 4,2,-1
 744 950 l 4,3,-1
 448 950 l 4,4,-1
 448 146 l 4,5,-1
 746 102 l 4,6,-1
 736 0 l 4,7,-1
 48 0 l 4,8,-1
 62 88 l 4,9,-1
 246 140 l 4,10,-1
 246 950 l 4,11,-1
 66 950 l 4,12,-1
 80 1038 l 4,13,-1
 248 1066 l 4,14,15
 276 1308 276 1308 415 1444 c 132,-1,16
 554 1580 554 1580 702 1580 c 4,17,18
 804 1580 804 1580 866 1545 c 132,-1,19
 928 1510 928 1510 928 1440 c 4,20,21
 928 1398 928 1398 892 1358 c 132,-1,22
 856 1318 856 1318 820 1304 c 4,23,24
 778 1374 778 1374 720 1413 c 132,-1,25
 662 1452 662 1452 608 1452 c 4,26,27
 534 1452 534 1452 494 1394 c 132,-1,28
 454 1336 454 1336 450 1188 c 4,0,-1
EndSplineSet
EndChar

StartChar: g
Encoding: 359 103 103
Width: 1068
Flags: HMW
LayerCount: 2
Fore
SplineSet
304 736 m 0,0,1
 304 616 304 616 366 536 c 128,-1,2
 428 456 428 456 500 456 c 0,3,4
 582 456 582 456 629 520 c 128,-1,5
 676 584 676 584 676 702 c 0,6,7
 676 814 676 814 627 905 c 128,-1,8
 578 996 578 996 484 996 c 0,9,10
 304 996 304 996 304 736 c 0,0,1
554 182 m 0,11,-1
 686 182 l 0,12,13
 844 182 844 182 933 132 c 128,-1,14
 1022 82 1022 82 1022 -62 c 0,15,16
 1022 -218 1022 -218 848 -343 c 128,-1,17
 674 -468 674 -468 464 -468 c 0,18,19
 276 -468 276 -468 151 -400 c 128,-1,20
 26 -332 26 -332 26 -188 c 0,21,22
 26 -170 26 -170 32 -152 c 128,-1,23
 38 -134 38 -134 53 -116 c 128,-1,24
 68 -98 68 -98 80 -85 c 128,-1,25
 92 -72 92 -72 116 -53 c 128,-1,26
 140 -34 140 -34 152 -26 c 0,27,-1
 188 0 l 0,28,-1
 220 22 l 0,29,-1
 220 32 l 0,30,31
 104 72 104 72 104 186 c 0,32,33
 104 230 104 230 168 293 c 128,-1,34
 232 356 232 356 306 396 c 0,35,-1
 306 406 l 0,36,37
 248 422 248 422 178 513 c 128,-1,38
 108 604 108 604 108 714 c 0,39,40
 108 862 108 862 232 974 c 128,-1,41
 356 1086 356 1086 512 1086 c 0,42,43
 660 1086 660 1086 768 1010 c 0,44,-1
 1028 1028 l 0,45,-1
 1052 1000 l 0,46,-1
 1006 866 l 0,47,-1
 986 866 l 0,48,-1
 836 914 l 0,49,-1
 836 894 l 0,50,51
 880 800 880 800 880 726 c 0,52,53
 880 578 880 578 748 472 c 128,-1,54
 616 366 616 366 468 366 c 0,55,56
 402 366 402 366 360 378 c 0,57,58
 298 312 298 312 298 270 c 0,59,60
 298 246 298 246 303 234 c 128,-1,61
 308 222 308 222 330 208 c 128,-1,62
 352 194 352 194 407 188 c 128,-1,63
 462 182 462 182 554 182 c 0,11,-1
302 4 m 0,64,65
 296 2 296 2 285 -5 c 128,-1,66
 274 -12 274 -12 257 -46 c 128,-1,67
 240 -80 240 -80 240 -130 c 0,68,69
 240 -338 240 -338 530 -338 c 0,70,71
 660 -338 660 -338 738 -286 c 128,-1,72
 816 -234 816 -234 816 -122 c 0,73,74
 816 -44 816 -44 750 -20 c 128,-1,75
 684 4 684 4 512 4 c 0,76,-1
 302 4 l 0,64,65
EndSplineSet
EndChar

StartChar: h
Encoding: 360 104 104
Width: 1292
Flags: HMW
LayerCount: 2
Fore
SplineSet
1084 726 m 0,0,-1
 1084 138 l 0,1,-1
 1260 96 l 0,2,-1
 1246 0 l 0,3,-1
 702 0 l 0,4,-1
 716 90 l 0,5,-1
 880 138 l 0,6,-1
 884 694 l 0,7,-1
 884 702 l 0,8,9
 884 820 884 820 822 873 c 128,-1,10
 760 926 760 926 674 926 c 0,11,12
 546 926 546 926 440 818 c 0,13,-1
 440 140 l 0,14,-1
 618 98 l 0,15,-1
 604 0 l 0,16,-1
 40 0 l 0,17,-1
 54 96 l 0,18,-1
 240 140 l 0,19,-1
 240 1342 l 0,20,-1
 46 1406 l 0,21,-1
 60 1498 l 0,22,-1
 410 1526 l 0,23,-1
 440 1496 l 0,24,-1
 440 1030 l 0,25,-1
 420 902 l 0,26,-1
 434 902 l 0,27,28
 604 1092 604 1092 790 1092 c 0,29,30
 930 1092 930 1092 1007 1012 c 128,-1,31
 1084 932 1084 932 1084 726 c 0,0,-1
EndSplineSet
EndChar

StartChar: i
Encoding: 361 105 105
Width: 694
Flags: HMW
LayerCount: 2
Fore
SplineSet
74 96 m 0,0,-1
 258 140 l 0,1,-1
 258 886 l 0,2,-1
 74 952 l 0,3,-1
 90 1044 l 0,4,-1
 430 1072 l 0,5,-1
 460 1042 l 0,6,-1
 460 140 l 0,7,-1
 654 98 l 0,8,-1
 640 0 l 0,9,-1
 60 0 l 0,10,-1
 74 96 l 0,0,-1
356 1580 m 0,11,12
 416 1580 416 1580 460 1540 c 128,-1,13
 504 1500 504 1500 504 1442 c 0,14,15
 504 1380 504 1380 460 1337 c 128,-1,16
 416 1294 416 1294 356 1294 c 128,-1,17
 296 1294 296 1294 254 1338 c 128,-1,18
 212 1382 212 1382 212 1444 c 0,19,20
 212 1502 212 1502 255 1541 c 128,-1,21
 298 1580 298 1580 356 1580 c 0,11,12
EndSplineSet
EndChar

StartChar: j
Encoding: 362 106 106
Width: 694
Flags: HMW
LayerCount: 2
Fore
SplineSet
218 208 m 0,0,-1
 218 886 l 0,1,-1
 36 952 l 0,2,-1
 54 1048 l 0,3,-1
 392 1074 l 0,4,-1
 422 1044 l 0,5,-1
 422 182 l 0,6,7
 422 -236 422 -236 64 -434 c 0,8,-1
 10 -464 l 0,9,-1
 -50 -358 l 0,10,11
 72 -266 72 -266 145 -140 c 128,-1,12
 218 -14 218 -14 218 208 c 0,0,-1
456 1438 m 0,13,14
 456 1376 456 1376 414 1332 c 128,-1,15
 372 1288 372 1288 312 1288 c 0,16,17
 250 1288 250 1288 207 1333 c 128,-1,18
 164 1378 164 1378 164 1440 c 0,19,20
 164 1500 164 1500 208 1542 c 128,-1,21
 252 1584 252 1584 314 1584 c 0,22,23
 374 1584 374 1584 415 1541 c 128,-1,24
 456 1498 456 1498 456 1438 c 0,13,14
EndSplineSet
EndChar

StartChar: k
Encoding: 363 107 107
Width: 1214
Flags: HMW
LayerCount: 2
Fore
SplineSet
488 548 m 0,0,-1
 802 940 l 0,1,-1
 640 990 l 0,2,-1
 654 1082 l 0,3,-1
 1168 1082 l 0,4,-1
 1152 992 l 0,5,-1
 970 942 l 0,6,-1
 684 590 l 0,7,-1
 780 468 l 0,8,-1
 860 364 l 0,9,-1
 928 276 l 0,10,-1
 984 208 l 0,11,-1
 1044 152 l 0,12,-1
 1104 120 l 0,13,-1
 1174 100 l 0,14,-1
 1222 94 l 0,15,-1
 1208 0 l 0,16,17
 1136 -24 1136 -24 1064 -24 c 0,18,19
 950 -24 950 -24 864 53 c 128,-1,20
 778 130 778 130 616 348 c 0,21,-1
 488 524 l 0,22,-1
 488 548 l 0,0,-1
72 96 m 0,23,-1
 256 140 l 0,24,-1
 256 1342 l 0,25,-1
 66 1406 l 0,26,-1
 80 1498 l 0,27,-1
 428 1526 l 0,28,-1
 458 1496 l 0,29,-1
 458 1426 l 0,30,-1
 458 140 l 0,31,-1
 652 98 l 0,32,-1
 638 0 l 0,33,-1
 58 0 l 0,34,-1
 72 96 l 0,23,-1
EndSplineSet
EndChar

StartChar: l
Encoding: 364 108 108
Width: 674
Flags: HMW
LayerCount: 2
Fore
SplineSet
54 96 m 0,0,-1
 238 140 l 0,1,-1
 238 1342 l 0,2,-1
 48 1406 l 0,3,-1
 62 1498 l 0,4,-1
 410 1526 l 0,5,-1
 440 1496 l 0,6,-1
 440 1426 l 0,7,-1
 440 140 l 0,8,-1
 634 98 l 0,9,-1
 620 0 l 0,10,-1
 40 0 l 0,11,-1
 54 96 l 0,0,-1
EndSplineSet
EndChar

StartChar: m
Encoding: 365 109 109
Width: 1938
Flags: HMW
LayerCount: 2
Fore
SplineSet
1078 886 m 0,0,-1
 1092 886 l 0,1,2
 1156 968 1156 968 1250 1022 c 128,-1,3
 1344 1076 1344 1076 1450 1076 c 0,4,5
 1736 1076 1736 1076 1736 738 c 0,6,-1
 1736 140 l 0,7,-1
 1904 98 l 0,8,-1
 1888 2 l 0,9,-1
 1372 2 l 0,10,-1
 1382 90 l 0,11,-1
 1532 138 l 0,12,-1
 1532 708 l 0,13,14
 1532 798 1532 798 1478 859 c 128,-1,15
 1424 920 1424 920 1330 920 c 0,16,17
 1210 920 1210 920 1098 800 c 0,18,-1
 1098 138 l 0,19,-1
 1278 96 l 0,20,-1
 1266 0 l 0,21,-1
 728 0 l 0,22,-1
 742 90 l 0,23,-1
 900 138 l 0,24,-1
 900 708 l 0,25,26
 900 802 900 802 841 861 c 128,-1,27
 782 920 782 920 694 920 c 0,28,29
 546 920 546 920 454 816 c 0,30,-1
 454 138 l 0,31,-1
 628 96 l 0,32,-1
 616 0 l 0,33,-1
 56 0 l 0,34,-1
 68 90 l 0,35,-1
 250 138 l 0,36,-1
 250 872 l 0,37,-1
 56 932 l 0,38,-1
 68 1024 l 0,39,-1
 436 1074 l 0,40,-1
 458 1050 l 0,41,-1
 436 896 l 0,42,-1
 448 896 l 0,43,44
 514 976 514 976 610 1031 c 128,-1,45
 706 1086 706 1086 812 1086 c 0,46,47
 904 1086 904 1086 978 1038 c 128,-1,48
 1052 990 1052 990 1078 886 c 0,0,-1
EndSplineSet
EndChar

StartChar: n
Encoding: 366 110 110
Width: 1316
Flags: HMW
LayerCount: 2
Fore
SplineSet
1106 746 m 0,0,-1
 1106 138 l 0,1,-1
 1280 96 l 0,2,-1
 1268 0 l 0,3,-1
 722 0 l 0,4,-1
 736 88 l 0,5,-1
 902 138 l 0,6,-1
 902 698 l 0,7,8
 902 810 902 810 845 866 c 128,-1,9
 788 922 788 922 692 922 c 0,10,11
 548 922 548 922 454 818 c 0,12,-1
 454 138 l 0,13,-1
 634 96 l 0,14,-1
 618 0 l 0,15,-1
 56 0 l 0,16,-1
 68 88 l 0,17,-1
 250 138 l 0,18,-1
 250 874 l 0,19,-1
 64 936 l 0,20,-1
 76 1028 l 0,21,-1
 436 1076 l 0,22,-1
 458 1052 l 0,23,-1
 436 898 l 0,24,-1
 448 898 l 0,25,26
 516 980 516 980 612 1034 c 128,-1,27
 708 1088 708 1088 814 1088 c 0,28,29
 956 1088 956 1088 1031 999 c 128,-1,30
 1106 910 1106 910 1106 746 c 0,0,-1
EndSplineSet
EndChar

StartChar: o
Encoding: 367 111 111
Width: 1160
Flags: HMW
LayerCount: 2
Fore
SplineSet
292 602 m 0,0,1
 292 468 292 468 322 356 c 128,-1,2
 352 244 352 244 428 165 c 128,-1,3
 504 86 504 86 616 86 c 0,4,5
 736 86 736 86 801 190 c 128,-1,6
 866 294 866 294 866 434 c 0,7,8
 866 530 866 530 849 620 c 128,-1,9
 832 710 832 710 796 790 c 128,-1,10
 760 870 760 870 697 918 c 128,-1,11
 634 966 634 966 552 966 c 0,12,13
 424 966 424 966 358 861 c 128,-1,14
 292 756 292 756 292 602 c 0,0,1
1082 534 m 0,15,16
 1082 284 1082 284 936 126 c 128,-1,17
 790 -32 790 -32 574 -32 c 0,18,19
 340 -32 340 -32 208 121 c 128,-1,20
 76 274 76 274 76 516 c 0,21,22
 76 780 76 780 233 937 c 128,-1,23
 390 1094 390 1094 604 1094 c 0,24,25
 826 1094 826 1094 954 941 c 128,-1,26
 1082 788 1082 788 1082 534 c 0,15,16
EndSplineSet
EndChar

StartChar: p
Encoding: 368 112 112
Width: 1218
Flags: HMW
LayerCount: 2
Fore
SplineSet
480 126 m 0,0,1
 544 112 544 112 592 112 c 0,2,3
 886 112 886 112 886 494 c 0,4,5
 886 924 886 924 656 924 c 0,6,7
 522 924 522 924 416 814 c 0,8,-1
 416 -304 l 0,9,-1
 604 -346 l 0,10,-1
 590 -444 l 0,11,-1
 24 -444 l 0,12,-1
 34 -348 l 0,13,-1
 218 -304 l 0,14,-1
 216 884 l 0,15,-1
 28 938 l 0,16,-1
 44 1032 l 0,17,-1
 398 1076 l 0,18,-1
 422 1054 l 0,19,-1
 404 898 l 0,20,-1
 416 898 l 0,21,22
 466 954 466 954 499 985 c 128,-1,23
 532 1016 532 1016 600 1049 c 128,-1,24
 668 1082 668 1082 742 1082 c 0,25,26
 902 1082 902 1082 1008 945 c 128,-1,27
 1114 808 1114 808 1114 568 c 0,28,29
 1114 316 1114 316 970 150 c 128,-1,30
 826 -16 826 -16 612 -16 c 0,31,32
 542 -16 542 -16 490 2 c 0,33,-1
 480 126 l 0,0,1
EndSplineSet
EndChar

StartChar: q
Encoding: 369 113 113
Width: 1226
Flags: HMW
LayerCount: 2
Fore
SplineSet
1024 972 m 0,0,-1
 1024 -304 l 0,1,-1
 1218 -346 l 0,2,-1
 1204 -444 l 0,3,-1
 628 -444 l 0,4,-1
 640 -348 l 0,5,-1
 822 -304 l 0,6,-1
 822 850 l 0,7,8
 716 978 716 978 560 978 c 0,9,10
 446 978 446 978 382 872 c 128,-1,11
 318 766 318 766 318 582 c 0,12,13
 318 370 318 370 389 250 c 128,-1,14
 460 130 460 130 576 130 c 0,15,16
 674 130 674 130 740 170 c 0,17,-1
 774 98 l 0,18,19
 638 -26 638 -26 498 -26 c 0,20,21
 328 -26 328 -26 215 112 c 128,-1,22
 102 250 102 250 102 508 c 0,23,24
 102 748 102 748 265 922 c 128,-1,25
 428 1096 428 1096 626 1096 c 0,26,27
 736 1096 736 1096 830 1068 c 128,-1,28
 924 1040 924 1040 949 1024 c 128,-1,29
 974 1008 974 1008 1024 972 c 0,0,-1
EndSplineSet
EndChar

StartChar: r
Encoding: 370 114 114
Width: 870
Flags: HMW
LayerCount: 2
Fore
SplineSet
772 816 m 0,0,1
 702 876 702 876 638 876 c 0,2,3
 582 876 582 876 522 806 c 128,-1,4
 462 736 462 736 444 612 c 0,5,-1
 444 146 l 0,6,-1
 724 106 l 0,7,-1
 712 0 l 0,8,-1
 44 0 l 0,9,-1
 58 90 l 0,10,-1
 242 138 l 0,11,-1
 242 882 l 0,12,-1
 46 940 l 0,13,-1
 62 1032 l 0,14,-1
 408 1078 l 0,15,-1
 432 1050 l 0,16,-1
 412 770 l 0,17,-1
 436 770 l 0,18,19
 482 928 482 928 560 1013 c 128,-1,20
 638 1098 638 1098 720 1098 c 0,21,22
 786 1098 786 1098 826 1057 c 128,-1,23
 866 1016 866 1016 866 960 c 0,24,25
 866 880 866 880 772 816 c 0,0,1
EndSplineSet
EndChar

StartChar: s
Encoding: 371 115 115
Width: 844
Flags: HMW
LayerCount: 2
Fore
SplineSet
608 228 m 0,0,1
 608 274 608 274 554 316 c 128,-1,2
 500 358 500 358 424 397 c 128,-1,3
 348 436 348 436 272 482 c 128,-1,4
 196 528 196 528 142 602 c 128,-1,5
 88 676 88 676 88 770 c 0,6,7
 88 890 88 890 185 991 c 128,-1,8
 282 1092 282 1092 450 1092 c 0,9,10
 584 1092 584 1092 660 1033 c 128,-1,11
 736 974 736 974 736 898 c 0,12,13
 736 850 736 850 694 809 c 128,-1,14
 652 768 652 768 588 762 c 0,15,16
 564 856 564 856 514 922 c 128,-1,17
 464 988 464 988 392 988 c 0,18,19
 330 988 330 988 291 946 c 128,-1,20
 252 904 252 904 252 844 c 0,21,22
 252 788 252 788 307 739 c 128,-1,23
 362 690 362 690 440 650 c 128,-1,24
 518 610 518 610 596 564 c 128,-1,25
 674 518 674 518 729 445 c 128,-1,26
 784 372 784 372 784 280 c 0,27,28
 784 148 784 148 669 53 c 128,-1,29
 554 -42 554 -42 410 -42 c 0,30,31
 254 -42 254 -42 157 21 c 128,-1,32
 60 84 60 84 60 170 c 0,33,34
 60 228 60 228 110 267 c 128,-1,35
 160 306 160 306 220 310 c 0,36,37
 248 198 248 198 311 138 c 128,-1,38
 374 78 374 78 448 78 c 0,39,40
 516 78 516 78 562 117 c 128,-1,41
 608 156 608 156 608 228 c 0,0,1
EndSplineSet
EndChar

StartChar: t
Encoding: 372 116 116
Width: 774
Flags: HMW
LayerCount: 2
Fore
SplineSet
332 1318 m 0,0,-1
 396 1318 l 0,1,-1
 396 1052 l 0,2,-1
 738 1052 l 0,3,-1
 728 946 l 0,4,-1
 394 946 l 0,5,-1
 390 394 l 0,6,-1
 390 386 l 0,7,8
 390 252 390 252 432 198 c 128,-1,9
 474 144 474 144 568 144 c 0,10,11
 608 144 608 144 653 162 c 128,-1,12
 698 180 698 180 724 198 c 0,13,-1
 748 216 l 0,14,-1
 774 150 l 0,15,16
 696 62 696 62 624 17 c 128,-1,17
 552 -28 552 -28 440 -28 c 0,18,19
 318 -28 318 -28 250 48 c 128,-1,20
 182 124 182 124 182 314 c 0,21,-1
 182 352 l 0,22,-1
 186 948 l 0,23,-1
 32 948 l 0,24,-1
 32 1014 l 0,25,26
 184 1134 184 1134 332 1318 c 0,0,-1
EndSplineSet
EndChar

StartChar: u
Encoding: 373 117 117
Width: 1248
Flags: HMW
LayerCount: 2
Fore
SplineSet
826 158 m 0,0,-1
 812 158 l 0,1,2
 686 -28 686 -28 464 -28 c 0,3,4
 194 -28 194 -28 194 324 c 0,5,-1
 194 882 l 0,6,-1
 28 948 l 0,7,-1
 44 1044 l 0,8,-1
 370 1070 l 0,9,-1
 398 1040 l 0,10,-1
 398 384 l 0,11,12
 398 138 398 138 586 138 c 0,13,14
 722 138 722 138 812 232 c 0,15,-1
 812 876 l 0,16,-1
 618 926 l 0,17,-1
 630 1036 l 0,18,-1
 986 1070 l 0,19,-1
 1012 1040 l 0,20,-1
 1012 260 l 0,21,22
 1012 214 1012 214 1019 186 c 128,-1,23
 1026 158 1026 158 1050 142 c 128,-1,24
 1074 126 1074 126 1088 122 c 128,-1,25
 1102 118 1102 118 1144 108 c 0,26,-1
 1198 96 l 0,27,-1
 1188 -6 l 0,28,29
 1096 -28 1096 -28 1004 -28 c 0,30,31
 916 -28 916 -28 871 21 c 128,-1,32
 826 70 826 70 826 148 c 0,33,-1
 826 158 l 0,0,-1
EndSplineSet
EndChar

StartChar: v
Encoding: 374 118 118
Width: 1122
Flags: HMW
LayerCount: 2
Fore
SplineSet
484 -34 m 0,0,-1
 146 916 l 0,1,-1
 0 966 l 0,2,-1
 12 1058 l 0,3,-1
 554 1058 l 0,4,-1
 544 968 l 0,5,-1
 368 918 l 0,6,-1
 596 234 l 0,7,-1
 828 916 l 0,8,-1
 634 966 l 0,9,-1
 650 1058 l 0,10,-1
 1114 1058 l 0,11,-1
 1100 968 l 0,12,-1
 968 918 l 0,13,-1
 638 -12 l 0,14,-1
 484 -34 l 0,0,-1
EndSplineSet
EndChar

StartChar: w
Encoding: 375 119 119
Width: 1606
Flags: HMW
LayerCount: 2
Fore
SplineSet
402 -34 m 1,0,-1
 140 918 l 1,1,-1
 0 970 l 1,2,-1
 12 1060 l 1,3,-1
 516 1060 l 1,4,-1
 504 970 l 1,5,-1
 340 920 l 1,6,-1
 462 436 l 1,7,-1
 490 292 l 1,8,-1
 738 982 l 1,9,10
 798 1010 798 1010 848 1010 c 0,11,12
 886 1010 886 1010 906 1004 c 1,13,-1
 1088 418 l 1,14,-1
 1114 284 l 1,15,-1
 1312 918 l 1,16,-1
 1130 968 l 1,17,-1
 1142 1060 l 1,18,-1
 1606 1060 l 1,19,-1
 1592 970 l 1,20,-1
 1462 920 l 1,21,-1
 1170 -12 l 1,22,-1
 1026 -34 l 1,23,-1
 800 710 l 1,24,-1
 546 -12 l 1,25,-1
 402 -34 l 1,0,-1
EndSplineSet
EndChar

StartChar: x
Encoding: 376 120 120
Width: 1108
Flags: HMW
LayerCount: 2
Fore
SplineSet
970 138 m 0,0,-1
 1108 90 l 0,1,-1
 1098 0 l 0,2,-1
 558 0 l 0,3,-1
 574 88 l 0,4,-1
 728 138 l 0,5,-1
 528 424 l 0,6,-1
 310 138 l 0,7,-1
 482 90 l 0,8,-1
 470 0 l 0,9,-1
 0 0 l 0,10,-1
 12 88 l 0,11,-1
 142 138 l 0,12,-1
 438 528 l 0,13,-1
 160 926 l 0,14,-1
 18 976 l 0,15,-1
 30 1068 l 0,16,-1
 556 1068 l 0,17,-1
 540 978 l 0,18,-1
 400 928 l 0,19,-1
 590 664 l 0,20,-1
 792 926 l 0,21,-1
 626 976 l 0,22,-1
 642 1068 l 0,23,-1
 1098 1068 l 0,24,-1
 1082 978 l 0,25,-1
 954 928 l 0,26,-1
 676 566 l 0,27,-1
 970 138 l 0,0,-1
EndSplineSet
EndChar

StartChar: y
Encoding: 377 121 121
Width: 1084
Flags: HMW
LayerCount: 2
Fore
SplineSet
144 -216 m 0,0,1
 204 -236 204 -236 256 -236 c 0,2,3
 336 -236 336 -236 377 -171 c 128,-1,4
 418 -106 418 -106 480 94 c 0,5,-1
 146 918 l 0,6,-1
 0 964 l 0,7,-1
 14 1058 l 0,8,-1
 534 1058 l 0,9,-1
 524 968 l 0,10,-1
 366 922 l 0,11,-1
 582 348 l 0,12,-1
 784 916 l 0,13,-1
 626 966 l 0,14,-1
 642 1058 l 0,15,-1
 1084 1058 l 0,16,-1
 1074 968 l 0,17,-1
 940 918 l 0,18,-1
 538 -140 l 0,19,20
 466 -328 466 -328 406 -393 c 128,-1,21
 346 -458 346 -458 244 -458 c 0,22,23
 182 -458 182 -458 142 -419 c 128,-1,24
 102 -380 102 -380 102 -328 c 0,25,26
 102 -260 102 -260 144 -216 c 0,0,1
EndSplineSet
EndChar

StartChar: z
Encoding: 378 122 122
Width: 1092
Flags: HMW
LayerCount: 2
Fore
SplineSet
142 1058 m 0,0,-1
 956 1058 l 0,1,-1
 956 968 l 0,2,-1
 348 120 l 0,3,-1
 784 120 l 0,4,-1
 898 334 l 0,5,-1
 980 324 l 0,6,-1
 930 0 l 0,7,-1
 118 0 l 0,8,-1
 112 106 l 0,9,-1
 706 944 l 0,10,-1
 298 944 l 0,11,-1
 226 720 l 0,12,-1
 132 736 l 0,13,-1
 142 1058 l 0,0,-1
EndSplineSet
EndChar

StartChar: braceleft
Encoding: 379 123 123
Width: 690
Flags: HMW
LayerCount: 2
Fore
SplineSet
548 -454 m 0,0,-1
 266 -454 l 0,1,-1
 238 -428 l 0,2,3
 204 42 204 42 200 500 c 0,4,-1
 26 500 l 0,5,-1
 40 640 l 0,6,-1
 200 640 l 0,7,8
 200 854 200 854 210 1068 c 128,-1,9
 220 1282 220 1282 230 1388 c 0,10,-1
 240 1494 l 0,11,-1
 274 1520 l 0,12,-1
 558 1520 l 0,13,-1
 548 1396 l 0,14,-1
 398 1392 l 0,15,16
 360 1016 360 1016 360 592 c 0,17,18
 360 404 360 404 370 177 c 128,-1,19
 380 -50 380 -50 388 -182 c 0,20,-1
 398 -314 l 0,21,-1
 562 -318 l 0,22,-1
 548 -454 l 0,0,-1
EndSplineSet
EndChar

StartChar: bar
Encoding: 380 124 124
Width: 690
Flags: HMW
LayerCount: 2
Fore
SplineSet
422 -440 m 0,0,-1
 282 -424 l 0,1,-1
 282 1520 l 0,2,-1
 422 1506 l 0,3,-1
 422 -440 l 0,0,-1
EndSplineSet
EndChar

StartChar: braceright
Encoding: 381 125 125
Width: 690
Flags: HMW
LayerCount: 2
Fore
SplineSet
142 1520 m 0,0,-1
 424 1520 l 0,1,-1
 452 1494 l 0,2,3
 486 1024 486 1024 490 566 c 0,4,-1
 664 566 l 0,5,-1
 650 426 l 0,6,-1
 490 426 l 0,7,8
 490 212 490 212 480 -2 c 128,-1,9
 470 -216 470 -216 460 -322 c 0,10,-1
 450 -428 l 0,11,-1
 416 -454 l 0,12,-1
 132 -454 l 0,13,-1
 142 -330 l 0,14,-1
 292 -326 l 0,15,16
 330 50 330 50 330 474 c 0,17,18
 330 662 330 662 321 889 c 128,-1,19
 312 1116 312 1116 302 1248 c 0,20,-1
 292 1380 l 0,21,-1
 128 1384 l 0,22,-1
 142 1520 l 0,0,-1
EndSplineSet
EndChar

StartChar: asciitilde
Encoding: 382 126 126
Width: 990
Flags: HMW
LayerCount: 2
Fore
SplineSet
60 500 m 1,0,1
 212 738 212 738 392 740 c 0,2,3
 454 740 454 740 553 680 c 128,-1,4
 652 620 652 620 688 620 c 0,5,6
 794 620 794 620 874 726 c 1,7,-1
 950 700 l 1,8,9
 922 590 922 590 836 520 c 0,10,11
 750 452 750 452 628 452 c 0,12,13
 576 452 576 452 484 513 c 128,-1,14
 392 574 392 574 346 574 c 0,15,16
 234 574 234 574 142 460 c 1,17,-1
 60 500 l 1,0,1
EndSplineSet
EndChar

StartChar: exclamdown
Encoding: 417 161 161
Width: 588
Flags: HMW
LayerCount: 2
Fore
SplineSet
242 646 m 0,0,-1
 242 654 l 0,1,-1
 350 630 l 0,2,-1
 350 626 l 0,3,4
 414 -206 414 -206 414 -454 c 0,5,-1
 414 -458 l 0,6,7
 408 -480 408 -480 353 -493 c 128,-1,8
 298 -506 298 -506 254 -506 c 0,9,10
 176 -506 176 -506 176 -458 c 0,11,12
 176 -158 176 -158 242 646 c 0,0,-1
144 950 m 0,13,14
 144 1014 144 1014 188 1059 c 128,-1,15
 232 1104 232 1104 296 1104 c 0,16,17
 358 1104 358 1104 402 1058 c 128,-1,18
 446 1012 446 1012 446 948 c 0,19,20
 446 888 446 888 402 847 c 128,-1,21
 358 806 358 806 296 806 c 128,-1,22
 234 806 234 806 189 848 c 128,-1,23
 144 890 144 890 144 950 c 0,13,14
EndSplineSet
EndChar

StartChar: cent
Encoding: 418 162 162
Width: 972
Flags: HMW
LayerCount: 2
Fore
SplineSet
678 1084 m 0,0,1
 790 1072 790 1072 848 1022 c 128,-1,2
 906 972 906 972 906 902 c 0,3,4
 906 788 906 788 754 776 c 0,5,6
 728 894 728 894 656 944 c 0,7,-1
 550 126 l 0,8,9
 604 104 604 104 668 104 c 0,10,11
 792 104 792 104 918 190 c 0,12,13
 930 168 930 168 946 120 c 0,14,15
 796 -36 796 -36 558 -36 c 0,16,17
 532 -36 532 -36 520 -34 c 0,18,-1
 506 -138 l 0,19,-1
 362 -162 l 0,20,-1
 384 2 l 0,21,22
 254 62 254 62 178 198 c 128,-1,23
 102 334 102 334 102 504 c 0,24,25
 102 738 102 738 228 894 c 128,-1,26
 354 1050 354 1050 536 1082 c 0,27,-1
 556 1228 l 0,28,-1
 700 1254 l 0,29,-1
 678 1084 l 0,0,1
422 228 m 0,30,-1
 518 966 l 0,31,32
 432 944 432 944 384 838 c 128,-1,33
 336 732 336 732 336 574 c 0,34,35
 336 354 336 354 422 228 c 0,30,-1
EndSplineSet
EndChar

StartChar: sterling
Encoding: 419 163 163
Width: 1290
Flags: HMW
LayerCount: 2
Fore
SplineSet
1092 1466 m 0,0,-1
 1054 1084 l 0,1,-1
 950 1100 l 0,2,-1
 900 1358 l 0,3,4
 848 1386 848 1386 798 1386 c 0,5,6
 650 1386 650 1386 602 1276 c 128,-1,7
 554 1166 554 1166 548 852 c 0,8,-1
 548 794 l 0,9,-1
 814 810 l 0,10,-1
 800 688 l 0,11,-1
 546 672 l 0,12,-1
 544 624 l 0,13,14
 536 254 536 254 470 120 c 0,15,-1
 1028 116 l 0,16,-1
 1186 422 l 0,17,-1
 1290 400 l 0,18,-1
 1244 0 l 0,19,-1
 46 0 l 0,20,-1
 56 90 l 0,21,-1
 258 146 l 0,22,23
 300 280 300 280 306 558 c 0,24,-1
 308 664 l 0,25,-1
 92 652 l 0,26,-1
 106 774 l 0,27,-1
 312 786 l 0,28,-1
 316 952 l 0,29,30
 324 1232 324 1232 459 1373 c 128,-1,31
 594 1514 594 1514 810 1514 c 0,32,33
 976 1514 976 1514 1092 1466 c 0,0,-1
EndSplineSet
EndChar

StartChar: currency
Encoding: 420 164 164
Width: 1142
Flags: HMW
LayerCount: 2
Fore
SplineSet
570 812 m 0,0,1
 486 812 486 812 435 750 c 128,-1,2
 384 688 384 688 384 598 c 0,3,4
 384 500 384 500 435 440 c 128,-1,5
 486 380 486 380 572 380 c 0,6,7
 662 380 662 380 714 438 c 128,-1,8
 766 496 766 496 766 590 c 128,-1,9
 766 684 766 684 717 748 c 128,-1,10
 668 812 668 812 570 812 c 0,0,1
312 398 m 1,11,12
 254 484 254 484 254 592 c 0,13,14
 254 680 254 680 304 760 c 1,15,-1
 128 918 l 1,16,-1
 230 1000 l 1,17,-1
 390 858 l 1,18,19
 478 930 478 930 576 930 c 0,20,21
 688 930 688 930 766 870 c 1,22,-1
 940 1014 l 1,23,-1
 1018 908 l 1,24,-1
 850 770 l 1,25,26
 894 694 894 694 894 594 c 0,27,28
 894 498 894 498 838 414 c 1,29,-1
 1026 248 l 1,30,-1
 922 164 l 1,31,-1
 750 320 l 1,32,33
 662 262 662 262 566 262 c 0,34,35
 480 262 480 262 404 308 c 1,36,-1
 234 154 l 1,37,-1
 142 250 l 1,38,-1
 312 398 l 1,11,12
EndSplineSet
EndChar

StartChar: yen
Encoding: 421 165 165
Width: 1466
Flags: HMW
LayerCount: 2
Fore
SplineSet
632 572 m 0,0,-1
 260 572 l 0,1,-1
 274 700 l 0,2,-1
 594 700 l 0,3,-1
 302 1364 l 0,4,-1
 136 1414 l 0,5,-1
 152 1506 l 0,6,-1
 718 1506 l 0,7,-1
 704 1414 l 0,8,-1
 544 1368 l 0,9,-1
 798 776 l 0,10,-1
 1062 1364 l 0,11,-1
 872 1414 l 0,12,-1
 884 1506 l 0,13,-1
 1364 1506 l 0,14,-1
 1352 1414 l 0,15,-1
 1202 1368 l 0,16,-1
 894 700 l 0,17,-1
 1262 700 l 0,18,-1
 1248 572 l 0,19,-1
 866 572 l 0,20,-1
 866 418 l 0,21,-1
 1258 418 l 0,22,-1
 1244 290 l 0,23,-1
 866 290 l 0,24,-1
 866 138 l 0,25,-1
 1064 98 l 0,26,-1
 1052 0 l 0,27,-1
 438 0 l 0,28,-1
 450 90 l 0,29,-1
 632 146 l 0,30,-1
 632 290 l 0,31,-1
 256 290 l 0,32,-1
 270 418 l 0,33,-1
 632 418 l 0,34,-1
 632 572 l 0,0,-1
EndSplineSet
EndChar

StartChar: brokenbar
Encoding: 422 166 166
Width: 690
Flags: HMW
LayerCount: 2
Fore
SplineSet
282 -424 m 0,0,-1
 282 522 l 0,1,-1
 416 508 l 0,2,-1
 416 -440 l 0,3,-1
 282 -424 l 0,0,-1
282 654 m 0,4,-1
 282 1520 l 0,5,-1
 416 1506 l 0,6,-1
 410 640 l 0,7,-1
 282 654 l 0,4,-1
EndSplineSet
EndChar

StartChar: section
Encoding: 423 167 167
Width: 890
Flags: HMW
LayerCount: 2
Fore
SplineSet
110 918 m 1,0,-1
 552 650 l 2,1,2
 694 564 694 564 760 496 c 0,3,4
 836 418 836 418 836 308 c 0,5,6
 836 146 836 146 703 63 c 128,-1,7
 570 -20 570 -20 394 -20 c 0,8,9
 186 -20 186 -20 62 124 c 1,10,-1
 76 386 l 1,11,-1
 166 374 l 1,12,-1
 212 186 l 1,13,14
 292 76 292 76 408 76 c 0,15,16
 502 76 502 76 578 126 c 128,-1,17
 654 176 654 176 654 286 c 0,18,19
 654 334 654 334 613 379 c 128,-1,20
 572 424 572 424 510 457 c 128,-1,21
 448 490 448 490 376 535 c 128,-1,22
 304 580 304 580 242 627 c 128,-1,23
 180 674 180 674 139 726 c 128,-1,24
 98 778 98 778 98 864 c 0,25,26
 98 900 98 900 110 918 c 1,0,-1
820 610 m 1,27,-1
 440 834 l 1,28,29
 270 934 270 934 216 984 c 0,30,31
 100 1090 100 1090 100 1230 c 0,32,33
 100 1392 100 1392 208 1456 c 128,-1,34
 316 1520 316 1520 472 1520 c 0,35,36
 644 1520 644 1520 756 1418 c 1,37,-1
 740 1142 l 1,38,-1
 656 1158 l 1,39,-1
 610 1348 l 1,40,41
 602 1370 602 1370 551 1403 c 128,-1,42
 500 1436 500 1436 444 1436 c 0,43,44
 278 1436 278 1436 278 1260 c 0,45,46
 278 1184 278 1184 336 1121 c 128,-1,47
 394 1058 394 1058 476 1012 c 128,-1,48
 558 966 558 966 640 917 c 128,-1,49
 722 868 722 868 780 815 c 128,-1,50
 838 762 838 762 838 672 c 0,51,52
 820 610 l 1,27,-1
EndSplineSet
EndChar

StartChar: dieresis
Encoding: 424 168 168
Width: 996
Flags: HMW
LayerCount: 2
Fore
SplineSet
724 1476 m 128,-1,1
 778 1476 778 1476 817 1440 c 128,-1,2
 856 1404 856 1404 856 1352 c 0,3,4
 856 1296 856 1296 817 1257 c 128,-1,5
 778 1218 778 1218 724 1218 c 128,-1,6
 670 1218 670 1218 632 1258 c 128,-1,7
 594 1298 594 1298 594 1354 c 0,8,9
 594 1406 594 1406 632 1441 c 128,-1,0
 670 1476 670 1476 724 1476 c 128,-1,1
252 1476 m 128,-1,11
 306 1476 306 1476 345 1440 c 128,-1,12
 384 1404 384 1404 384 1352 c 0,13,14
 384 1296 384 1296 345 1257 c 128,-1,15
 306 1218 306 1218 252 1218 c 128,-1,16
 198 1218 198 1218 160 1258 c 128,-1,17
 122 1298 122 1298 122 1354 c 0,18,19
 122 1406 122 1406 160 1441 c 128,-1,10
 198 1476 198 1476 252 1476 c 128,-1,11
EndSplineSet
EndChar

StartChar: copyright
Encoding: 425 169 169
Width: 1674
Flags: HMW
LayerCount: 2
Fore
SplineSet
830 1430 m 0,0,1
 574 1430 574 1430 400 1233 c 128,-1,2
 226 1036 226 1036 226 764 c 0,3,4
 226 472 226 472 395 283 c 128,-1,5
 564 94 564 94 828 94 c 0,6,7
 1084 94 1084 94 1266 279 c 128,-1,8
 1448 464 1448 464 1448 742 c 0,9,10
 1448 876 1448 876 1411 997 c 128,-1,11
 1374 1118 1374 1118 1301 1216 c 128,-1,12
 1228 1314 1228 1314 1106 1372 c 128,-1,13
 984 1430 984 1430 830 1430 c 0,0,1
1594 754 m 0,14,15
 1594 436 1594 436 1369 202 c 128,-1,16
 1144 -32 1144 -32 818 -32 c 128,-1,17
 492 -32 492 -32 286 192 c 128,-1,18
 80 416 80 416 80 750 c 0,19,20
 80 1092 80 1092 304 1322 c 128,-1,21
 528 1552 528 1552 830 1552 c 0,22,23
 1186 1552 1186 1552 1390 1321 c 128,-1,24
 1594 1090 1594 1090 1594 754 c 0,14,15
582 802 m 0,25,26
 582 612 582 612 675 515 c 128,-1,27
 768 418 768 418 902 418 c 0,28,29
 1000 418 1000 418 1152 502 c 0,30,-1
 1186 446 l 0,31,32
 1056 310 1056 310 842 310 c 0,33,34
 668 312 668 312 540 432 c 0,35,36
 408 556 408 556 408 752 c 0,37,38
 408 836 408 836 437 921 c 128,-1,39
 466 1006 466 1006 521 1077 c 128,-1,40
 576 1148 576 1148 667 1195 c 128,-1,41
 758 1242 758 1242 878 1242 c 0,42,43
 1044 1242 1044 1242 1140 1168 c 0,44,-1
 1122 932 l 0,45,-1
 1058 940 l 0,46,-1
 1030 1096 l 0,47,48
 982 1158 982 1158 836 1158 c 0,49,50
 728 1158 728 1158 655 1062 c 128,-1,51
 582 966 582 966 582 802 c 0,25,26
EndSplineSet
EndChar

StartChar: ordfeminine
Encoding: 426 170 170
Width: 718
Flags: HMW
LayerCount: 2
Fore
SplineSet
442 1124 m 1,0,1
 310 1092 310 1092 265 1056 c 128,-1,2
 220 1020 220 1020 220 958 c 0,3,4
 220 940 220 940 245 910 c 128,-1,5
 270 880 270 880 305 880 c 128,-1,6
 340 880 340 880 379 903 c 128,-1,7
 418 926 418 926 442 952 c 1,8,-1
 442 1124 l 1,0,1
584 768 m 0,9,10
 520 768 520 768 489 797 c 128,-1,11
 458 826 458 826 458 870 c 2,12,-1
 458 882 l 1,13,-1
 450 882 l 1,14,15
 430 842 430 842 365 803 c 128,-1,16
 300 764 300 764 228 764 c 0,17,18
 160 764 160 764 114 816 c 128,-1,19
 68 868 68 868 68 940 c 0,20,21
 68 1138 68 1138 442 1200 c 1,22,-1
 442 1232 l 2,23,24
 442 1414 442 1414 308 1414 c 0,25,26
 254 1414 254 1414 239 1380 c 128,-1,27
 224 1346 224 1346 214 1276 c 1,28,29
 102 1276 102 1276 102 1360 c 0,30,31
 102 1402 102 1402 147 1439 c 128,-1,32
 192 1476 192 1476 254 1495 c 128,-1,33
 316 1514 316 1514 374 1514 c 0,34,35
 492 1514 492 1514 539 1454 c 128,-1,36
 586 1394 586 1394 586 1264 c 2,37,-1
 586 970 l 2,38,39
 586 912 586 912 602 892 c 0,40,41
 620 868 620 868 666 860 c 2,42,-1
 706 854 l 1,43,-1
 696 784 l 1,44,45
 692 784 692 784 652 776 c 128,-1,46
 612 768 612 768 584 768 c 0,9,10
106 658 m 1,47,-1
 662 658 l 1,48,-1
 654 536 l 1,49,-1
 98 536 l 1,50,-1
 106 658 l 1,47,-1
EndSplineSet
EndChar

StartChar: guillemotleft
Encoding: 427 171 171
Width: 1184
Flags: HMW
LayerCount: 2
Fore
SplineSet
474 574 m 1,0,-1
 944 994 l 1,1,-1
 990 914 l 1,2,-1
 710 572 l 1,3,-1
 994 178 l 1,4,-1
 938 94 l 1,5,-1
 476 550 l 1,6,-1
 474 574 l 1,0,-1
106 574 m 1,7,-1
 578 994 l 1,8,-1
 622 914 l 1,9,-1
 342 572 l 1,10,-1
 626 178 l 1,11,-1
 570 94 l 1,12,-1
 108 550 l 1,13,-1
 106 574 l 1,7,-1
EndSplineSet
EndChar

StartChar: logicalnot
Encoding: 428 172 172
Width: 886
Flags: HMW
LayerCount: 2
Fore
SplineSet
70 804 m 0,0,-1
 812 804 l 0,1,-1
 814 464 l 0,2,-1
 686 442 l 0,3,-1
 686 676 l 0,4,-1
 56 676 l 0,5,-1
 70 804 l 0,0,-1
EndSplineSet
EndChar

StartChar: registered
Encoding: 430 174 174
Width: 894
Flags: HMW
LayerCount: 2
Fore
SplineSet
838 1148 m 0,0,1
 838 986 838 986 717 860 c 128,-1,2
 596 734 596 734 428 734 c 128,-1,3
 260 734 260 734 149 855 c 128,-1,4
 38 976 38 976 38 1146 c 0,5,6
 38 1320 38 1320 159 1444 c 128,-1,7
 280 1568 280 1568 434 1568 c 0,8,9
 618 1568 618 1568 728 1444 c 128,-1,10
 838 1320 838 1320 838 1148 c 0,0,1
434 1506 m 0,11,12
 302 1506 302 1506 207 1399 c 128,-1,13
 112 1292 112 1292 112 1154 c 0,14,15
 112 1004 112 1004 205 901 c 128,-1,16
 298 798 298 798 432 798 c 0,17,18
 564 798 564 798 663 898 c 128,-1,19
 762 998 762 998 762 1142 c 0,20,21
 762 1288 762 1288 676 1397 c 128,-1,22
 590 1506 590 1506 434 1506 c 0,11,12
426 1168 m 0,23,24
 460 1168 460 1168 486 1195 c 128,-1,25
 512 1222 512 1222 512 1260 c 0,26,27
 512 1306 512 1306 485 1333 c 128,-1,28
 458 1360 458 1360 410 1360 c 0,29,-1
 366 1358 l 0,30,-1
 366 1168 l 0,31,-1
 426 1168 l 0,23,24
586 1280 m 0,32,33
 586 1244 586 1244 559 1210 c 128,-1,34
 532 1176 532 1176 482 1158 c 0,35,-1
 548 1068 l 0,36,37
 584 1016 584 1016 603 997 c 128,-1,38
 622 978 622 978 654 968 c 0,39,-1
 666 966 l 0,40,-1
 660 940 l 0,41,42
 638 932 638 932 616 932 c 0,43,44
 546 932 546 932 488 1032 c 0,45,-1
 430 1136 l 0,46,-1
 366 1136 l 0,47,-1
 366 986 l 0,48,-1
 434 970 l 0,49,-1
 432 940 l 0,50,-1
 232 940 l 0,51,-1
 236 968 l 0,52,-1
 296 984 l 0,53,-1
 296 1340 l 0,54,-1
 234 1352 l 0,55,-1
 238 1380 l 0,56,57
 346 1396 346 1396 404 1396 c 0,58,59
 586 1396 586 1396 586 1280 c 0,32,33
EndSplineSet
EndChar

StartChar: macron
Encoding: 431 175 175
Width: 690
Flags: HMW
LayerCount: 2
Fore
SplineSet
110 1342 m 4,0,-1
 604 1364 l 4,1,-1
 590 1242 l 4,2,-1
 96 1220 l 4,3,-1
 110 1342 l 4,0,-1
EndSplineSet
EndChar

StartChar: degree
Encoding: 432 176 176
Width: 490
Flags: HMW
LayerCount: 2
Fore
SplineSet
234 1448 m 4,0,1
 184 1448 184 1448 157 1408 c 132,-1,2
 130 1368 130 1368 130 1312 c 4,3,4
 130 1250 130 1250 161 1203 c 132,-1,5
 192 1156 192 1156 246 1156 c 4,6,7
 350 1156 350 1156 350 1294 c 4,8,9
 350 1356 350 1356 319 1402 c 132,-1,10
 288 1448 288 1448 234 1448 c 4,0,1
248 1506 m 4,11,12
 334 1506 334 1506 385 1451 c 132,-1,13
 436 1396 436 1396 436 1310 c 132,-1,14
 436 1224 436 1224 379 1161 c 132,-1,15
 322 1098 322 1098 232 1098 c 4,16,17
 148 1098 148 1098 96 1152 c 132,-1,18
 44 1206 44 1206 44 1298 c 4,19,20
 44 1382 44 1382 104 1444 c 132,-1,21
 164 1506 164 1506 248 1506 c 4,11,12
EndSplineSet
EndChar

StartChar: plusminus
Encoding: 433 177 177
Width: 790
Flags: HMW
LayerCount: 2
Fore
SplineSet
110 330 m 1,0,-1
 704 330 l 1,1,-1
 690 208 l 1,2,-1
 96 208 l 1,3,-1
 110 330 l 1,0,-1
460 628 m 1,4,-1
 462 382 l 1,5,-1
 328 396 l 1,6,-1
 328 628 l 1,7,-1
 50 628 l 1,8,-1
 64 750 l 1,9,-1
 328 750 l 1,10,-1
 328 990 l 1,11,-1
 458 976 l 1,12,-1
 460 750 l 1,13,-1
 736 750 l 1,14,-1
 722 628 l 1,15,-1
 460 628 l 1,4,-1
EndSplineSet
EndChar

StartChar: uni00B2
Encoding: 434 178 178
Width: 550
Flags: HMW
LayerCount: 2
Fore
SplineSet
462 854 m 0,0,-1
 60 854 l 0,1,-1
 56 922 l 0,2,-1
 236 1144 l 0,3,4
 328 1240 328 1240 328 1354 c 0,5,6
 328 1404 328 1404 304 1432 c 128,-1,7
 280 1460 280 1460 236 1460 c 0,8,9
 204 1460 204 1460 175 1438 c 128,-1,10
 146 1416 146 1416 132 1394 c 128,-1,11
 118 1372 118 1372 106 1348 c 0,12,-1
 62 1366 l 0,13,14
 68 1398 68 1398 94 1437 c 128,-1,15
 120 1476 120 1476 170 1508 c 128,-1,16
 220 1540 220 1540 278 1540 c 0,17,18
 356 1540 356 1540 407 1495 c 128,-1,19
 458 1450 458 1450 458 1380 c 0,20,21
 458 1276 458 1276 404 1204 c 1,22,23
 174 944 l 1,24,-1
 400 944 l 0,25,-1
 446 1028 l 0,26,-1
 490 1022 l 0,27,-1
 462 854 l 0,0,-1
EndSplineSet
EndChar

StartChar: uni00B3
Encoding: 435 179 179
Width: 530
Flags: HMW
LayerCount: 2
Fore
SplineSet
120 970 m 0,0,1
 124 942 124 942 146 908 c 0,2,3
 168 876 168 876 206 876 c 0,4,5
 282 876 282 876 314 917 c 128,-1,6
 346 958 346 958 346 1013 c 128,-1,7
 346 1068 346 1068 297 1113 c 128,-1,8
 248 1158 248 1158 192 1158 c 0,9,-1
 182 1158 l 0,10,-1
 176 1198 l 0,11,12
 188 1202 188 1202 210 1216 c 128,-1,13
 232 1230 232 1230 258 1253 c 128,-1,14
 284 1276 284 1276 303 1312 c 128,-1,15
 322 1348 322 1348 322 1366 c 0,16,17
 322 1410 322 1410 303 1434 c 128,-1,18
 284 1458 284 1458 246 1458 c 0,19,20
 202 1458 202 1458 176 1436 c 0,21,22
 152 1414 152 1414 132 1368 c 0,23,-1
 84 1384 l 0,24,25
 94 1440 94 1440 150 1490 c 0,26,27
 204 1540 204 1540 280 1540 c 128,-1,28
 356 1540 356 1540 397 1498 c 128,-1,29
 438 1456 438 1456 438 1408 c 128,-1,30
 438 1360 438 1360 400 1304 c 0,31,32
 370 1254 370 1254 304 1224 c 0,33,-1
 304 1218 l 0,34,35
 388 1198 388 1198 427 1155 c 128,-1,36
 466 1112 466 1112 466 1046 c 0,37,38
 466 972 466 972 393 897 c 128,-1,39
 320 822 320 822 194 822 c 0,40,41
 122 822 122 822 82 848 c 128,-1,42
 42 874 42 874 42 906 c 0,43,44
 42 924 42 924 64 948 c 0,45,46
 116 1006 116 1006 120 970 c 0,0,1
EndSplineSet
EndChar

StartChar: acute
Encoding: 436 180 180
Width: 448
Flags: HMW
LayerCount: 2
Fore
SplineSet
420 1450 m 0,0,1
 362 1340 362 1340 271 1227 c 128,-1,2
 180 1114 180 1114 98 1064 c 0,3,-1
 10 1136 l 0,4,5
 62 1202 62 1202 128 1336 c 128,-1,6
 194 1470 194 1470 222 1552 c 0,7,-1
 420 1450 l 0,0,1
EndSplineSet
EndChar

StartChar: uni00B5
Encoding: 437 181 181
Width: 1248
Flags: HMW
LayerCount: 2
Fore
SplineSet
194 598 m 0,0,-1
 194 892 l 0,1,-1
 28 958 l 0,2,-1
 44 1054 l 0,3,-1
 370 1080 l 0,4,-1
 398 1050 l 0,5,-1
 398 382 l 0,6,7
 398 128 398 128 586 128 c 0,8,9
 608 128 608 128 628 130 c 128,-1,10
 648 132 648 132 669 140 c 128,-1,11
 690 148 690 148 701 151 c 128,-1,12
 712 154 712 154 733 169 c 128,-1,13
 754 184 754 184 758 186 c 128,-1,14
 762 188 762 188 788 208 c 0,15,-1
 812 228 l 0,16,-1
 812 886 l 0,17,-1
 618 936 l 0,18,-1
 630 1046 l 0,19,-1
 986 1080 l 0,20,-1
 1012 1050 l 0,21,-1
 1012 258 l 0,22,23
 1012 212 1012 212 1019 184 c 128,-1,24
 1026 156 1026 156 1050 140 c 128,-1,25
 1074 124 1074 124 1088 120 c 128,-1,26
 1102 116 1102 116 1144 106 c 0,27,-1
 1198 94 l 0,28,-1
 1188 -8 l 0,29,30
 1096 -30 1096 -30 1004 -30 c 0,31,32
 916 -30 916 -30 871 19 c 128,-1,33
 826 68 826 68 826 146 c 0,34,-1
 826 156 l 0,35,-1
 812 156 l 0,36,37
 644 -30 644 -30 464 -30 c 0,38,39
 352 -30 352 -30 294 46 c 0,40,-1
 284 46 l 0,41,42
 296 -16 296 -16 302 -104 c 0,43,-1
 324 -470 l 0,44,-1
 162 -438 l 0,45,46
 164 -404 164 -404 171 -238 c 128,-1,47
 178 -72 178 -72 186 184 c 128,-1,48
 194 440 194 440 194 598 c 0,0,-1
EndSplineSet
EndChar

StartChar: paragraph
Encoding: 438 182 182
Width: 1478
Flags: HMW
LayerCount: 2
Fore
SplineSet
952 1374 m 1,0,-1
 924 1368 l 1,1,-1
 924 138 l 1,2,-1
 950 134 l 1,3,-1
 996 146 l 1,4,-1
 996 1364 l 1,5,-1
 952 1374 l 1,0,-1
1398 1506 m 1,6,-1
 1386 1414 l 1,7,-1
 1180 1368 l 1,8,-1
 1180 138 l 1,9,-1
 1400 98 l 1,10,-1
 1388 0 l 1,11,-1
 510 0 l 1,12,-1
 520 90 l 1,13,-1
 722 146 l 1,14,-1
 722 588 l 1,15,16
 644 582 644 582 564 582 c 0,17,18
 58 582 58 582 58 1022 c 0,19,20
 58 1266 58 1266 172 1372 c 0,21,22
 320 1508 320 1508 496 1508 c 2,23,-1
 1398 1506 l 1,6,-1
722 1396 m 1,24,25
 672 1398 672 1398 594 1398 c 0,26,27
 308 1398 308 1398 308 1066 c 0,28,29
 308 870 308 870 368 800 c 0,30,31
 450 700 450 700 586 700 c 1,32,-1
 714 708 l 1,33,-1
 722 702 l 1,34,-1
 722 1396 l 1,24,25
EndSplineSet
EndChar

StartChar: periodcentered
Encoding: 439 183 183
Width: 490
Flags: HMW
LayerCount: 2
Fore
SplineSet
244 748 m 128,-1,1
 304 748 304 748 347 708 c 128,-1,2
 390 668 390 668 390 610 c 0,3,4
 390 548 390 548 347 505 c 128,-1,5
 304 462 304 462 244 462 c 128,-1,6
 184 462 184 462 142 506 c 128,-1,7
 100 550 100 550 100 612 c 0,8,9
 100 670 100 670 142 709 c 128,-1,0
 184 748 184 748 244 748 c 128,-1,1
EndSplineSet
EndChar

StartChar: cedilla
Encoding: 440 184 184
Width: 442
Flags: HMW
LayerCount: 2
Fore
SplineSet
258 -92 m 0,0,1
 258 -120 258 -120 312 -175 c 128,-1,2
 366 -230 366 -230 366 -274 c 0,3,4
 366 -398 366 -398 120 -472 c 0,5,-1
 96 -400 l 0,6,7
 200 -364 200 -364 200 -300 c 0,8,9
 200 -280 200 -280 156 -235 c 128,-1,10
 112 -190 112 -190 112 -166 c 0,11,12
 112 -114 112 -114 230 4 c 0,13,-1
 324 4 l 0,14,15
 318 -4 318 -4 303 -20 c 128,-1,16
 288 -36 288 -36 280 -46 c 128,-1,17
 272 -56 272 -56 265 -69 c 128,-1,18
 258 -82 258 -82 258 -92 c 0,0,1
EndSplineSet
EndChar

StartChar: uni00B9
Encoding: 441 185 185
Width: 484
Flags: HMW
LayerCount: 2
Fore
SplineSet
302 1508 m 4,0,-1
 302 930 l 4,1,-1
 418 910 l 4,2,-1
 412 854 l 4,3,-1
 62 854 l 4,4,-1
 68 906 l 4,5,-1
 180 934 l 4,6,-1
 180 1412 l 4,7,-1
 74 1414 l 4,8,-1
 80 1460 l 4,9,-1
 286 1508 l 4,10,-1
 302 1508 l 4,0,-1
EndSplineSet
EndChar

StartChar: ordmasculine
Encoding: 442 186 186
Width: 790
Flags: HMW
LayerCount: 2
Fore
SplineSet
218 1183 m 128,-1,1
 218 1094 218 1094 238 1030 c 128,-1,2
 258 966 258 966 309 913 c 128,-1,3
 360 860 360 860 420 860 c 0,4,5
 500 860 500 860 536 930 c 128,-1,6
 572 1000 572 1000 572 1072 c 0,7,8
 572 1136 572 1136 560 1196 c 128,-1,9
 548 1256 548 1256 524 1302 c 128,-1,10
 500 1348 500 1348 466 1380 c 128,-1,11
 432 1412 432 1412 376 1412 c 0,12,13
 290 1412 290 1412 254 1342 c 128,-1,0
 218 1272 218 1272 218 1183 c 128,-1,1
732 1140 m 0,14,15
 732 972 732 972 634 866 c 128,-1,16
 536 760 536 760 392 760 c 0,17,18
 236 760 236 760 147 862 c 128,-1,19
 58 964 58 964 58 1126 c 0,20,21
 58 1302 58 1302 163 1408 c 128,-1,22
 268 1514 268 1514 412 1514 c 0,23,24
 560 1514 560 1514 646 1412 c 128,-1,25
 732 1310 732 1310 732 1140 c 0,14,15
106 658 m 5,26,-1
 716 658 l 5,27,-1
 708 536 l 5,28,-1
 98 536 l 5,29,-1
 106 658 l 5,26,-1
EndSplineSet
EndChar

StartChar: onequarter
Encoding: 444 188 188
Width: 1224
Flags: HMW
LayerCount: 2
Fore
SplineSet
958 -194 m 4,0,-1
 958 0 l 4,1,-1
 666 0 l 4,2,-1
 650 48 l 4,3,-1
 1032 588 l 4,4,-1
 1088 576 l 4,5,6
 1080 468 1080 468 1080 252 c 4,7,-1
 1080 86 l 4,8,-1
 1194 86 l 4,9,-1
 1182 -2 l 4,10,-1
 1082 -2 l 4,11,-1
 1082 -172 l 4,12,-1
 958 -194 l 4,0,-1
958 86 m 4,13,-1
 958 356 l 4,14,-1
 768 86 l 4,15,-1
 958 86 l 4,13,-1
302 1208 m 4,16,-1
 302 630 l 4,17,-1
 418 610 l 4,18,-1
 412 554 l 4,19,-1
 62 554 l 4,20,-1
 68 606 l 4,21,-1
 180 634 l 4,22,-1
 180 1112 l 4,23,-1
 74 1114 l 4,24,-1
 80 1160 l 4,25,-1
 286 1208 l 4,26,-1
 302 1208 l 4,16,-1
1004 1162 m 4,27,-1
 1132 1172 l 4,28,-1
 302 -26 l 4,29,-1
 168 -36 l 4,30,-1
 1004 1162 l 4,27,-1
EndSplineSet
EndChar

StartChar: onehalf
Encoding: 445 189 189
Width: 1310
Flags: HMW
LayerCount: 2
Fore
SplineSet
302 1208 m 0,0,-1
 302 630 l 0,1,-1
 418 610 l 0,2,-1
 412 554 l 0,3,-1
 62 554 l 0,4,-1
 68 606 l 0,5,-1
 180 634 l 0,6,-1
 180 1112 l 0,7,-1
 74 1114 l 0,8,-1
 80 1160 l 0,9,-1
 286 1208 l 0,10,-1
 302 1208 l 0,0,-1
1184 -160 m 0,11,-1
 782 -160 l 0,12,-1
 778 -92 l 0,13,-1
 958 128 l 0,14,15
 1050 226 1050 226 1050 340 c 0,16,17
 1050 390 1050 390 1026 418 c 128,-1,18
 1002 446 1002 446 958 446 c 0,19,20
 926 446 926 446 897 424 c 128,-1,21
 868 402 868 402 854 380 c 128,-1,22
 840 358 840 358 828 334 c 0,23,-1
 784 352 l 0,24,25
 790 384 790 384 816 423 c 128,-1,26
 842 462 842 462 892 494 c 128,-1,27
 942 526 942 526 1000 526 c 0,28,29
 1078 526 1078 526 1129 481 c 128,-1,30
 1180 436 1180 436 1180 366 c 0,31,32
 1180 262 1180 262 1126 190 c 1,33,-1
 896 -70 l 1,34,-1
 1122 -70 l 0,35,-1
 1168 14 l 0,36,-1
 1212 8 l 0,37,-1
 1184 -160 l 0,11,-1
1004 1162 m 0,38,-1
 1132 1172 l 0,39,-1
 300 -26 l 0,40,-1
 168 -36 l 0,41,-1
 1004 1162 l 0,38,-1
EndSplineSet
EndChar

StartChar: threequarters
Encoding: 446 190 190
Width: 1262
Flags: HMW
LayerCount: 2
Fore
SplineSet
120 670 m 0,0,1
 124 642 124 642 146 608 c 0,2,3
 168 576 168 576 206 576 c 0,4,5
 282 576 282 576 314 617 c 128,-1,6
 346 658 346 658 346 713 c 128,-1,7
 346 768 346 768 297 813 c 128,-1,8
 248 858 248 858 192 858 c 0,9,-1
 182 858 l 0,10,-1
 176 898 l 0,11,12
 188 902 188 902 210 916 c 128,-1,13
 232 930 232 930 258 953 c 128,-1,14
 284 976 284 976 303 1012 c 128,-1,15
 322 1048 322 1048 322 1066 c 0,16,17
 322 1110 322 1110 303 1134 c 128,-1,18
 284 1158 284 1158 246 1158 c 0,19,20
 202 1158 202 1158 176 1136 c 0,21,22
 152 1114 152 1114 132 1068 c 0,23,-1
 84 1084 l 0,24,25
 94 1140 94 1140 150 1190 c 0,26,27
 204 1240 204 1240 280 1240 c 128,-1,28
 356 1240 356 1240 397 1198 c 128,-1,29
 438 1156 438 1156 438 1108 c 128,-1,30
 438 1060 438 1060 400 1004 c 0,31,32
 370 954 370 954 304 924 c 0,33,-1
 304 918 l 0,34,35
 388 898 388 898 427 855 c 128,-1,36
 466 812 466 812 466 746 c 0,37,38
 466 672 466 672 393 597 c 128,-1,39
 320 522 320 522 194 522 c 0,40,41
 122 522 122 522 82 548 c 128,-1,42
 42 574 42 574 42 606 c 0,43,44
 42 624 42 624 64 648 c 0,45,46
 116 706 116 706 120 670 c 0,0,1
940 -194 m 0,47,-1
 940 0 l 0,48,-1
 648 0 l 0,49,-1
 632 48 l 0,50,-1
 1014 588 l 0,51,-1
 1070 576 l 0,52,53
 1062 468 1062 468 1062 252 c 0,54,-1
 1062 86 l 0,55,-1
 1176 86 l 0,56,-1
 1164 -2 l 0,57,-1
 1064 -2 l 0,58,-1
 1064 -172 l 0,59,-1
 940 -194 l 0,47,-1
940 86 m 0,60,-1
 940 356 l 0,61,-1
 750 86 l 0,62,-1
 940 86 l 0,60,-1
1000 1162 m 0,63,-1
 1128 1172 l 0,64,-1
 298 -26 l 0,65,-1
 164 -36 l 0,66,-1
 1000 1162 l 0,63,-1
EndSplineSet
EndChar

StartChar: AE
Encoding: 454 198 198
Width: 2050
Flags: HMW
LayerCount: 2
Fore
SplineSet
1050 1282 m 0,0,-1
 676 688 l 0,1,-1
 1048 688 l 0,2,-1
 1050 1282 l 0,0,-1
1048 572 m 0,3,-1
 612 572 l 0,4,-1
 350 152 l 0,5,-1
 576 100 l 0,6,-1
 562 2 l 0,7,-1
 10 2 l 0,8,-1
 22 92 l 0,9,-1
 186 158 l 0,10,-1
 1050 1506 l 0,11,-1
 1990 1506 l 0,12,-1
 1952 1124 l 0,13,-1
 1848 1140 l 0,14,-1
 1798 1396 l 0,15,-1
 1268 1396 l 0,16,-1
 1268 824 l 0,17,-1
 1580 824 l 0,18,-1
 1632 972 l 0,19,-1
 1746 980 l 0,20,-1
 1706 514 l 0,21,-1
 1602 496 l 0,22,-1
 1562 710 l 0,23,-1
 1268 710 l 0,24,-1
 1268 116 l 0,25,-1
 1830 116 l 0,26,-1
 1950 398 l 0,27,-1
 2048 380 l 0,28,-1
 2012 0 l 0,29,-1
 1434 0 l 0,30,-1
 900 0 l 0,31,-1
 836 0 l 0,32,-1
 846 90 l 0,33,-1
 1044 146 l 0,34,-1
 1048 146 l 0,35,-1
 1048 572 l 0,3,-1
EndSplineSet
EndChar

StartChar: Ccedilla
Encoding: 455 199 199
Width: 1346
Flags: HMW
LayerCount: 2
Fore
SplineSet
818 -88 m 0,0,1
 818 -112 818 -112 846 -141 c 128,-1,2
 874 -170 874 -170 901 -203 c 128,-1,3
 928 -236 928 -236 928 -270 c 0,4,5
 928 -394 928 -394 678 -468 c 0,6,-1
 654 -396 l 0,7,8
 706 -378 706 -378 733 -351 c 128,-1,9
 760 -324 760 -324 760 -296 c 0,10,11
 760 -276 760 -276 715 -231 c 128,-1,12
 670 -186 670 -186 670 -162 c 0,13,14
 670 -116 670 -116 752 -30 c 0,15,16
 616 -24 616 -24 492 27 c 128,-1,17
 368 78 368 78 271 169 c 128,-1,18
 174 260 174 260 117 401 c 128,-1,19
 60 542 60 542 60 714 c 0,20,21
 60 826 60 826 87 938 c 128,-1,22
 114 1050 114 1050 176 1159 c 128,-1,23
 238 1268 238 1268 326 1351 c 128,-1,24
 414 1434 414 1434 547 1486 c 128,-1,25
 680 1538 680 1538 840 1538 c 0,26,27
 1118 1538 1118 1538 1278 1416 c 0,28,-1
 1240 1014 l 0,29,-1
 1134 1030 l 0,30,-1
 1084 1296 l 0,31,32
 986 1422 986 1422 770 1422 c 0,33,34
 576 1422 576 1422 448 1253 c 128,-1,35
 320 1084 320 1084 320 798 c 0,36,37
 320 470 320 470 482 299 c 128,-1,38
 644 128 644 128 878 128 c 0,39,40
 1104 128 1104 128 1286 312 c 0,41,42
 1330 286 1330 286 1346 246 c 0,43,44
 1168 2 1168 2 854 -26 c 0,45,46
 818 -68 818 -68 818 -88 c 0,0,1
EndSplineSet
EndChar

StartChar: Egrave
Encoding: 456 200 200
Width: 1302
Flags: HMW
LayerCount: 2
Fore
SplineSet
404 2050 m 4,0,-1
 602 2152 l 4,1,2
 630 2070 630 2070 696 1936 c 132,-1,3
 762 1802 762 1802 814 1736 c 4,4,-1
 726 1664 l 4,5,6
 644 1714 644 1714 553 1827 c 132,-1,7
 462 1940 462 1940 404 2050 c 4,0,-1
42 1506 m 0,8,-1
 1248 1506 l 0,9,-1
 1210 1120 l 0,10,-1
 1106 1136 l 0,11,-1
 1056 1396 l 0,12,-1
 484 1396 l 0,13,-1
 484 820 l 0,14,-1
 836 820 l 0,15,-1
 888 964 l 0,16,-1
 1002 980 l 0,17,-1
 962 510 l 0,18,-1
 858 494 l 0,19,-1
 818 706 l 0,20,-1
 484 706 l 0,21,-1
 484 116 l 0,22,-1
 1086 116 l 0,23,-1
 1204 394 l 0,24,-1
 1304 380 l 0,25,-1
 1268 0 l 0,26,-1
 38 0 l 0,27,-1
 48 90 l 0,28,-1
 250 146 l 0,29,-1
 250 1364 l 0,30,-1
 30 1414 l 0,31,-1
 42 1506 l 0,8,-1
EndSplineSet
EndChar

StartChar: Eacute
Encoding: 457 201 201
Width: 1302
Flags: HMW
LayerCount: 2
Fore
SplineSet
966 2050 m 0,0,1
 908 1940 908 1940 817 1827 c 128,-1,2
 726 1714 726 1714 644 1664 c 0,3,-1
 556 1736 l 0,4,5
 608 1802 608 1802 674 1936 c 128,-1,6
 740 2070 740 2070 768 2152 c 0,7,-1
 966 2050 l 0,0,1
42 1506 m 0,8,-1
 1248 1506 l 0,9,-1
 1210 1120 l 0,10,-1
 1106 1136 l 0,11,-1
 1056 1396 l 0,12,-1
 484 1396 l 0,13,-1
 484 820 l 0,14,-1
 836 820 l 0,15,-1
 888 964 l 0,16,-1
 1002 980 l 0,17,-1
 962 510 l 0,18,-1
 858 494 l 0,19,-1
 818 706 l 0,20,-1
 484 706 l 0,21,-1
 484 116 l 0,22,-1
 1086 116 l 0,23,-1
 1204 394 l 0,24,-1
 1304 380 l 0,25,-1
 1268 0 l 0,26,-1
 38 0 l 0,27,-1
 48 90 l 0,28,-1
 250 146 l 0,29,-1
 250 1364 l 0,30,-1
 30 1414 l 0,31,-1
 42 1506 l 0,8,-1
EndSplineSet
EndChar

StartChar: Ecircumflex
Encoding: 458 202 202
Width: 1302
Flags: HMW
LayerCount: 2
Fore
SplineSet
498 1664 m 4,0,-1
 394 1722 l 4,1,-1
 604 1976 l 4,2,3
 648 1998 648 1998 682 1998 c 4,4,5
 700 1998 700 1998 708 1996 c 4,6,-1
 954 1730 l 4,7,-1
 846 1670 l 4,8,-1
 660 1860 l 4,9,-1
 498 1664 l 4,0,-1
42 1506 m 0,10,-1
 1248 1506 l 0,11,-1
 1210 1120 l 0,12,-1
 1106 1136 l 0,13,-1
 1056 1396 l 0,14,-1
 484 1396 l 0,15,-1
 484 820 l 0,16,-1
 836 820 l 0,17,-1
 888 964 l 0,18,-1
 1002 980 l 0,19,-1
 962 510 l 0,20,-1
 858 494 l 0,21,-1
 818 706 l 0,22,-1
 484 706 l 0,23,-1
 484 116 l 0,24,-1
 1086 116 l 0,25,-1
 1204 394 l 0,26,-1
 1304 380 l 0,27,-1
 1268 0 l 0,28,-1
 38 0 l 0,29,-1
 48 90 l 0,30,-1
 250 146 l 0,31,-1
 250 1364 l 0,32,-1
 30 1414 l 0,33,-1
 42 1506 l 0,10,-1
EndSplineSet
EndChar

StartChar: Edieresis
Encoding: 459 203 203
Width: 1302
Flags: HMW
LayerCount: 2
Fore
SplineSet
892 1922 m 132,-1,1
 946 1922 946 1922 985 1886 c 132,-1,2
 1024 1850 1024 1850 1024 1798 c 4,3,4
 1024 1742 1024 1742 985 1703 c 132,-1,5
 946 1664 946 1664 892 1664 c 132,-1,6
 838 1664 838 1664 800 1704 c 132,-1,7
 762 1744 762 1744 762 1800 c 4,8,9
 762 1852 762 1852 800 1887 c 132,-1,0
 838 1922 838 1922 892 1922 c 132,-1,1
420 1922 m 132,-1,11
 474 1922 474 1922 513 1886 c 132,-1,12
 552 1850 552 1850 552 1798 c 4,13,14
 552 1742 552 1742 513 1703 c 132,-1,15
 474 1664 474 1664 420 1664 c 132,-1,16
 366 1664 366 1664 328 1704 c 132,-1,17
 290 1744 290 1744 290 1800 c 4,18,19
 290 1852 290 1852 328 1887 c 132,-1,10
 366 1922 366 1922 420 1922 c 132,-1,11
42 1506 m 0,20,-1
 1248 1506 l 0,21,-1
 1210 1120 l 0,22,-1
 1106 1136 l 0,23,-1
 1056 1396 l 0,24,-1
 484 1396 l 0,25,-1
 484 820 l 0,26,-1
 836 820 l 0,27,-1
 888 964 l 0,28,-1
 1002 980 l 0,29,-1
 962 510 l 0,30,-1
 858 494 l 0,31,-1
 818 706 l 0,32,-1
 484 706 l 0,33,-1
 484 116 l 0,34,-1
 1086 116 l 0,35,-1
 1204 394 l 0,36,-1
 1304 380 l 0,37,-1
 1268 0 l 0,38,-1
 38 0 l 0,39,-1
 48 90 l 0,40,-1
 250 146 l 0,41,-1
 250 1364 l 0,42,-1
 30 1414 l 0,43,-1
 42 1506 l 0,20,-1
EndSplineSet
EndChar

StartChar: Igrave
Encoding: 460 204 204
Width: 728
Flags: HMW
LayerCount: 2
Fore
SplineSet
70 2050 m 4,0,-1
 268 2152 l 4,1,2
 296 2070 296 2070 362 1936 c 132,-1,3
 428 1802 428 1802 480 1736 c 4,4,-1
 392 1664 l 4,5,6
 310 1714 310 1714 219 1827 c 132,-1,7
 128 1940 128 1940 70 2050 c 4,0,-1
692 0 m 0,8,-1
 38 0 l 0,9,-1
 48 90 l 0,10,-1
 250 146 l 0,11,-1
 250 1364 l 0,12,-1
 30 1414 l 0,13,-1
 42 1506 l 0,14,-1
 702 1506 l 0,15,-1
 690 1414 l 0,16,-1
 484 1368 l 0,17,-1
 484 138 l 0,18,-1
 704 98 l 0,19,-1
 692 0 l 0,8,-1
EndSplineSet
EndChar

StartChar: Iacute
Encoding: 461 205 205
Width: 728
Flags: HMW
LayerCount: 2
Fore
SplineSet
674 2050 m 4,0,1
 616 1940 616 1940 525 1827 c 132,-1,2
 434 1714 434 1714 352 1664 c 4,3,-1
 264 1736 l 4,4,5
 316 1802 316 1802 382 1936 c 132,-1,6
 448 2070 448 2070 476 2152 c 4,7,-1
 674 2050 l 4,0,1
692 0 m 0,8,-1
 38 0 l 0,9,-1
 48 90 l 0,10,-1
 250 146 l 0,11,-1
 250 1364 l 0,12,-1
 30 1414 l 0,13,-1
 42 1506 l 0,14,-1
 702 1506 l 0,15,-1
 690 1414 l 0,16,-1
 484 1368 l 0,17,-1
 484 138 l 0,18,-1
 704 98 l 0,19,-1
 692 0 l 0,8,-1
EndSplineSet
EndChar

StartChar: Icircumflex
Encoding: 462 206 206
Width: 728
Flags: HMW
LayerCount: 2
Fore
SplineSet
196 1664 m 0,0,-1
 92 1722 l 0,1,-1
 302 1976 l 0,2,3
 346 1998 346 1998 380 1998 c 0,4,5
 398 1998 398 1998 406 1996 c 0,6,-1
 652 1730 l 0,7,-1
 544 1670 l 0,8,-1
 358 1860 l 0,9,-1
 196 1664 l 0,0,-1
692 0 m 0,10,-1
 38 0 l 0,11,-1
 48 90 l 0,12,-1
 250 146 l 0,13,-1
 250 1364 l 0,14,-1
 30 1414 l 0,15,-1
 42 1506 l 0,16,-1
 702 1506 l 0,17,-1
 690 1414 l 0,18,-1
 484 1368 l 0,19,-1
 484 138 l 0,20,-1
 704 98 l 0,21,-1
 692 0 l 0,10,-1
EndSplineSet
EndChar

StartChar: Idieresis
Encoding: 463 207 207
Width: 728
Flags: HMW
LayerCount: 2
Fore
SplineSet
606 1922 m 128,-1,1
 660 1922 660 1922 699 1886 c 128,-1,2
 738 1850 738 1850 738 1798 c 0,3,4
 738 1742 738 1742 699 1703 c 128,-1,5
 660 1664 660 1664 606 1664 c 128,-1,6
 552 1664 552 1664 514 1704 c 128,-1,7
 476 1744 476 1744 476 1800 c 0,8,9
 476 1852 476 1852 514 1887 c 128,-1,0
 552 1922 552 1922 606 1922 c 128,-1,1
134 1922 m 128,-1,11
 188 1922 188 1922 227 1886 c 128,-1,12
 266 1850 266 1850 266 1798 c 0,13,14
 266 1742 266 1742 227 1703 c 128,-1,15
 188 1664 188 1664 134 1664 c 128,-1,16
 80 1664 80 1664 42 1704 c 128,-1,17
 4 1744 4 1744 4 1800 c 0,18,19
 4 1852 4 1852 42 1887 c 128,-1,10
 80 1922 80 1922 134 1922 c 128,-1,11
692 0 m 0,20,-1
 38 0 l 0,21,-1
 48 90 l 0,22,-1
 250 146 l 0,23,-1
 250 1364 l 0,24,-1
 30 1414 l 0,25,-1
 42 1506 l 0,26,-1
 702 1506 l 0,27,-1
 690 1414 l 0,28,-1
 484 1368 l 0,29,-1
 484 138 l 0,30,-1
 704 98 l 0,31,-1
 692 0 l 0,20,-1
EndSplineSet
EndChar

StartChar: Eth
Encoding: 464 208 208
Width: 1600
Flags: HMW
LayerCount: 2
Fore
SplineSet
1560 798 m 0,0,1
 1560 648 1560 648 1499 507 c 128,-1,2
 1438 366 1438 366 1326 252 c 128,-1,3
 1214 138 1214 138 1036 69 c 128,-1,4
 858 0 858 0 642 0 c 0,5,-1
 22 0 l 0,6,-1
 38 90 l 0,7,-1
 246 156 l 0,8,-1
 246 690 l 0,9,-1
 28 672 l 0,10,-1
 42 784 l 0,11,-1
 246 800 l 0,12,-1
 246 1338 l 0,13,-1
 38 1374 l 0,14,-1
 48 1466 l 0,15,16
 424 1526 424 1526 670 1526 c 128,-1,17
 916 1526 916 1526 1095 1466 c 128,-1,18
 1274 1406 1274 1406 1372 1301 c 128,-1,19
 1470 1196 1470 1196 1515 1071 c 128,-1,20
 1560 946 1560 946 1560 798 c 0,0,1
478 704 m 0,21,-1
 478 126 l 0,22,-1
 734 126 l 0,23,24
 1014 126 1014 126 1157 298 c 128,-1,25
 1300 470 1300 470 1300 724 c 0,26,27
 1300 1018 1300 1018 1125 1210 c 128,-1,28
 950 1402 950 1402 626 1402 c 0,29,30
 544 1402 544 1402 478 1394 c 0,31,-1
 478 814 l 0,32,-1
 790 840 l 0,33,-1
 776 728 l 0,34,-1
 478 704 l 0,21,-1
EndSplineSet
EndChar

StartChar: Ntilde
Encoding: 465 209 209
Width: 1620
Flags: HMW
LayerCount: 2
Fore
SplineSet
490 1712 m 4,0,1
 600 1922 600 1922 722 1922 c 4,2,3
 784 1922 784 1922 883 1877 c 132,-1,4
 982 1832 982 1832 1018 1832 c 4,5,6
 1056 1832 1056 1832 1104 1906 c 4,7,-1
 1180 1880 l 4,8,9
 1160 1794 1160 1794 1086 1729 c 132,-1,10
 1012 1664 1012 1664 958 1664 c 4,11,12
 906 1664 906 1664 814 1710 c 132,-1,13
 722 1756 722 1756 676 1756 c 4,14,15
 634 1756 634 1756 572 1672 c 4,16,-1
 490 1712 l 4,0,1
1208 -36 m 0,17,-1
 404 1164 l 0,18,-1
 404 138 l 0,19,-1
 626 98 l 0,20,-1
 614 0 l 0,21,-1
 38 0 l 0,22,-1
 48 90 l 0,23,-1
 250 146 l 0,24,-1
 250 1354 l 0,25,-1
 30 1414 l 0,26,-1
 42 1506 l 0,27,-1
 468 1506 l 0,28,-1
 1246 330 l 0,29,-1
 1246 1364 l 0,30,-1
 1022 1414 l 0,31,-1
 1036 1506 l 0,32,-1
 1612 1506 l 0,33,-1
 1596 1414 l 0,34,-1
 1394 1368 l 0,35,-1
 1394 2 l 0,36,-1
 1208 -36 l 0,17,-1
EndSplineSet
EndChar

StartChar: Ograve
Encoding: 466 210 210
Width: 1602
Flags: HMW
LayerCount: 2
Fore
SplineSet
520 2050 m 0,0,-1
 718 2152 l 0,1,2
 746 2070 746 2070 812 1936 c 128,-1,3
 878 1802 878 1802 930 1736 c 0,4,-1
 842 1664 l 0,5,6
 760 1714 760 1714 669 1827 c 128,-1,7
 578 1940 578 1940 520 2050 c 0,0,-1
784 1424 m 0,8,9
 330 1424 330 1424 330 820 c 0,10,11
 330 680 330 680 358 555 c 128,-1,12
 386 430 386 430 442 325 c 128,-1,13
 498 220 498 220 595 158 c 128,-1,14
 692 96 692 96 818 96 c 0,15,16
 950 96 950 96 1044 147 c 128,-1,17
 1138 198 1138 198 1187 287 c 128,-1,18
 1236 376 1236 376 1257 475 c 128,-1,19
 1278 574 1278 574 1278 694 c 0,20,21
 1278 828 1278 828 1249 954 c 128,-1,22
 1220 1080 1220 1080 1163 1187 c 128,-1,23
 1106 1294 1106 1294 1008 1359 c 128,-1,24
 910 1424 910 1424 784 1424 c 0,8,9
1542 750 m 0,25,26
 1542 538 1542 538 1453 362 c 128,-1,27
 1364 186 1364 186 1183 77 c 128,-1,28
 1002 -32 1002 -32 758 -32 c 0,29,30
 450 -32 450 -32 255 192 c 128,-1,31
 60 416 60 416 60 750 c 0,32,33
 60 1104 60 1104 272 1323 c 128,-1,34
 484 1542 484 1542 842 1542 c 0,35,36
 1054 1542 1054 1542 1216 1432 c 128,-1,37
 1378 1322 1378 1322 1460 1143 c 128,-1,38
 1542 964 1542 964 1542 750 c 0,25,26
EndSplineSet
EndChar

StartChar: Oacute
Encoding: 467 211 211
Width: 1602
Flags: HMW
LayerCount: 2
Fore
SplineSet
1164 2050 m 0,0,1
 1106 1940 1106 1940 1015 1827 c 128,-1,2
 924 1714 924 1714 842 1664 c 0,3,-1
 754 1736 l 0,4,5
 806 1802 806 1802 872 1936 c 128,-1,6
 938 2070 938 2070 966 2152 c 0,7,-1
 1164 2050 l 0,0,1
784 1424 m 0,8,9
 330 1424 330 1424 330 820 c 0,10,11
 330 680 330 680 358 555 c 128,-1,12
 386 430 386 430 442 325 c 128,-1,13
 498 220 498 220 595 158 c 128,-1,14
 692 96 692 96 818 96 c 0,15,16
 950 96 950 96 1044 147 c 128,-1,17
 1138 198 1138 198 1187 287 c 128,-1,18
 1236 376 1236 376 1257 475 c 128,-1,19
 1278 574 1278 574 1278 694 c 0,20,21
 1278 828 1278 828 1249 954 c 128,-1,22
 1220 1080 1220 1080 1163 1187 c 128,-1,23
 1106 1294 1106 1294 1008 1359 c 128,-1,24
 910 1424 910 1424 784 1424 c 0,8,9
1542 750 m 0,25,26
 1542 538 1542 538 1453 362 c 128,-1,27
 1364 186 1364 186 1183 77 c 128,-1,28
 1002 -32 1002 -32 758 -32 c 0,29,30
 450 -32 450 -32 255 192 c 128,-1,31
 60 416 60 416 60 750 c 0,32,33
 60 1104 60 1104 272 1323 c 128,-1,34
 484 1542 484 1542 842 1542 c 0,35,36
 1054 1542 1054 1542 1216 1432 c 128,-1,37
 1378 1322 1378 1322 1460 1143 c 128,-1,38
 1542 964 1542 964 1542 750 c 0,25,26
EndSplineSet
EndChar

StartChar: Ocircumflex
Encoding: 468 212 212
Width: 1602
Flags: HMW
LayerCount: 2
Fore
SplineSet
666 1664 m 0,0,-1
 562 1722 l 0,1,-1
 772 1976 l 0,2,3
 816 1998 816 1998 850 1998 c 0,4,5
 868 1998 868 1998 876 1996 c 0,6,-1
 1122 1730 l 0,7,-1
 1014 1670 l 0,8,-1
 828 1860 l 0,9,-1
 666 1664 l 0,0,-1
784 1424 m 0,10,11
 330 1424 330 1424 330 820 c 0,12,13
 330 680 330 680 358 555 c 128,-1,14
 386 430 386 430 442 325 c 128,-1,15
 498 220 498 220 595 158 c 128,-1,16
 692 96 692 96 818 96 c 0,17,18
 950 96 950 96 1044 147 c 128,-1,19
 1138 198 1138 198 1187 287 c 128,-1,20
 1236 376 1236 376 1257 475 c 128,-1,21
 1278 574 1278 574 1278 694 c 0,22,23
 1278 828 1278 828 1249 954 c 128,-1,24
 1220 1080 1220 1080 1163 1187 c 128,-1,25
 1106 1294 1106 1294 1008 1359 c 128,-1,26
 910 1424 910 1424 784 1424 c 0,10,11
1542 750 m 0,27,28
 1542 538 1542 538 1453 362 c 128,-1,29
 1364 186 1364 186 1183 77 c 128,-1,30
 1002 -32 1002 -32 758 -32 c 0,31,32
 450 -32 450 -32 255 192 c 128,-1,33
 60 416 60 416 60 750 c 0,34,35
 60 1104 60 1104 272 1323 c 128,-1,36
 484 1542 484 1542 842 1542 c 0,37,38
 1054 1542 1054 1542 1216 1432 c 128,-1,39
 1378 1322 1378 1322 1460 1143 c 128,-1,40
 1542 964 1542 964 1542 750 c 0,27,28
EndSplineSet
EndChar

StartChar: Otilde
Encoding: 469 213 213
Width: 1602
Flags: HMW
LayerCount: 2
Fore
SplineSet
476 1712 m 4,0,1
 586 1922 586 1922 708 1922 c 4,2,3
 770 1922 770 1922 869 1877 c 132,-1,4
 968 1832 968 1832 1004 1832 c 4,5,6
 1042 1832 1042 1832 1090 1906 c 4,7,-1
 1166 1880 l 4,8,9
 1146 1794 1146 1794 1072 1729 c 132,-1,10
 998 1664 998 1664 944 1664 c 4,11,12
 892 1664 892 1664 800 1710 c 132,-1,13
 708 1756 708 1756 662 1756 c 4,14,15
 620 1756 620 1756 558 1672 c 4,16,-1
 476 1712 l 4,0,1
784 1424 m 0,17,18
 330 1424 330 1424 330 820 c 0,19,20
 330 680 330 680 358 555 c 128,-1,21
 386 430 386 430 442 325 c 128,-1,22
 498 220 498 220 595 158 c 128,-1,23
 692 96 692 96 818 96 c 0,24,25
 950 96 950 96 1044 147 c 128,-1,26
 1138 198 1138 198 1187 287 c 128,-1,27
 1236 376 1236 376 1257 475 c 128,-1,28
 1278 574 1278 574 1278 694 c 0,29,30
 1278 828 1278 828 1249 954 c 128,-1,31
 1220 1080 1220 1080 1163 1187 c 128,-1,32
 1106 1294 1106 1294 1008 1359 c 128,-1,33
 910 1424 910 1424 784 1424 c 0,17,18
1542 750 m 0,34,35
 1542 538 1542 538 1453 362 c 128,-1,36
 1364 186 1364 186 1183 77 c 128,-1,37
 1002 -32 1002 -32 758 -32 c 0,38,39
 450 -32 450 -32 255 192 c 128,-1,40
 60 416 60 416 60 750 c 0,41,42
 60 1104 60 1104 272 1323 c 128,-1,43
 484 1542 484 1542 842 1542 c 0,44,45
 1054 1542 1054 1542 1216 1432 c 128,-1,46
 1378 1322 1378 1322 1460 1143 c 128,-1,47
 1542 964 1542 964 1542 750 c 0,34,35
EndSplineSet
EndChar

StartChar: Odieresis
Encoding: 470 214 214
Width: 1602
Flags: HMW
LayerCount: 2
Fore
SplineSet
1078 1922 m 128,-1,1
 1132 1922 1132 1922 1171 1886 c 128,-1,2
 1210 1850 1210 1850 1210 1798 c 0,3,4
 1210 1742 1210 1742 1171 1703 c 128,-1,5
 1132 1664 1132 1664 1078 1664 c 128,-1,6
 1024 1664 1024 1664 986 1704 c 128,-1,7
 948 1744 948 1744 948 1800 c 0,8,9
 948 1852 948 1852 986 1887 c 128,-1,0
 1024 1922 1024 1922 1078 1922 c 128,-1,1
606 1922 m 128,-1,11
 660 1922 660 1922 699 1886 c 128,-1,12
 738 1850 738 1850 738 1798 c 0,13,14
 738 1742 738 1742 699 1703 c 128,-1,15
 660 1664 660 1664 606 1664 c 128,-1,16
 552 1664 552 1664 514 1704 c 128,-1,17
 476 1744 476 1744 476 1800 c 0,18,19
 476 1852 476 1852 514 1887 c 128,-1,10
 552 1922 552 1922 606 1922 c 128,-1,11
784 1424 m 0,20,21
 330 1424 330 1424 330 820 c 0,22,23
 330 680 330 680 358 555 c 128,-1,24
 386 430 386 430 442 325 c 128,-1,25
 498 220 498 220 595 158 c 128,-1,26
 692 96 692 96 818 96 c 0,27,28
 950 96 950 96 1044 147 c 128,-1,29
 1138 198 1138 198 1187 287 c 128,-1,30
 1236 376 1236 376 1257 475 c 128,-1,31
 1278 574 1278 574 1278 694 c 0,32,33
 1278 828 1278 828 1249 954 c 128,-1,34
 1220 1080 1220 1080 1163 1187 c 128,-1,35
 1106 1294 1106 1294 1008 1359 c 128,-1,36
 910 1424 910 1424 784 1424 c 0,20,21
1542 750 m 0,37,38
 1542 538 1542 538 1453 362 c 128,-1,39
 1364 186 1364 186 1183 77 c 128,-1,40
 1002 -32 1002 -32 758 -32 c 0,41,42
 450 -32 450 -32 255 192 c 128,-1,43
 60 416 60 416 60 750 c 0,44,45
 60 1104 60 1104 272 1323 c 128,-1,46
 484 1542 484 1542 842 1542 c 0,47,48
 1054 1542 1054 1542 1216 1432 c 128,-1,49
 1378 1322 1378 1322 1460 1143 c 128,-1,50
 1542 964 1542 964 1542 750 c 0,37,38
EndSplineSet
EndChar

StartChar: multiply
Encoding: 471 215 215
Width: 790
Flags: HMW
LayerCount: 2
Fore
SplineSet
394 420 m 1,0,-1
 144 176 l 1,1,-1
 64 276 l 1,2,-1
 302 510 l 1,3,-1
 64 750 l 1,4,-1
 164 830 l 1,5,-1
 400 594 l 1,6,-1
 650 838 l 1,7,-1
 730 736 l 1,8,-1
 490 504 l 1,9,-1
 732 260 l 1,10,-1
 632 180 l 1,11,-1
 394 420 l 1,0,-1
EndSplineSet
EndChar

StartChar: Oslash
Encoding: 472 216 216
Width: 1616
Flags: HMW
LayerCount: 2
Fore
SplineSet
1574 750 m 0,0,1
 1574 422 1574 422 1356 195 c 128,-1,2
 1138 -32 1138 -32 774 -32 c 0,3,4
 558 -32 558 -32 382 86 c 0,5,-1
 286 -58 l 0,6,-1
 100 -68 l 0,7,-1
 268 186 l 0,8,9
 60 410 60 410 60 750 c 0,10,11
 60 1102 60 1102 279 1322 c 128,-1,12
 498 1542 498 1542 858 1542 c 0,13,14
 1008 1542 1008 1542 1144 1482 c 0,15,-1
 1204 1566 l 0,16,-1
 1394 1576 l 0,17,-1
 1274 1404 l 0,18,19
 1416 1296 1416 1296 1495 1123 c 128,-1,20
 1574 950 1574 950 1574 750 c 0,0,1
800 1424 m 0,21,22
 668 1424 668 1424 573 1375 c 128,-1,23
 478 1326 478 1326 426 1239 c 128,-1,24
 374 1152 374 1152 351 1049 c 128,-1,25
 328 946 328 946 328 820 c 0,26,27
 328 564 328 564 410 384 c 0,28,-1
 1046 1344 l 0,29,30
 938 1424 938 1424 800 1424 c 0,21,22
1156 1234 m 0,31,-1
 496 246 l 0,32,33
 626 96 626 96 834 96 c 0,34,35
 966 96 966 96 1062 146 c 128,-1,36
 1158 196 1158 196 1210 284 c 128,-1,37
 1262 372 1262 372 1285 473 c 128,-1,38
 1308 574 1308 574 1308 694 c 0,39,40
 1308 1020 1308 1020 1156 1234 c 0,31,-1
EndSplineSet
EndChar

StartChar: Ugrave
Encoding: 473 217 217
Width: 1658
Flags: HMW
LayerCount: 2
Fore
SplineSet
520 2050 m 0,0,-1
 718 2152 l 0,1,2
 746 2070 746 2070 812 1936 c 128,-1,3
 878 1802 878 1802 930 1736 c 0,4,-1
 842 1664 l 0,5,6
 760 1714 760 1714 669 1827 c 128,-1,7
 578 1940 578 1940 520 2050 c 0,0,-1
888 112 m 0,8,9
 992 112 992 112 1068 144 c 128,-1,10
 1144 176 1144 176 1184 222 c 128,-1,11
 1224 268 1224 268 1247 337 c 128,-1,12
 1270 406 1270 406 1276 460 c 128,-1,13
 1282 514 1282 514 1282 582 c 0,14,-1
 1284 1364 l 0,15,-1
 1064 1414 l 0,16,-1
 1076 1506 l 0,17,-1
 1656 1506 l 0,18,-1
 1642 1414 l 0,19,-1
 1440 1368 l 0,20,-1
 1434 604 l 0,21,22
 1428 -32 1428 -32 810 -32 c 0,23,24
 732 -32 732 -32 661 -19 c 128,-1,25
 590 -6 590 -6 509 33 c 128,-1,26
 428 72 428 72 370 136 c 128,-1,27
 312 200 312 200 273 311 c 128,-1,28
 234 422 234 422 234 568 c 0,29,-1
 234 1364 l 0,30,-1
 10 1414 l 0,31,-1
 26 1506 l 0,32,-1
 682 1506 l 0,33,-1
 670 1414 l 0,34,-1
 466 1368 l 0,35,-1
 466 598 l 0,36,37
 466 350 466 350 579 231 c 128,-1,38
 692 112 692 112 888 112 c 0,8,9
EndSplineSet
EndChar

StartChar: Uacute
Encoding: 474 218 218
Width: 1658
Flags: HMW
LayerCount: 2
Fore
SplineSet
1164 2050 m 0,0,1
 1106 1940 1106 1940 1015 1827 c 128,-1,2
 924 1714 924 1714 842 1664 c 0,3,-1
 754 1736 l 0,4,5
 806 1802 806 1802 872 1936 c 128,-1,6
 938 2070 938 2070 966 2152 c 0,7,-1
 1164 2050 l 0,0,1
888 112 m 0,8,9
 992 112 992 112 1068 144 c 128,-1,10
 1144 176 1144 176 1184 222 c 128,-1,11
 1224 268 1224 268 1247 337 c 128,-1,12
 1270 406 1270 406 1276 460 c 128,-1,13
 1282 514 1282 514 1282 582 c 0,14,-1
 1284 1364 l 0,15,-1
 1064 1414 l 0,16,-1
 1076 1506 l 0,17,-1
 1656 1506 l 0,18,-1
 1642 1414 l 0,19,-1
 1440 1368 l 0,20,-1
 1434 604 l 0,21,22
 1428 -32 1428 -32 810 -32 c 0,23,24
 732 -32 732 -32 661 -19 c 128,-1,25
 590 -6 590 -6 509 33 c 128,-1,26
 428 72 428 72 370 136 c 128,-1,27
 312 200 312 200 273 311 c 128,-1,28
 234 422 234 422 234 568 c 0,29,-1
 234 1364 l 0,30,-1
 10 1414 l 0,31,-1
 26 1506 l 0,32,-1
 682 1506 l 0,33,-1
 670 1414 l 0,34,-1
 466 1368 l 0,35,-1
 466 598 l 0,36,37
 466 350 466 350 579 231 c 128,-1,38
 692 112 692 112 888 112 c 0,8,9
EndSplineSet
EndChar

StartChar: Ucircumflex
Encoding: 475 219 219
Width: 1658
Flags: HMW
LayerCount: 2
Fore
SplineSet
666 1664 m 0,0,-1
 562 1722 l 0,1,-1
 772 1976 l 0,2,3
 816 1998 816 1998 850 1998 c 0,4,5
 868 1998 868 1998 876 1996 c 0,6,-1
 1122 1730 l 0,7,-1
 1014 1670 l 0,8,-1
 828 1860 l 0,9,-1
 666 1664 l 0,0,-1
888 112 m 0,10,11
 992 112 992 112 1068 144 c 128,-1,12
 1144 176 1144 176 1184 222 c 128,-1,13
 1224 268 1224 268 1247 337 c 128,-1,14
 1270 406 1270 406 1276 460 c 128,-1,15
 1282 514 1282 514 1282 582 c 0,16,-1
 1284 1364 l 0,17,-1
 1064 1414 l 0,18,-1
 1076 1506 l 0,19,-1
 1656 1506 l 0,20,-1
 1642 1414 l 0,21,-1
 1440 1368 l 0,22,-1
 1434 604 l 0,23,24
 1428 -32 1428 -32 810 -32 c 0,25,26
 732 -32 732 -32 661 -19 c 128,-1,27
 590 -6 590 -6 509 33 c 128,-1,28
 428 72 428 72 370 136 c 128,-1,29
 312 200 312 200 273 311 c 128,-1,30
 234 422 234 422 234 568 c 0,31,-1
 234 1364 l 0,32,-1
 10 1414 l 0,33,-1
 26 1506 l 0,34,-1
 682 1506 l 0,35,-1
 670 1414 l 0,36,-1
 466 1368 l 0,37,-1
 466 598 l 0,38,39
 466 350 466 350 579 231 c 128,-1,40
 692 112 692 112 888 112 c 0,10,11
EndSplineSet
EndChar

StartChar: Udieresis
Encoding: 476 220 220
Width: 1658
Flags: HMW
LayerCount: 2
Fore
SplineSet
1078 1922 m 128,-1,1
 1132 1922 1132 1922 1171 1886 c 128,-1,2
 1210 1850 1210 1850 1210 1798 c 0,3,4
 1210 1742 1210 1742 1171 1703 c 128,-1,5
 1132 1664 1132 1664 1078 1664 c 128,-1,6
 1024 1664 1024 1664 986 1704 c 128,-1,7
 948 1744 948 1744 948 1800 c 0,8,9
 948 1852 948 1852 986 1887 c 128,-1,0
 1024 1922 1024 1922 1078 1922 c 128,-1,1
606 1922 m 128,-1,11
 660 1922 660 1922 699 1886 c 128,-1,12
 738 1850 738 1850 738 1798 c 0,13,14
 738 1742 738 1742 699 1703 c 128,-1,15
 660 1664 660 1664 606 1664 c 128,-1,16
 552 1664 552 1664 514 1704 c 128,-1,17
 476 1744 476 1744 476 1800 c 0,18,19
 476 1852 476 1852 514 1887 c 128,-1,10
 552 1922 552 1922 606 1922 c 128,-1,11
888 112 m 0,20,21
 992 112 992 112 1068 144 c 128,-1,22
 1144 176 1144 176 1184 222 c 128,-1,23
 1224 268 1224 268 1247 337 c 128,-1,24
 1270 406 1270 406 1276 460 c 128,-1,25
 1282 514 1282 514 1282 582 c 0,26,-1
 1284 1364 l 0,27,-1
 1064 1414 l 0,28,-1
 1076 1506 l 0,29,-1
 1656 1506 l 0,30,-1
 1642 1414 l 0,31,-1
 1440 1368 l 0,32,-1
 1434 604 l 0,33,34
 1428 -32 1428 -32 810 -32 c 0,35,36
 732 -32 732 -32 661 -19 c 128,-1,37
 590 -6 590 -6 509 33 c 128,-1,38
 428 72 428 72 370 136 c 128,-1,39
 312 200 312 200 273 311 c 128,-1,40
 234 422 234 422 234 568 c 0,41,-1
 234 1364 l 0,42,-1
 10 1414 l 0,43,-1
 26 1506 l 0,44,-1
 682 1506 l 0,45,-1
 670 1414 l 0,46,-1
 466 1368 l 0,47,-1
 466 598 l 0,48,49
 466 350 466 350 579 231 c 128,-1,50
 692 112 692 112 888 112 c 0,20,21
EndSplineSet
EndChar

StartChar: Yacute
Encoding: 477 221 221
Width: 1466
Flags: HMW
LayerCount: 2
Fore
SplineSet
1072 2050 m 0,0,1
 1014 1940 1014 1940 923 1827 c 128,-1,2
 832 1714 832 1714 750 1664 c 0,3,-1
 662 1736 l 0,4,5
 714 1802 714 1802 780 1936 c 128,-1,6
 846 2070 846 2070 874 2152 c 0,7,-1
 1072 2050 l 0,0,1
866 640 m 0,8,-1
 866 138 l 0,9,-1
 1064 98 l 0,10,-1
 1052 0 l 0,11,-1
 438 0 l 0,12,-1
 450 90 l 0,13,-1
 632 146 l 0,14,-1
 632 612 l 0,15,-1
 204 1364 l 0,16,-1
 38 1414 l 0,17,-1
 54 1506 l 0,18,-1
 668 1506 l 0,19,-1
 654 1414 l 0,20,-1
 462 1368 l 0,21,-1
 798 776 l 0,22,-1
 1118 1364 l 0,23,-1
 896 1414 l 0,24,-1
 908 1506 l 0,25,-1
 1446 1506 l 0,26,-1
 1434 1414 l 0,27,-1
 1284 1368 l 0,28,-1
 866 640 l 0,8,-1
EndSplineSet
EndChar

StartChar: Thorn
Encoding: 478 222 222
Width: 1232
Flags: HMW
LayerCount: 2
Fore
SplineSet
244 144 m 1,0,-1
 244 1364 l 1,1,-1
 24 1414 l 1,2,-1
 36 1506 l 1,3,-1
 694 1506 l 1,4,-1
 682 1414 l 1,5,-1
 476 1368 l 1,6,-1
 476 1216 l 1,7,8
 576 1220 576 1220 626 1220 c 0,9,10
 1232 1220 1232 1220 1232 800 c 0,11,12
 1232 608 1232 608 1075 471 c 128,-1,13
 918 334 918 334 694 334 c 0,14,15
 620 334 620 334 554 342 c 1,16,17
 534 402 534 402 534 444 c 1,18,-1
 596 444 l 2,19,20
 982 444 982 444 982 756 c 0,21,22
 982 900 982 900 888 1001 c 128,-1,23
 794 1102 794 1102 604 1102 c 1,24,-1
 476 1094 l 1,25,-1
 476 146 l 1,26,-1
 762 100 l 1,27,-1
 746 -2 l 1,28,-1
 28 -2 l 1,29,-1
 40 88 l 1,30,-1
 244 144 l 1,0,-1
EndSplineSet
EndChar

StartChar: germandbls
Encoding: 479 223 223
Width: 1420
Flags: HMW
LayerCount: 2
Back
SplineSet
1164 1236 m 0,0,1
 1164 1168 1164 1168 1129 1103 c 128,-1,2
 1094 1038 1094 1038 1052 996 c 128,-1,3
 1010 954 1010 954 975 904 c 128,-1,4
 940 854 940 854 940 814 c 0,2,3
 940 758 940 758 995 712 c 128,-1,4
 1050 666 1050 666 1128 630 c 128,-1,5
 1206 594 1206 594 1284 553 c 128,-1,6
 1362 512 1362 512 1417 442 c 128,-1,7
 1472 372 1472 372 1472 280 c 0,4,5
 1472 148 1472 148 1357 53 c 128,-1,6
 1242 -42 1242 -42 1098 -42 c 0,6,7
 942 -42 942 -42 845 21 c 128,-1,8
 748 84 748 84 748 170 c 0,8,9
 748 228 748 228 798 267 c 128,-1,10
 848 306 848 306 908 310 c 1,10,11
 936 198 936 198 999 138 c 128,-1,12
 1062 78 1062 78 1136 78 c 0,12,13
 1204 78 1204 78 1250 117 c 128,-1,14
 1296 156 1296 156 1296 228 c 0,14,15
 1296 274 1296 274 1242 313 c 128,-1,16
 1188 352 1188 352 1112 386 c 128,-1,17
 1036 420 1036 420 960 460 c 128,-1,18
 884 500 884 500 830 570 c 128,-1,19
 776 640 776 640 776 730 c 0,16,17
 776 786 776 786 826 855 c 128,-1,18
 876 924 876 924 926 1004 c 128,-1,19
 976 1084 976 1084 976 1164 c 0,18,19
 976 1270 976 1270 902 1355 c 128,-1,20
 828 1440 828 1440 728 1440 c 0,20,21
 684 1440 684 1440 638 1427 c 128,-1,22
 592 1414 592 1414 548 1384 c 128,-1,23
 504 1354 504 1354 476 1298 c 128,-1,24
 448 1242 448 1242 448 1166 c 2,22,-1
 448 146 l 1,23,-1
 694 102 l 1,24,-1
 684 0 l 1,25,-1
 48 0 l 1,26,-1
 62 88 l 1,27,-1
 246 140 l 1,28,-1
 246 960 l 1,29,-1
 82 960 l 1,30,-1
 92 1042 l 1,31,-1
 248 1082 l 1,32,33
 264 1268 264 1268 427 1415 c 128,-1,34
 590 1562 590 1562 794 1562 c 0,34,35
 1164 1562 1164 1562 1164 1236 c 0,0,1
EndSplineSet
Fore
SplineSet
1060 1260 m 0,0,1
 1060 1182 1060 1182 984 1064 c 0,2,3
 952 1014 952 1014 876 944 c 0,4,5
 808 880 808 880 808 844 c 0,6,7
 808 788 808 788 863 739 c 128,-1,8
 918 690 918 690 996 650 c 128,-1,9
 1074 610 1074 610 1152 564 c 128,-1,10
 1230 518 1230 518 1285 445 c 128,-1,11
 1340 372 1340 372 1340 280 c 0,12,13
 1340 148 1340 148 1225 53 c 128,-1,14
 1110 -42 1110 -42 966 -42 c 0,15,16
 810 -42 810 -42 708 16 c 128,-1,17
 606 74 606 74 606 160 c 0,18,19
 606 218 606 218 656 257 c 128,-1,20
 706 296 706 296 766 300 c 1,21,22
 794 188 794 188 862 133 c 128,-1,23
 930 78 930 78 1004 78 c 0,24,25
 1072 78 1072 78 1118 117 c 128,-1,26
 1164 156 1164 156 1164 228 c 0,27,28
 1164 274 1164 274 1110 317 c 128,-1,29
 1056 360 1056 360 980 400 c 128,-1,30
 904 440 904 440 828 486 c 128,-1,31
 752 532 752 532 698 606 c 128,-1,32
 644 680 644 680 644 770 c 0,33,34
 644 892 644 892 720 964 c 0,35,36
 872 1104 872 1104 872 1200 c 0,37,38
 872 1272 872 1272 820 1356 c 0,39,40
 766 1440 766 1440 668 1440 c 0,41,42
 574 1440 574 1440 511 1377 c 128,-1,43
 448 1314 448 1314 448 1166 c 2,44,-1
 448 0 l 1,45,-1
 48 0 l 1,46,-1
 62 88 l 1,47,-1
 246 140 l 1,48,-1
 246 960 l 1,49,-1
 82 960 l 1,50,-1
 92 1042 l 1,51,-1
 248 1082 l 1,52,53
 264 1270 264 1270 394 1416 c 128,-1,54
 524 1562 524 1562 694 1562 c 0,55,56
 886 1562 886 1562 976 1476 c 0,57,58
 1060 1394 1060 1394 1060 1260 c 0,0,1
EndSplineSet
EndChar

StartChar: agrave
Encoding: 480 224 224
Width: 1066
Flags: HMW
LayerCount: 2
Fore
SplineSet
214 1600 m 0,0,-1
 412 1702 l 0,1,2
 440 1620 440 1620 506 1486 c 128,-1,3
 572 1352 572 1352 624 1286 c 0,4,-1
 536 1214 l 0,5,6
 454 1264 454 1264 363 1377 c 128,-1,7
 272 1490 272 1490 214 1600 c 0,0,-1
638 508 m 0,8,9
 426 460 426 460 359 407 c 128,-1,10
 292 354 292 354 292 260 c 0,11,12
 292 208 292 208 329 164 c 128,-1,13
 366 120 366 120 428 120 c 0,14,15
 486 120 486 120 544 154 c 128,-1,16
 602 188 602 188 638 228 c 0,17,-1
 638 508 l 0,8,9
850 -22 m 0,18,19
 754 -22 754 -22 708 27 c 128,-1,20
 662 76 662 76 662 140 c 0,21,-1
 662 158 l 0,22,-1
 648 158 l 0,23,24
 618 98 618 98 521 34 c 128,-1,25
 424 -30 424 -30 318 -30 c 0,26,27
 218 -30 218 -30 149 33 c 128,-1,28
 80 96 80 96 80 204 c 0,29,30
 80 500 80 500 638 592 c 0,31,-1
 638 654 l 0,32,33
 638 970 638 970 438 970 c 0,34,35
 358 970 358 970 335 920 c 128,-1,36
 312 870 312 870 296 736 c 0,37,38
 130 736 130 736 130 862 c 0,39,40
 130 924 130 924 197 979 c 128,-1,41
 264 1034 264 1034 357 1063 c 128,-1,42
 450 1092 450 1092 536 1092 c 0,43,44
 696 1092 696 1092 766 1002 c 128,-1,45
 836 912 836 912 836 718 c 0,46,-1
 836 278 l 0,47,48
 836 192 836 192 861 161 c 128,-1,49
 886 130 886 130 970 116 c 0,50,-1
 1030 106 l 0,51,-1
 1016 2 l 0,52,53
 1010 2 1010 2 951 -10 c 128,-1,54
 892 -22 892 -22 850 -22 c 0,18,19
EndSplineSet
EndChar

StartChar: aacute
Encoding: 481 225 225
Width: 1066
Flags: HMW
LayerCount: 2
Fore
SplineSet
858 1600 m 0,0,1
 800 1490 800 1490 709 1377 c 128,-1,2
 618 1264 618 1264 536 1214 c 0,3,-1
 448 1286 l 0,4,5
 500 1352 500 1352 566 1486 c 128,-1,6
 632 1620 632 1620 660 1702 c 0,7,-1
 858 1600 l 0,0,1
638 508 m 0,8,9
 426 460 426 460 359 407 c 128,-1,10
 292 354 292 354 292 260 c 0,11,12
 292 208 292 208 329 164 c 128,-1,13
 366 120 366 120 428 120 c 0,14,15
 486 120 486 120 544 154 c 128,-1,16
 602 188 602 188 638 228 c 0,17,-1
 638 508 l 0,8,9
850 -22 m 0,18,19
 754 -22 754 -22 708 27 c 128,-1,20
 662 76 662 76 662 140 c 0,21,-1
 662 158 l 0,22,-1
 648 158 l 0,23,24
 618 98 618 98 521 34 c 128,-1,25
 424 -30 424 -30 318 -30 c 0,26,27
 218 -30 218 -30 149 33 c 128,-1,28
 80 96 80 96 80 204 c 0,29,30
 80 500 80 500 638 592 c 0,31,-1
 638 654 l 0,32,33
 638 970 638 970 438 970 c 0,34,35
 358 970 358 970 335 920 c 128,-1,36
 312 870 312 870 296 736 c 0,37,38
 130 736 130 736 130 862 c 0,39,40
 130 924 130 924 197 979 c 128,-1,41
 264 1034 264 1034 357 1063 c 128,-1,42
 450 1092 450 1092 536 1092 c 0,43,44
 696 1092 696 1092 766 1002 c 128,-1,45
 836 912 836 912 836 718 c 0,46,-1
 836 278 l 0,47,48
 836 192 836 192 861 161 c 128,-1,49
 886 130 886 130 970 116 c 0,50,-1
 1030 106 l 0,51,-1
 1016 2 l 0,52,53
 1010 2 1010 2 951 -10 c 128,-1,54
 892 -22 892 -22 850 -22 c 0,18,19
EndSplineSet
EndChar

StartChar: acircumflex
Encoding: 482 226 226
Width: 1066
Flags: HMW
LayerCount: 2
Fore
SplineSet
360 1214 m 0,0,-1
 256 1272 l 0,1,-1
 466 1526 l 0,2,3
 510 1548 510 1548 544 1548 c 0,4,5
 562 1548 562 1548 570 1546 c 0,6,-1
 816 1280 l 0,7,-1
 708 1220 l 0,8,-1
 522 1410 l 0,9,-1
 360 1214 l 0,0,-1
638 508 m 0,10,11
 426 460 426 460 359 407 c 128,-1,12
 292 354 292 354 292 260 c 0,13,14
 292 208 292 208 329 164 c 128,-1,15
 366 120 366 120 428 120 c 0,16,17
 486 120 486 120 544 154 c 128,-1,18
 602 188 602 188 638 228 c 0,19,-1
 638 508 l 0,10,11
850 -22 m 0,20,21
 754 -22 754 -22 708 27 c 128,-1,22
 662 76 662 76 662 140 c 0,23,-1
 662 158 l 0,24,-1
 648 158 l 0,25,26
 618 98 618 98 521 34 c 128,-1,27
 424 -30 424 -30 318 -30 c 0,28,29
 218 -30 218 -30 149 33 c 128,-1,30
 80 96 80 96 80 204 c 0,31,32
 80 500 80 500 638 592 c 0,33,-1
 638 654 l 0,34,35
 638 970 638 970 438 970 c 0,36,37
 358 970 358 970 335 920 c 128,-1,38
 312 870 312 870 296 736 c 0,39,40
 130 736 130 736 130 862 c 0,41,42
 130 924 130 924 197 979 c 128,-1,43
 264 1034 264 1034 357 1063 c 128,-1,44
 450 1092 450 1092 536 1092 c 0,45,46
 696 1092 696 1092 766 1002 c 128,-1,47
 836 912 836 912 836 718 c 0,48,-1
 836 278 l 0,49,50
 836 192 836 192 861 161 c 128,-1,51
 886 130 886 130 970 116 c 0,52,-1
 1030 106 l 0,53,-1
 1016 2 l 0,54,55
 1010 2 1010 2 951 -10 c 128,-1,56
 892 -22 892 -22 850 -22 c 0,20,21
EndSplineSet
EndChar

StartChar: atilde
Encoding: 483 227 227
Width: 1066
Flags: HMW
LayerCount: 2
Fore
SplineSet
192 1262 m 0,0,1
 302 1472 302 1472 424 1472 c 0,2,3
 486 1472 486 1472 585 1427 c 128,-1,4
 684 1382 684 1382 720 1382 c 0,5,6
 758 1382 758 1382 806 1456 c 0,7,-1
 882 1430 l 0,8,9
 862 1344 862 1344 788 1279 c 128,-1,10
 714 1214 714 1214 660 1214 c 0,11,12
 608 1214 608 1214 516 1260 c 128,-1,13
 424 1306 424 1306 378 1306 c 0,14,15
 336 1306 336 1306 274 1222 c 0,16,-1
 192 1262 l 0,0,1
638 508 m 0,17,18
 426 460 426 460 359 407 c 128,-1,19
 292 354 292 354 292 260 c 0,20,21
 292 208 292 208 329 164 c 128,-1,22
 366 120 366 120 428 120 c 0,23,24
 486 120 486 120 544 154 c 128,-1,25
 602 188 602 188 638 228 c 0,26,-1
 638 508 l 0,17,18
850 -22 m 0,27,28
 754 -22 754 -22 708 27 c 128,-1,29
 662 76 662 76 662 140 c 0,30,-1
 662 158 l 0,31,-1
 648 158 l 0,32,33
 618 98 618 98 521 34 c 128,-1,34
 424 -30 424 -30 318 -30 c 0,35,36
 218 -30 218 -30 149 33 c 128,-1,37
 80 96 80 96 80 204 c 0,38,39
 80 500 80 500 638 592 c 0,40,-1
 638 654 l 0,41,42
 638 970 638 970 438 970 c 0,43,44
 358 970 358 970 335 920 c 128,-1,45
 312 870 312 870 296 736 c 0,46,47
 130 736 130 736 130 862 c 0,48,49
 130 924 130 924 197 979 c 128,-1,50
 264 1034 264 1034 357 1063 c 128,-1,51
 450 1092 450 1092 536 1092 c 0,52,53
 696 1092 696 1092 766 1002 c 128,-1,54
 836 912 836 912 836 718 c 0,55,-1
 836 278 l 0,56,57
 836 192 836 192 861 161 c 128,-1,58
 886 130 886 130 970 116 c 0,59,-1
 1030 106 l 0,60,-1
 1016 2 l 0,61,62
 1010 2 1010 2 951 -10 c 128,-1,63
 892 -22 892 -22 850 -22 c 0,27,28
EndSplineSet
EndChar

StartChar: adieresis
Encoding: 484 228 228
Width: 1066
Flags: HMW
LayerCount: 2
Fore
SplineSet
770 1472 m 128,-1,1
 824 1472 824 1472 863 1436 c 128,-1,2
 902 1400 902 1400 902 1348 c 0,3,4
 902 1292 902 1292 863 1253 c 128,-1,5
 824 1214 824 1214 770 1214 c 128,-1,6
 716 1214 716 1214 678 1254 c 128,-1,7
 640 1294 640 1294 640 1350 c 0,8,9
 640 1402 640 1402 678 1437 c 128,-1,0
 716 1472 716 1472 770 1472 c 128,-1,1
298 1472 m 128,-1,11
 352 1472 352 1472 391 1436 c 128,-1,12
 430 1400 430 1400 430 1348 c 0,13,14
 430 1292 430 1292 391 1253 c 128,-1,15
 352 1214 352 1214 298 1214 c 128,-1,16
 244 1214 244 1214 206 1254 c 128,-1,17
 168 1294 168 1294 168 1350 c 0,18,19
 168 1402 168 1402 206 1437 c 128,-1,10
 244 1472 244 1472 298 1472 c 128,-1,11
638 508 m 0,20,21
 426 460 426 460 359 407 c 128,-1,22
 292 354 292 354 292 260 c 0,23,24
 292 208 292 208 329 164 c 128,-1,25
 366 120 366 120 428 120 c 0,26,27
 486 120 486 120 544 154 c 128,-1,28
 602 188 602 188 638 228 c 0,29,-1
 638 508 l 0,20,21
850 -22 m 0,30,31
 754 -22 754 -22 708 27 c 128,-1,32
 662 76 662 76 662 140 c 0,33,-1
 662 158 l 0,34,-1
 648 158 l 0,35,36
 618 98 618 98 521 34 c 128,-1,37
 424 -30 424 -30 318 -30 c 0,38,39
 218 -30 218 -30 149 33 c 128,-1,40
 80 96 80 96 80 204 c 0,41,42
 80 500 80 500 638 592 c 0,43,-1
 638 654 l 0,44,45
 638 970 638 970 438 970 c 0,46,47
 358 970 358 970 335 920 c 128,-1,48
 312 870 312 870 296 736 c 0,49,50
 130 736 130 736 130 862 c 0,51,52
 130 924 130 924 197 979 c 128,-1,53
 264 1034 264 1034 357 1063 c 128,-1,54
 450 1092 450 1092 536 1092 c 0,55,56
 696 1092 696 1092 766 1002 c 128,-1,57
 836 912 836 912 836 718 c 0,58,-1
 836 278 l 0,59,60
 836 192 836 192 861 161 c 128,-1,61
 886 130 886 130 970 116 c 0,62,-1
 1030 106 l 0,63,-1
 1016 2 l 0,64,65
 1010 2 1010 2 951 -10 c 128,-1,66
 892 -22 892 -22 850 -22 c 0,30,31
EndSplineSet
EndChar

StartChar: ae
Encoding: 486 230 230
Width: 1528
Flags: HMW
LayerCount: 2
Fore
SplineSet
638 496 m 0,0,1
 428 462 428 462 360 404 c 128,-1,2
 292 346 292 346 292 246 c 0,3,4
 292 102 292 102 428 102 c 0,5,6
 504 102 504 102 571 161 c 128,-1,7
 638 220 638 220 638 294 c 0,8,-1
 638 496 l 0,0,1
836 614 m 0,9,-1
 1216 658 l 0,10,11
 1226 692 1226 692 1226 744 c 0,12,13
 1226 970 1226 970 1056 970 c 0,14,15
 976 970 976 970 910 875 c 128,-1,16
 844 780 844 780 836 614 c 0,9,-1
694 212 m 0,17,18
 648 110 648 110 545 40 c 128,-1,19
 442 -30 442 -30 318 -30 c 0,20,21
 216 -30 216 -30 148 27 c 128,-1,22
 80 84 80 84 80 190 c 0,23,24
 80 334 80 334 204 432 c 128,-1,25
 328 530 328 530 638 586 c 0,26,-1
 638 654 l 0,27,28
 638 970 638 970 438 970 c 0,29,30
 358 970 358 970 335 920 c 128,-1,31
 312 870 312 870 296 736 c 0,32,33
 130 736 130 736 130 862 c 0,34,35
 130 924 130 924 197 979 c 128,-1,36
 264 1034 264 1034 357 1063 c 128,-1,37
 450 1092 450 1092 536 1092 c 0,38,39
 730 1092 730 1092 780 940 c 0,40,41
 928 1088 928 1088 1116 1088 c 0,42,43
 1256 1088 1256 1088 1348 988 c 128,-1,44
 1440 888 1440 888 1440 704 c 0,45,46
 1440 632 1440 632 1418 540 c 0,47,-1
 836 516 l 0,48,49
 844 352 844 352 930 228 c 128,-1,50
 1016 104 1016 104 1172 104 c 0,51,52
 1292 104 1292 104 1448 188 c 0,53,-1
 1472 126 l 0,54,55
 1316 -36 1316 -36 1074 -36 c 0,56,57
 968 -36 968 -36 871 16 c 128,-1,58
 774 68 774 68 710 168 c 0,59,60
 700 184 700 184 694 212 c 0,17,18
EndSplineSet
EndChar

StartChar: ccedilla
Encoding: 487 231 231
Width: 972
Flags: HMW
LayerCount: 2
Fore
SplineSet
608 -88 m 0,0,1
 608 -112 608 -112 635 -140 c 128,-1,2
 662 -168 662 -168 689 -201 c 128,-1,3
 716 -234 716 -234 716 -270 c 0,4,5
 716 -394 716 -394 470 -468 c 0,6,-1
 446 -396 l 0,7,8
 498 -378 498 -378 524 -351 c 128,-1,9
 550 -324 550 -324 550 -296 c 0,10,11
 550 -274 550 -274 506 -229 c 128,-1,12
 462 -184 462 -184 462 -162 c 0,13,14
 462 -116 462 -116 538 -36 c 0,15,16
 342 -26 342 -26 222 130 c 128,-1,17
 102 286 102 286 102 504 c 0,18,19
 102 764 102 764 256 927 c 128,-1,20
 410 1090 410 1090 616 1090 c 0,21,22
 758 1090 758 1090 832 1036 c 128,-1,23
 906 982 906 982 906 904 c 0,24,25
 906 790 906 790 754 778 c 0,26,27
 750 802 750 802 738 831 c 128,-1,28
 726 860 726 860 705 895 c 128,-1,29
 684 930 684 930 645 953 c 128,-1,30
 606 976 606 976 558 976 c 0,31,32
 450 976 450 976 383 877 c 128,-1,33
 316 778 316 778 316 614 c 0,34,35
 316 502 316 502 348 390 c 128,-1,36
 380 278 380 278 462 189 c 128,-1,37
 544 100 544 100 662 100 c 0,38,39
 720 100 720 100 773 116 c 128,-1,40
 826 132 826 132 850 146 c 128,-1,41
 874 160 874 160 918 190 c 0,42,43
 930 168 930 168 946 120 c 0,44,45
 820 -12 820 -12 640 -32 c 0,46,47
 608 -68 608 -68 608 -88 c 0,0,1
EndSplineSet
EndChar

StartChar: egrave
Encoding: 488 232 232
Width: 1010
Flags: HMW
LayerCount: 2
Fore
SplineSet
250 1600 m 0,0,-1
 448 1702 l 0,1,2
 476 1620 476 1620 542 1486 c 128,-1,3
 608 1352 608 1352 660 1286 c 0,4,-1
 572 1214 l 0,5,6
 490 1264 490 1264 399 1377 c 128,-1,7
 308 1490 308 1490 250 1600 c 0,0,-1
876 546 m 0,8,-1
 290 540 l 0,9,10
 298 376 298 376 385 245 c 128,-1,11
 472 114 472 114 628 114 c 0,12,13
 704 114 704 114 761 127 c 128,-1,14
 818 140 818 140 904 186 c 0,15,-1
 928 126 l 0,16,17
 772 -36 772 -36 530 -36 c 0,18,19
 344 -36 344 -36 209 111 c 128,-1,20
 74 258 74 258 74 518 c 0,21,22
 74 776 74 776 228 932 c 128,-1,23
 382 1088 382 1088 572 1088 c 0,24,25
 712 1088 712 1088 804 988 c 128,-1,26
 896 888 896 888 896 704 c 0,27,28
 896 630 896 630 876 546 c 0,8,-1
292 638 m 0,29,-1
 672 664 l 0,30,31
 680 690 680 690 680 744 c 0,32,33
 680 970 680 970 512 970 c 0,34,35
 430 970 430 970 365 886 c 128,-1,36
 300 802 300 802 292 638 c 0,29,-1
EndSplineSet
EndChar

StartChar: eacute
Encoding: 489 233 233
Width: 1010
Flags: HMW
LayerCount: 2
Fore
SplineSet
894 1600 m 0,0,1
 836 1490 836 1490 745 1377 c 128,-1,2
 654 1264 654 1264 572 1214 c 0,3,-1
 484 1286 l 0,4,5
 536 1352 536 1352 602 1486 c 128,-1,6
 668 1620 668 1620 696 1702 c 0,7,-1
 894 1600 l 0,0,1
876 546 m 0,8,-1
 290 540 l 0,9,10
 298 376 298 376 385 245 c 128,-1,11
 472 114 472 114 628 114 c 0,12,13
 704 114 704 114 761 127 c 128,-1,14
 818 140 818 140 904 186 c 0,15,-1
 928 126 l 0,16,17
 772 -36 772 -36 530 -36 c 0,18,19
 344 -36 344 -36 209 111 c 128,-1,20
 74 258 74 258 74 518 c 0,21,22
 74 776 74 776 228 932 c 128,-1,23
 382 1088 382 1088 572 1088 c 0,24,25
 712 1088 712 1088 804 988 c 128,-1,26
 896 888 896 888 896 704 c 0,27,28
 896 630 896 630 876 546 c 0,8,-1
292 638 m 0,29,-1
 672 664 l 0,30,31
 680 690 680 690 680 744 c 0,32,33
 680 970 680 970 512 970 c 0,34,35
 430 970 430 970 365 886 c 128,-1,36
 300 802 300 802 292 638 c 0,29,-1
EndSplineSet
EndChar

StartChar: ecircumflex
Encoding: 490 234 234
Width: 1010
Flags: HMW
LayerCount: 2
Fore
SplineSet
378 1214 m 4,0,-1
 274 1272 l 4,1,-1
 484 1526 l 4,2,3
 528 1548 528 1548 562 1548 c 4,4,5
 580 1548 580 1548 588 1546 c 4,6,-1
 834 1280 l 4,7,-1
 726 1220 l 4,8,-1
 540 1410 l 4,9,-1
 378 1214 l 4,0,-1
876 546 m 0,10,-1
 290 540 l 0,11,12
 298 376 298 376 385 245 c 128,-1,13
 472 114 472 114 628 114 c 0,14,15
 704 114 704 114 761 127 c 128,-1,16
 818 140 818 140 904 186 c 0,17,-1
 928 126 l 0,18,19
 772 -36 772 -36 530 -36 c 0,20,21
 344 -36 344 -36 209 111 c 128,-1,22
 74 258 74 258 74 518 c 0,23,24
 74 776 74 776 228 932 c 128,-1,25
 382 1088 382 1088 572 1088 c 0,26,27
 712 1088 712 1088 804 988 c 128,-1,28
 896 888 896 888 896 704 c 0,29,30
 896 630 896 630 876 546 c 0,10,-1
292 638 m 0,31,-1
 672 664 l 0,32,33
 680 690 680 690 680 744 c 0,34,35
 680 970 680 970 512 970 c 0,36,37
 430 970 430 970 365 886 c 128,-1,38
 300 802 300 802 292 638 c 0,31,-1
EndSplineSet
EndChar

StartChar: edieresis
Encoding: 491 235 235
Width: 1010
Flags: HMW
LayerCount: 2
Fore
SplineSet
782 1472 m 132,-1,1
 836 1472 836 1472 875 1436 c 132,-1,2
 914 1400 914 1400 914 1348 c 4,3,4
 914 1292 914 1292 875 1253 c 132,-1,5
 836 1214 836 1214 782 1214 c 132,-1,6
 728 1214 728 1214 690 1254 c 132,-1,7
 652 1294 652 1294 652 1350 c 4,8,9
 652 1402 652 1402 690 1437 c 132,-1,0
 728 1472 728 1472 782 1472 c 132,-1,1
310 1472 m 132,-1,11
 364 1472 364 1472 403 1436 c 132,-1,12
 442 1400 442 1400 442 1348 c 4,13,14
 442 1292 442 1292 403 1253 c 132,-1,15
 364 1214 364 1214 310 1214 c 132,-1,16
 256 1214 256 1214 218 1254 c 132,-1,17
 180 1294 180 1294 180 1350 c 4,18,19
 180 1402 180 1402 218 1437 c 132,-1,10
 256 1472 256 1472 310 1472 c 132,-1,11
876 546 m 0,20,-1
 290 540 l 0,21,22
 298 376 298 376 385 245 c 128,-1,23
 472 114 472 114 628 114 c 0,24,25
 704 114 704 114 761 127 c 128,-1,26
 818 140 818 140 904 186 c 0,27,-1
 928 126 l 0,28,29
 772 -36 772 -36 530 -36 c 0,30,31
 344 -36 344 -36 209 111 c 128,-1,32
 74 258 74 258 74 518 c 0,33,34
 74 776 74 776 228 932 c 128,-1,35
 382 1088 382 1088 572 1088 c 0,36,37
 712 1088 712 1088 804 988 c 128,-1,38
 896 888 896 888 896 704 c 0,39,40
 896 630 896 630 876 546 c 0,20,-1
292 638 m 0,41,-1
 672 664 l 0,42,43
 680 690 680 690 680 744 c 0,44,45
 680 970 680 970 512 970 c 0,46,47
 430 970 430 970 365 886 c 128,-1,48
 300 802 300 802 292 638 c 0,41,-1
EndSplineSet
EndChar

StartChar: igrave
Encoding: 492 236 236
Width: 694
Flags: HMW
LayerCount: 2
Fore
SplineSet
62 1600 m 4,0,-1
 260 1702 l 4,1,2
 288 1620 288 1620 354 1486 c 132,-1,3
 420 1352 420 1352 472 1286 c 4,4,-1
 384 1214 l 4,5,6
 302 1264 302 1264 211 1377 c 132,-1,7
 120 1490 120 1490 62 1600 c 4,0,-1
74 96 m 0,8,-1
 258 140 l 0,9,-1
 258 894 l 0,10,-1
 74 960 l 0,11,-1
 90 1052 l 0,12,-1
 430 1080 l 0,13,-1
 460 1050 l 0,14,-1
 460 140 l 0,15,-1
 654 98 l 0,16,-1
 640 0 l 0,17,-1
 60 0 l 0,18,-1
 74 96 l 0,8,-1
EndSplineSet
EndChar

StartChar: iacute
Encoding: 493 237 237
Width: 694
Flags: HMW
LayerCount: 2
Fore
SplineSet
644 1600 m 4,0,1
 586 1490 586 1490 495 1377 c 132,-1,2
 404 1264 404 1264 322 1214 c 4,3,-1
 234 1286 l 4,4,5
 286 1352 286 1352 352 1486 c 132,-1,6
 418 1620 418 1620 446 1702 c 4,7,-1
 644 1600 l 4,0,1
74 96 m 0,8,-1
 258 140 l 0,9,-1
 258 894 l 0,10,-1
 74 960 l 0,11,-1
 90 1052 l 0,12,-1
 430 1080 l 0,13,-1
 460 1050 l 0,14,-1
 460 140 l 0,15,-1
 654 98 l 0,16,-1
 640 0 l 0,17,-1
 60 0 l 0,18,-1
 74 96 l 0,8,-1
EndSplineSet
EndChar

StartChar: icircumflex
Encoding: 494 238 238
Width: 694
Flags: HMW
LayerCount: 2
Fore
SplineSet
182 1214 m 0,0,-1
 78 1272 l 0,1,-1
 288 1526 l 0,2,3
 332 1548 332 1548 366 1548 c 0,4,5
 384 1548 384 1548 392 1546 c 0,6,-1
 638 1280 l 0,7,-1
 530 1220 l 0,8,-1
 344 1410 l 0,9,-1
 182 1214 l 0,0,-1
74 96 m 0,10,-1
 258 140 l 0,11,-1
 258 894 l 0,12,-1
 74 960 l 0,13,-1
 90 1052 l 0,14,-1
 430 1080 l 0,15,-1
 460 1050 l 0,16,-1
 460 140 l 0,17,-1
 654 98 l 0,18,-1
 640 0 l 0,19,-1
 60 0 l 0,20,-1
 74 96 l 0,10,-1
EndSplineSet
EndChar

StartChar: idieresis
Encoding: 495 239 239
Width: 694
Flags: HMW
LayerCount: 2
Fore
SplineSet
570 1472 m 132,-1,1
 624 1472 624 1472 663 1436 c 132,-1,2
 702 1400 702 1400 702 1348 c 4,3,4
 702 1292 702 1292 663 1253 c 132,-1,5
 624 1214 624 1214 570 1214 c 132,-1,6
 516 1214 516 1214 478 1254 c 132,-1,7
 440 1294 440 1294 440 1350 c 4,8,9
 440 1402 440 1402 478 1437 c 132,-1,0
 516 1472 516 1472 570 1472 c 132,-1,1
98 1472 m 132,-1,11
 152 1472 152 1472 191 1436 c 132,-1,12
 230 1400 230 1400 230 1348 c 4,13,14
 230 1292 230 1292 191 1253 c 132,-1,15
 152 1214 152 1214 98 1214 c 132,-1,16
 44 1214 44 1214 6 1254 c 132,-1,17
 -32 1294 -32 1294 -32 1350 c 4,18,19
 -32 1402 -32 1402 6 1437 c 132,-1,10
 44 1472 44 1472 98 1472 c 132,-1,11
74 96 m 0,20,-1
 258 140 l 0,21,-1
 258 894 l 0,22,-1
 74 960 l 0,23,-1
 90 1052 l 0,24,-1
 430 1080 l 0,25,-1
 460 1050 l 0,26,-1
 460 140 l 0,27,-1
 654 98 l 0,28,-1
 640 0 l 0,29,-1
 60 0 l 0,30,-1
 74 96 l 0,20,-1
EndSplineSet
EndChar

StartChar: eth
Encoding: 496 240 240
Width: 1156
Flags: HMW
LayerCount: 2
Fore
SplineSet
1056 564 m 0,0,1
 1056 292 1056 292 918 130 c 128,-1,2
 780 -32 780 -32 578 -32 c 0,3,4
 342 -32 342 -32 221 136 c 128,-1,5
 100 304 100 304 100 546 c 0,6,7
 100 752 100 752 232 928 c 0,8,9
 350 1082 350 1082 576 1082 c 0,10,11
 626 1082 626 1082 692 1052 c 0,12,13
 758 1024 758 1024 782 964 c 1,14,-1
 790 966 l 1,15,16
 748 1148 748 1148 638 1298 c 1,17,-1
 448 1260 l 1,18,-1
 408 1360 l 1,19,-1
 580 1400 l 1,20,21
 520 1508 520 1508 464 1556 c 1,22,-1
 572 1594 l 1,23,24
 656 1556 656 1556 750 1438 c 1,25,-1
 932 1474 l 1,26,-1
 968 1372 l 1,27,-1
 814 1340 l 1,28,29
 1056 1018 1056 1018 1056 564 c 0,0,1
316 604 m 1,30,31
 318 360 318 360 398 223 c 128,-1,32
 478 86 478 86 606 86 c 0,33,34
 740 86 740 86 793 195 c 128,-1,35
 846 304 846 304 846 514 c 0,36,37
 846 704 846 704 784 820 c 0,38,39
 706 970 706 970 560 970 c 27,40,41
 316 970 316 970 316 604 c 1,30,31
EndSplineSet
EndChar

StartChar: ntilde
Encoding: 497 241 241
Width: 1316
Flags: HMW
LayerCount: 2
Fore
SplineSet
324 1262 m 0,0,1
 434 1472 434 1472 556 1472 c 0,2,3
 618 1472 618 1472 717 1427 c 128,-1,4
 816 1382 816 1382 852 1382 c 0,5,6
 890 1382 890 1382 938 1456 c 0,7,-1
 1014 1430 l 0,8,9
 994 1344 994 1344 920 1279 c 128,-1,10
 846 1214 846 1214 792 1214 c 0,11,12
 740 1214 740 1214 648 1260 c 128,-1,13
 556 1306 556 1306 510 1306 c 0,14,15
 468 1306 468 1306 406 1222 c 0,16,-1
 324 1262 l 0,0,1
1106 746 m 0,17,-1
 1106 138 l 0,18,-1
 1280 96 l 0,19,-1
 1268 0 l 0,20,-1
 722 0 l 0,21,-1
 736 88 l 0,22,-1
 902 138 l 0,23,-1
 902 698 l 0,24,25
 902 810 902 810 845 866 c 128,-1,26
 788 922 788 922 692 922 c 0,27,28
 548 922 548 922 454 818 c 0,29,-1
 454 138 l 0,30,-1
 634 96 l 0,31,-1
 618 0 l 0,32,-1
 56 0 l 0,33,-1
 68 88 l 0,34,-1
 250 138 l 0,35,-1
 250 874 l 0,36,-1
 64 936 l 0,37,-1
 76 1028 l 0,38,-1
 436 1076 l 0,39,-1
 458 1052 l 0,40,-1
 436 898 l 0,41,-1
 448 898 l 0,42,43
 516 980 516 980 612 1034 c 128,-1,44
 708 1088 708 1088 814 1088 c 0,45,46
 956 1088 956 1088 1031 999 c 128,-1,47
 1106 910 1106 910 1106 746 c 0,17,-1
EndSplineSet
EndChar

StartChar: ograve
Encoding: 498 242 242
Width: 1160
Flags: HMW
LayerCount: 2
Fore
SplineSet
282 1600 m 0,0,-1
 480 1702 l 0,1,2
 508 1620 508 1620 574 1486 c 128,-1,3
 640 1352 640 1352 692 1286 c 0,4,-1
 604 1214 l 0,5,6
 522 1264 522 1264 431 1377 c 128,-1,7
 340 1490 340 1490 282 1600 c 0,0,-1
292 602 m 0,8,9
 292 468 292 468 322 356 c 128,-1,10
 352 244 352 244 428 165 c 128,-1,11
 504 86 504 86 616 86 c 0,12,13
 736 86 736 86 801 190 c 128,-1,14
 866 294 866 294 866 434 c 0,15,16
 866 530 866 530 849 620 c 128,-1,17
 832 710 832 710 796 790 c 128,-1,18
 760 870 760 870 697 918 c 128,-1,19
 634 966 634 966 552 966 c 0,20,21
 424 966 424 966 358 861 c 128,-1,22
 292 756 292 756 292 602 c 0,8,9
1082 534 m 0,23,24
 1082 284 1082 284 936 126 c 128,-1,25
 790 -32 790 -32 574 -32 c 0,26,27
 340 -32 340 -32 208 121 c 128,-1,28
 76 274 76 274 76 516 c 0,29,30
 76 780 76 780 233 937 c 128,-1,31
 390 1094 390 1094 604 1094 c 0,32,33
 826 1094 826 1094 954 941 c 128,-1,34
 1082 788 1082 788 1082 534 c 0,23,24
EndSplineSet
EndChar

StartChar: oacute
Encoding: 499 243 243
Width: 1160
Flags: HMW
LayerCount: 2
Fore
SplineSet
926 1600 m 0,0,1
 868 1490 868 1490 777 1377 c 128,-1,2
 686 1264 686 1264 604 1214 c 0,3,-1
 516 1286 l 0,4,5
 568 1352 568 1352 634 1486 c 128,-1,6
 700 1620 700 1620 728 1702 c 0,7,-1
 926 1600 l 0,0,1
292 602 m 0,8,9
 292 468 292 468 322 356 c 128,-1,10
 352 244 352 244 428 165 c 128,-1,11
 504 86 504 86 616 86 c 0,12,13
 736 86 736 86 801 190 c 128,-1,14
 866 294 866 294 866 434 c 0,15,16
 866 530 866 530 849 620 c 128,-1,17
 832 710 832 710 796 790 c 128,-1,18
 760 870 760 870 697 918 c 128,-1,19
 634 966 634 966 552 966 c 0,20,21
 424 966 424 966 358 861 c 128,-1,22
 292 756 292 756 292 602 c 0,8,9
1082 534 m 0,23,24
 1082 284 1082 284 936 126 c 128,-1,25
 790 -32 790 -32 574 -32 c 0,26,27
 340 -32 340 -32 208 121 c 128,-1,28
 76 274 76 274 76 516 c 0,29,30
 76 780 76 780 233 937 c 128,-1,31
 390 1094 390 1094 604 1094 c 0,32,33
 826 1094 826 1094 954 941 c 128,-1,34
 1082 788 1082 788 1082 534 c 0,23,24
EndSplineSet
EndChar

StartChar: ocircumflex
Encoding: 500 244 244
Width: 1160
Flags: HMW
LayerCount: 2
Fore
SplineSet
428 1214 m 0,0,-1
 324 1272 l 0,1,-1
 534 1526 l 0,2,3
 578 1548 578 1548 612 1548 c 0,4,5
 630 1548 630 1548 638 1546 c 0,6,-1
 884 1280 l 0,7,-1
 776 1220 l 0,8,-1
 590 1410 l 0,9,-1
 428 1214 l 0,0,-1
292 602 m 0,10,11
 292 468 292 468 322 356 c 128,-1,12
 352 244 352 244 428 165 c 128,-1,13
 504 86 504 86 616 86 c 0,14,15
 736 86 736 86 801 190 c 128,-1,16
 866 294 866 294 866 434 c 0,17,18
 866 530 866 530 849 620 c 128,-1,19
 832 710 832 710 796 790 c 128,-1,20
 760 870 760 870 697 918 c 128,-1,21
 634 966 634 966 552 966 c 0,22,23
 424 966 424 966 358 861 c 128,-1,24
 292 756 292 756 292 602 c 0,10,11
1082 534 m 0,25,26
 1082 284 1082 284 936 126 c 128,-1,27
 790 -32 790 -32 574 -32 c 0,28,29
 340 -32 340 -32 208 121 c 128,-1,30
 76 274 76 274 76 516 c 0,31,32
 76 780 76 780 233 937 c 128,-1,33
 390 1094 390 1094 604 1094 c 0,34,35
 826 1094 826 1094 954 941 c 128,-1,36
 1082 788 1082 788 1082 534 c 0,25,26
EndSplineSet
EndChar

StartChar: otilde
Encoding: 501 245 245
Width: 1160
Flags: HMW
LayerCount: 2
Fore
SplineSet
260 1262 m 0,0,1
 370 1472 370 1472 492 1472 c 0,2,3
 554 1472 554 1472 653 1427 c 128,-1,4
 752 1382 752 1382 788 1382 c 0,5,6
 826 1382 826 1382 874 1456 c 0,7,-1
 950 1430 l 0,8,9
 930 1344 930 1344 856 1279 c 128,-1,10
 782 1214 782 1214 728 1214 c 0,11,12
 676 1214 676 1214 584 1260 c 128,-1,13
 492 1306 492 1306 446 1306 c 0,14,15
 404 1306 404 1306 342 1222 c 0,16,-1
 260 1262 l 0,0,1
292 602 m 0,17,18
 292 468 292 468 322 356 c 128,-1,19
 352 244 352 244 428 165 c 128,-1,20
 504 86 504 86 616 86 c 0,21,22
 736 86 736 86 801 190 c 128,-1,23
 866 294 866 294 866 434 c 0,24,25
 866 530 866 530 849 620 c 128,-1,26
 832 710 832 710 796 790 c 128,-1,27
 760 870 760 870 697 918 c 128,-1,28
 634 966 634 966 552 966 c 0,29,30
 424 966 424 966 358 861 c 128,-1,31
 292 756 292 756 292 602 c 0,17,18
1082 534 m 0,32,33
 1082 284 1082 284 936 126 c 128,-1,34
 790 -32 790 -32 574 -32 c 0,35,36
 340 -32 340 -32 208 121 c 128,-1,37
 76 274 76 274 76 516 c 0,38,39
 76 780 76 780 233 937 c 128,-1,40
 390 1094 390 1094 604 1094 c 0,41,42
 826 1094 826 1094 954 941 c 128,-1,43
 1082 788 1082 788 1082 534 c 0,32,33
EndSplineSet
EndChar

StartChar: odieresis
Encoding: 502 246 246
Width: 1160
Flags: HMW
LayerCount: 2
Fore
SplineSet
838 1472 m 128,-1,1
 892 1472 892 1472 931 1436 c 128,-1,2
 970 1400 970 1400 970 1348 c 0,3,4
 970 1292 970 1292 931 1253 c 128,-1,5
 892 1214 892 1214 838 1214 c 128,-1,6
 784 1214 784 1214 746 1254 c 128,-1,7
 708 1294 708 1294 708 1350 c 0,8,9
 708 1402 708 1402 746 1437 c 128,-1,0
 784 1472 784 1472 838 1472 c 128,-1,1
366 1472 m 128,-1,11
 420 1472 420 1472 459 1436 c 128,-1,12
 498 1400 498 1400 498 1348 c 0,13,14
 498 1292 498 1292 459 1253 c 128,-1,15
 420 1214 420 1214 366 1214 c 128,-1,16
 312 1214 312 1214 274 1254 c 128,-1,17
 236 1294 236 1294 236 1350 c 0,18,19
 236 1402 236 1402 274 1437 c 128,-1,10
 312 1472 312 1472 366 1472 c 128,-1,11
292 602 m 0,20,21
 292 468 292 468 322 356 c 128,-1,22
 352 244 352 244 428 165 c 128,-1,23
 504 86 504 86 616 86 c 0,24,25
 736 86 736 86 801 190 c 128,-1,26
 866 294 866 294 866 434 c 0,27,28
 866 530 866 530 849 620 c 128,-1,29
 832 710 832 710 796 790 c 128,-1,30
 760 870 760 870 697 918 c 128,-1,31
 634 966 634 966 552 966 c 0,32,33
 424 966 424 966 358 861 c 128,-1,34
 292 756 292 756 292 602 c 0,20,21
1082 534 m 0,35,36
 1082 284 1082 284 936 126 c 128,-1,37
 790 -32 790 -32 574 -32 c 0,38,39
 340 -32 340 -32 208 121 c 128,-1,40
 76 274 76 274 76 516 c 0,41,42
 76 780 76 780 233 937 c 128,-1,43
 390 1094 390 1094 604 1094 c 0,44,45
 826 1094 826 1094 954 941 c 128,-1,46
 1082 788 1082 788 1082 534 c 0,35,36
EndSplineSet
EndChar

StartChar: divide
Encoding: 503 247 247
Width: 926
Flags: HMW
LayerCount: 2
Fore
SplineSet
454 1102 m 128,-1,1
 502 1102 502 1102 536 1070 c 128,-1,2
 570 1038 570 1038 570 990 c 0,3,4
 570 940 570 940 536 906 c 128,-1,5
 502 872 502 872 454 872 c 128,-1,6
 406 872 406 872 372 907 c 128,-1,7
 338 942 338 942 338 992 c 0,8,9
 338 1038 338 1038 372 1070 c 128,-1,0
 406 1102 406 1102 454 1102 c 128,-1,1
454 456 m 128,-1,11
 502 456 502 456 536 424 c 128,-1,12
 570 392 570 392 570 346 c 0,13,14
 570 296 570 296 536 261 c 128,-1,15
 502 226 502 226 454 226 c 128,-1,16
 406 226 406 226 372 262 c 128,-1,17
 338 298 338 298 338 346 c 0,18,19
 338 392 338 392 372 424 c 128,-1,10
 406 456 406 456 454 456 c 128,-1,11
48 732 m 1,20,-1
 892 732 l 1,21,-1
 878 604 l 1,22,-1
 34 604 l 1,23,-1
 48 732 l 1,20,-1
EndSplineSet
EndChar

StartChar: oslash
Encoding: 504 248 248
Width: 1160
Flags: HMW
LayerCount: 2
Fore
SplineSet
1058 534 m 0,0,1
 1058 282 1058 282 921 125 c 128,-1,2
 784 -32 784 -32 572 -32 c 0,3,4
 484 -32 484 -32 400 -6 c 0,5,-1
 368 -76 l 0,6,-1
 212 -86 l 0,7,-1
 278 64 l 0,8,9
 102 208 102 208 102 516 c 0,10,11
 102 786 102 786 247 939 c 128,-1,12
 392 1092 392 1092 602 1092 c 0,13,14
 660 1092 660 1092 726 1078 c 0,15,-1
 754 1142 l 0,16,-1
 914 1152 l 0,17,-1
 858 1018 l 0,18,19
 1058 878 1058 878 1058 534 c 0,0,1
664 942 m 0,20,21
 614 970 614 970 558 970 c 0,22,23
 444 970 444 970 383 869 c 128,-1,24
 322 768 322 768 322 574 c 0,25,26
 322 388 322 388 378 264 c 0,27,-1
 664 942 l 0,20,21
768 822 m 0,28,-1
 476 132 l 0,29,30
 534 86 534 86 602 86 c 0,31,32
 836 86 836 86 836 492 c 0,33,34
 836 692 836 692 768 822 c 0,28,-1
EndSplineSet
EndChar

StartChar: ugrave
Encoding: 505 249 249
Width: 1248
Flags: HMW
LayerCount: 2
Fore
SplineSet
356 1600 m 0,0,-1
 554 1702 l 0,1,2
 582 1620 582 1620 648 1486 c 128,-1,3
 714 1352 714 1352 766 1286 c 0,4,-1
 678 1214 l 0,5,6
 596 1264 596 1264 505 1377 c 128,-1,7
 414 1490 414 1490 356 1600 c 0,0,-1
826 158 m 0,8,-1
 812 158 l 0,9,10
 686 -28 686 -28 464 -28 c 0,11,12
 194 -28 194 -28 194 324 c 0,13,-1
 194 882 l 0,14,-1
 28 948 l 0,15,-1
 44 1044 l 0,16,-1
 370 1070 l 0,17,-1
 398 1040 l 0,18,-1
 398 384 l 0,19,20
 398 138 398 138 586 138 c 0,21,22
 722 138 722 138 812 232 c 0,23,-1
 812 876 l 0,24,-1
 618 926 l 0,25,-1
 630 1036 l 0,26,-1
 986 1070 l 0,27,-1
 1012 1040 l 0,28,-1
 1012 260 l 0,29,30
 1012 214 1012 214 1019 186 c 128,-1,31
 1026 158 1026 158 1050 142 c 128,-1,32
 1074 126 1074 126 1088 122 c 128,-1,33
 1102 118 1102 118 1144 108 c 0,34,-1
 1198 96 l 0,35,-1
 1188 -6 l 0,36,37
 1096 -28 1096 -28 1004 -28 c 0,38,39
 916 -28 916 -28 871 21 c 128,-1,40
 826 70 826 70 826 148 c 0,41,-1
 826 158 l 0,8,-1
EndSplineSet
EndChar

StartChar: uacute
Encoding: 506 250 250
Width: 1248
Flags: HMW
LayerCount: 2
Fore
SplineSet
890 1600 m 4,0,1
 832 1490 832 1490 741 1377 c 132,-1,2
 650 1264 650 1264 568 1214 c 4,3,-1
 480 1286 l 4,4,5
 532 1352 532 1352 598 1486 c 132,-1,6
 664 1620 664 1620 692 1702 c 4,7,-1
 890 1600 l 4,0,1
826 158 m 0,8,-1
 812 158 l 0,9,10
 686 -28 686 -28 464 -28 c 0,11,12
 194 -28 194 -28 194 324 c 0,13,-1
 194 882 l 0,14,-1
 28 948 l 0,15,-1
 44 1044 l 0,16,-1
 370 1070 l 0,17,-1
 398 1040 l 0,18,-1
 398 384 l 0,19,20
 398 138 398 138 586 138 c 0,21,22
 722 138 722 138 812 232 c 0,23,-1
 812 876 l 0,24,-1
 618 926 l 0,25,-1
 630 1036 l 0,26,-1
 986 1070 l 0,27,-1
 1012 1040 l 0,28,-1
 1012 260 l 0,29,30
 1012 214 1012 214 1019 186 c 128,-1,31
 1026 158 1026 158 1050 142 c 128,-1,32
 1074 126 1074 126 1088 122 c 128,-1,33
 1102 118 1102 118 1144 108 c 0,34,-1
 1198 96 l 0,35,-1
 1188 -6 l 0,36,37
 1096 -28 1096 -28 1004 -28 c 0,38,39
 916 -28 916 -28 871 21 c 128,-1,40
 826 70 826 70 826 148 c 0,41,-1
 826 158 l 0,8,-1
EndSplineSet
EndChar

StartChar: ucircumflex
Encoding: 507 251 251
Width: 1248
Flags: HMW
LayerCount: 2
Fore
SplineSet
390 1214 m 4,0,-1
 286 1272 l 4,1,-1
 496 1526 l 4,2,3
 540 1548 540 1548 574 1548 c 4,4,5
 592 1548 592 1548 600 1546 c 4,6,-1
 846 1280 l 4,7,-1
 738 1220 l 4,8,-1
 552 1410 l 4,9,-1
 390 1214 l 4,0,-1
826 158 m 0,10,-1
 812 158 l 0,11,12
 686 -28 686 -28 464 -28 c 0,13,14
 194 -28 194 -28 194 324 c 0,15,-1
 194 882 l 0,16,-1
 28 948 l 0,17,-1
 44 1044 l 0,18,-1
 370 1070 l 0,19,-1
 398 1040 l 0,20,-1
 398 384 l 0,21,22
 398 138 398 138 586 138 c 0,23,24
 722 138 722 138 812 232 c 0,25,-1
 812 876 l 0,26,-1
 618 926 l 0,27,-1
 630 1036 l 0,28,-1
 986 1070 l 0,29,-1
 1012 1040 l 0,30,-1
 1012 260 l 0,31,32
 1012 214 1012 214 1019 186 c 128,-1,33
 1026 158 1026 158 1050 142 c 128,-1,34
 1074 126 1074 126 1088 122 c 128,-1,35
 1102 118 1102 118 1144 108 c 0,36,-1
 1198 96 l 0,37,-1
 1188 -6 l 0,38,39
 1096 -28 1096 -28 1004 -28 c 0,40,41
 916 -28 916 -28 871 21 c 128,-1,42
 826 70 826 70 826 148 c 0,43,-1
 826 158 l 0,10,-1
EndSplineSet
EndChar

StartChar: udieresis
Encoding: 508 252 252
Width: 1248
Flags: HMW
LayerCount: 2
Fore
SplineSet
804 1472 m 132,-1,1
 858 1472 858 1472 897 1436 c 132,-1,2
 936 1400 936 1400 936 1348 c 4,3,4
 936 1292 936 1292 897 1253 c 132,-1,5
 858 1214 858 1214 804 1214 c 132,-1,6
 750 1214 750 1214 712 1254 c 132,-1,7
 674 1294 674 1294 674 1350 c 4,8,9
 674 1402 674 1402 712 1437 c 132,-1,0
 750 1472 750 1472 804 1472 c 132,-1,1
332 1472 m 132,-1,11
 386 1472 386 1472 425 1436 c 132,-1,12
 464 1400 464 1400 464 1348 c 4,13,14
 464 1292 464 1292 425 1253 c 132,-1,15
 386 1214 386 1214 332 1214 c 132,-1,16
 278 1214 278 1214 240 1254 c 132,-1,17
 202 1294 202 1294 202 1350 c 4,18,19
 202 1402 202 1402 240 1437 c 132,-1,10
 278 1472 278 1472 332 1472 c 132,-1,11
826 158 m 0,20,-1
 812 158 l 0,21,22
 686 -28 686 -28 464 -28 c 0,23,24
 194 -28 194 -28 194 324 c 0,25,-1
 194 882 l 0,26,-1
 28 948 l 0,27,-1
 44 1044 l 0,28,-1
 370 1070 l 0,29,-1
 398 1040 l 0,30,-1
 398 384 l 0,31,32
 398 138 398 138 586 138 c 0,33,34
 722 138 722 138 812 232 c 0,35,-1
 812 876 l 0,36,-1
 618 926 l 0,37,-1
 630 1036 l 0,38,-1
 986 1070 l 0,39,-1
 1012 1040 l 0,40,-1
 1012 260 l 0,41,42
 1012 214 1012 214 1019 186 c 128,-1,43
 1026 158 1026 158 1050 142 c 128,-1,44
 1074 126 1074 126 1088 122 c 128,-1,45
 1102 118 1102 118 1144 108 c 0,46,-1
 1198 96 l 0,47,-1
 1188 -6 l 0,48,49
 1096 -28 1096 -28 1004 -28 c 0,50,51
 916 -28 916 -28 871 21 c 128,-1,52
 826 70 826 70 826 148 c 0,53,-1
 826 158 l 0,20,-1
EndSplineSet
EndChar

StartChar: yacute
Encoding: 509 253 253
Width: 1084
Flags: HMW
LayerCount: 2
Fore
SplineSet
872 1600 m 0,0,1
 814 1490 814 1490 723 1377 c 128,-1,2
 632 1264 632 1264 550 1214 c 0,3,-1
 462 1286 l 0,4,5
 514 1352 514 1352 580 1486 c 128,-1,6
 646 1620 646 1620 674 1702 c 0,7,-1
 872 1600 l 0,0,1
144 -216 m 0,8,9
 204 -236 204 -236 256 -236 c 0,10,11
 336 -236 336 -236 377 -171 c 128,-1,12
 418 -106 418 -106 480 94 c 0,13,-1
 146 918 l 0,14,-1
 0 964 l 0,15,-1
 14 1058 l 0,16,-1
 534 1058 l 0,17,-1
 524 968 l 0,18,-1
 366 922 l 0,19,-1
 582 348 l 0,20,-1
 784 916 l 0,21,-1
 626 966 l 0,22,-1
 642 1058 l 0,23,-1
 1084 1058 l 0,24,-1
 1074 968 l 0,25,-1
 940 918 l 0,26,-1
 538 -140 l 0,27,28
 466 -328 466 -328 406 -393 c 128,-1,29
 346 -458 346 -458 244 -458 c 0,30,31
 182 -458 182 -458 142 -419 c 128,-1,32
 102 -380 102 -380 102 -328 c 0,33,34
 102 -260 102 -260 144 -216 c 0,8,9
EndSplineSet
EndChar

StartChar: thorn
Encoding: 510 254 254
Width: 1218
Flags: HMW
LayerCount: 2
Fore
SplineSet
216 1342 m 0,0,-1
 32 1406 l 0,1,-1
 48 1498 l 0,2,-1
 390 1524 l 0,3,-1
 420 1496 l 0,4,-1
 420 1028 l 0,5,-1
 402 902 l 0,6,-1
 416 902 l 0,7,8
 466 958 466 958 499 989 c 128,-1,9
 532 1020 532 1020 600 1053 c 128,-1,10
 668 1086 668 1086 742 1086 c 0,11,12
 902 1086 902 1086 1008 947 c 128,-1,13
 1114 808 1114 808 1114 568 c 0,14,15
 1114 316 1114 316 970 150 c 128,-1,16
 826 -16 826 -16 612 -16 c 0,17,18
 542 -16 542 -16 490 2 c 0,19,20
 482 46 482 46 482 80 c 0,21,22
 482 104 482 104 486 124 c 0,23,24
 540 112 540 112 592 112 c 0,25,26
 886 112 886 112 886 494 c 0,27,28
 886 928 886 928 656 928 c 0,29,30
 522 928 522 928 416 818 c 0,31,-1
 416 -304 l 0,32,-1
 604 -346 l 0,33,-1
 590 -444 l 0,34,-1
 24 -444 l 0,35,-1
 34 -348 l 0,36,-1
 218 -304 l 0,37,-1
 216 1342 l 0,0,-1
EndSplineSet
EndChar

StartChar: ydieresis
Encoding: 511 255 255
Width: 1084
Flags: HMW
LayerCount: 2
Fore
SplineSet
784 1472 m 128,-1,1
 838 1472 838 1472 877 1436 c 128,-1,2
 916 1400 916 1400 916 1348 c 0,3,4
 916 1292 916 1292 877 1253 c 128,-1,5
 838 1214 838 1214 784 1214 c 128,-1,6
 730 1214 730 1214 692 1254 c 128,-1,7
 654 1294 654 1294 654 1350 c 0,8,9
 654 1402 654 1402 692 1437 c 128,-1,0
 730 1472 730 1472 784 1472 c 128,-1,1
312 1472 m 128,-1,11
 366 1472 366 1472 405 1436 c 128,-1,12
 444 1400 444 1400 444 1348 c 0,13,14
 444 1292 444 1292 405 1253 c 128,-1,15
 366 1214 366 1214 312 1214 c 128,-1,16
 258 1214 258 1214 220 1254 c 128,-1,17
 182 1294 182 1294 182 1350 c 0,18,19
 182 1402 182 1402 220 1437 c 128,-1,10
 258 1472 258 1472 312 1472 c 128,-1,11
144 -216 m 0,20,21
 204 -236 204 -236 256 -236 c 0,22,23
 336 -236 336 -236 377 -171 c 128,-1,24
 418 -106 418 -106 480 94 c 0,25,-1
 146 918 l 0,26,-1
 0 964 l 0,27,-1
 14 1058 l 0,28,-1
 534 1058 l 0,29,-1
 524 968 l 0,30,-1
 366 922 l 0,31,-1
 582 348 l 0,32,-1
 784 916 l 0,33,-1
 626 966 l 0,34,-1
 642 1058 l 0,35,-1
 1084 1058 l 0,36,-1
 1074 968 l 0,37,-1
 940 918 l 0,38,-1
 538 -140 l 0,39,40
 466 -328 466 -328 406 -393 c 128,-1,41
 346 -458 346 -458 244 -458 c 0,42,43
 182 -458 182 -458 142 -419 c 128,-1,44
 102 -380 102 -380 102 -328 c 0,45,46
 102 -260 102 -260 144 -216 c 0,20,21
EndSplineSet
EndChar

StartChar: dotlessi
Encoding: 512 305 256
Width: 694
Flags: HMW
LayerCount: 2
Fore
SplineSet
74 96 m 0,0,-1
 258 140 l 0,1,-1
 258 894 l 0,2,-1
 74 960 l 0,3,-1
 90 1052 l 0,4,-1
 430 1080 l 0,5,-1
 460 1050 l 0,6,-1
 460 140 l 0,7,-1
 654 98 l 0,8,-1
 640 0 l 0,9,-1
 60 0 l 0,10,-1
 74 96 l 0,0,-1
EndSplineSet
EndChar

StartChar: Ydieresis
Encoding: 515 376 259
Width: 1466
Flags: HMW
LayerCount: 2
Fore
SplineSet
994 1922 m 132,-1,1
 1048 1922 1048 1922 1087 1886 c 132,-1,2
 1126 1850 1126 1850 1126 1798 c 4,3,4
 1126 1742 1126 1742 1087 1703 c 132,-1,5
 1048 1664 1048 1664 994 1664 c 132,-1,6
 940 1664 940 1664 902 1704 c 132,-1,7
 864 1744 864 1744 864 1800 c 4,8,9
 864 1852 864 1852 902 1887 c 132,-1,0
 940 1922 940 1922 994 1922 c 132,-1,1
522 1922 m 132,-1,11
 576 1922 576 1922 615 1886 c 132,-1,12
 654 1850 654 1850 654 1798 c 4,13,14
 654 1742 654 1742 615 1703 c 132,-1,15
 576 1664 576 1664 522 1664 c 132,-1,16
 468 1664 468 1664 430 1704 c 132,-1,17
 392 1744 392 1744 392 1800 c 4,18,19
 392 1852 392 1852 430 1887 c 132,-1,10
 468 1922 468 1922 522 1922 c 132,-1,11
866 640 m 0,20,-1
 866 138 l 0,21,-1
 1064 98 l 0,22,-1
 1052 0 l 0,23,-1
 438 0 l 0,24,-1
 450 90 l 0,25,-1
 632 146 l 0,26,-1
 632 612 l 0,27,-1
 204 1364 l 0,28,-1
 38 1414 l 0,29,-1
 54 1506 l 0,30,-1
 668 1506 l 0,31,-1
 654 1414 l 0,32,-1
 462 1368 l 0,33,-1
 798 776 l 0,34,-1
 1118 1364 l 0,35,-1
 896 1414 l 0,36,-1
 908 1506 l 0,37,-1
 1446 1506 l 0,38,-1
 1434 1414 l 0,39,-1
 1284 1368 l 0,40,-1
 866 640 l 0,20,-1
EndSplineSet
EndChar

StartChar: dotaccent
Encoding: 518 729 262
Width: 694
Flags: HMW
LayerCount: 2
Fore
SplineSet
356 1578 m 0,0,1
 416 1578 416 1578 460 1538 c 128,-1,2
 504 1498 504 1498 504 1440 c 0,3,4
 504 1378 504 1378 460 1335 c 128,-1,5
 416 1292 416 1292 356 1292 c 128,-1,6
 296 1292 296 1292 254 1336 c 128,-1,7
 212 1380 212 1380 212 1442 c 0,8,9
 212 1500 212 1500 255 1539 c 128,-1,10
 298 1578 298 1578 356 1578 c 0,0,1
EndSplineSet
EndChar

StartChar: tilde
Encoding: 520 732 264
Width: 690
Flags: HMW
LayerCount: 2
Fore
SplineSet
0 200 m 5,0,1
 110 410 110 410 232 410 c 4,2,3
 294 410 294 410 393 365 c 132,-1,4
 492 320 492 320 528 320 c 4,5,6
 566 320 566 320 614 394 c 5,7,-1
 690 368 l 5,8,9
 670 282 670 282 596 217 c 132,-1,10
 522 152 522 152 468 152 c 4,11,12
 416 152 416 152 324 198 c 132,-1,13
 232 244 232 244 186 244 c 4,14,15
 144 244 144 244 82 160 c 5,16,-1
 0 200 l 5,0,1
EndSplineSet
EndChar

StartChar: quoteleft
Encoding: 521 8216 265
Width: 460
Flags: HMW
LayerCount: 2
Fore
SplineSet
420 1472 m 0,0,1
 312 1442 312 1442 256 1384 c 128,-1,2
 200 1326 200 1326 200 1262 c 0,3,4
 200 1204 200 1204 248 1170 c 0,5,6
 292 1140 292 1140 376 1130 c 0,7,8
 394 1128 394 1128 394 1056 c 0,9,10
 394 988 394 988 346 950 c 128,-1,11
 298 912 298 912 246 912 c 0,12,13
 170 912 170 912 102 976 c 128,-1,14
 34 1040 34 1040 34 1164 c 0,15,16
 34 1462 34 1462 392 1556 c 0,17,-1
 420 1472 l 0,0,1
EndSplineSet
EndChar

StartChar: quoteright
Encoding: 522 8217 266
Width: 460
Flags: HMW
LayerCount: 2
Fore
SplineSet
42 992 m 0,0,1
 152 1022 152 1022 207 1080 c 128,-1,2
 262 1138 262 1138 262 1202 c 0,3,4
 262 1258 262 1258 214 1293 c 128,-1,5
 166 1328 166 1328 86 1334 c 0,6,7
 68 1376 68 1376 68 1408 c 0,8,9
 68 1474 68 1474 116 1513 c 128,-1,10
 164 1552 164 1552 216 1552 c 0,11,12
 292 1552 292 1552 360 1488 c 128,-1,13
 428 1424 428 1424 428 1300 c 0,14,15
 428 1002 428 1002 70 908 c 0,16,-1
 42 992 l 0,0,1
EndSplineSet
EndChar

StartChar: quotesinglbase
Encoding: 523 8218 267
Width: 460
Flags: HMW
LayerCount: 2
Fore
SplineSet
24 -296 m 4,0,1
 134 -266 134 -266 189 -208 c 132,-1,2
 244 -150 244 -150 244 -86 c 4,3,4
 244 -30 244 -30 196 5 c 132,-1,5
 148 40 148 40 68 46 c 4,6,7
 50 88 50 88 50 120 c 4,8,9
 50 186 50 186 98 225 c 132,-1,10
 146 264 146 264 198 264 c 4,11,12
 274 264 274 264 342 200 c 132,-1,13
 410 136 410 136 410 12 c 4,14,15
 410 -286 410 -286 52 -380 c 4,16,-1
 24 -296 l 4,0,1
EndSplineSet
EndChar

StartChar: quotereversed
Encoding: 524 8219 268
Width: 450
Flags: HMW
LayerCount: 2
Fore
SplineSet
412 1002 m 0,0,-1
 384 918 l 0,1,2
 26 1012 26 1012 26 1310 c 0,3,4
 26 1434 26 1434 94 1498 c 128,-1,5
 162 1562 162 1562 238 1562 c 0,6,7
 290 1562 290 1562 338 1523 c 128,-1,8
 386 1484 386 1484 386 1418 c 0,9,10
 386 1386 386 1386 368 1344 c 0,11,12
 288 1338 288 1338 240 1303 c 128,-1,13
 192 1268 192 1268 192 1212 c 0,14,15
 192 1148 192 1148 247 1090 c 128,-1,16
 302 1032 302 1032 412 1002 c 0,0,-1
EndSplineSet
EndChar

StartChar: quotedblleft
Encoding: 525 8220 269
Width: 832
Flags: HMW
LayerCount: 2
Fore
SplineSet
422 1476 m 0,0,1
 312 1446 312 1446 257 1388 c 128,-1,2
 202 1330 202 1330 202 1266 c 0,3,4
 202 1210 202 1210 250 1175 c 128,-1,5
 298 1140 298 1140 378 1134 c 0,6,7
 396 1092 396 1092 396 1060 c 0,8,9
 396 994 396 994 348 955 c 128,-1,10
 300 916 300 916 248 916 c 0,11,12
 172 916 172 916 104 980 c 128,-1,13
 36 1044 36 1044 36 1168 c 0,14,15
 36 1466 36 1466 394 1560 c 0,16,-1
 422 1476 l 0,0,1
804 1476 m 0,17,18
 694 1446 694 1446 639 1388 c 128,-1,19
 584 1330 584 1330 584 1266 c 0,20,21
 584 1210 584 1210 632 1175 c 128,-1,22
 680 1140 680 1140 760 1134 c 0,23,24
 778 1092 778 1092 778 1060 c 0,25,26
 778 994 778 994 730 955 c 128,-1,27
 682 916 682 916 630 916 c 0,28,29
 554 916 554 916 486 980 c 128,-1,30
 418 1044 418 1044 418 1168 c 0,31,32
 418 1466 418 1466 776 1560 c 0,33,-1
 804 1476 l 0,17,18
EndSplineSet
EndChar

StartChar: quotedblright
Encoding: 526 8221 270
Width: 834
Flags: HMW
LayerCount: 2
Fore
SplineSet
412 998 m 0,0,1
 522 1028 522 1028 577 1086 c 128,-1,2
 632 1144 632 1144 632 1208 c 0,3,4
 632 1264 632 1264 584 1299 c 128,-1,5
 536 1334 536 1334 456 1340 c 0,6,7
 438 1382 438 1382 438 1414 c 0,8,9
 438 1480 438 1480 486 1519 c 128,-1,10
 534 1558 534 1558 586 1558 c 0,11,12
 662 1558 662 1558 730 1494 c 128,-1,13
 798 1430 798 1430 798 1306 c 0,14,15
 798 1008 798 1008 440 914 c 0,16,-1
 412 998 l 0,0,1
28 998 m 0,17,18
 138 1028 138 1028 193 1086 c 128,-1,19
 248 1144 248 1144 248 1208 c 0,20,21
 248 1264 248 1264 200 1299 c 128,-1,22
 152 1334 152 1334 72 1340 c 0,23,24
 54 1382 54 1382 54 1414 c 0,25,26
 54 1480 54 1480 102 1519 c 128,-1,27
 150 1558 150 1558 202 1558 c 0,28,29
 278 1558 278 1558 346 1494 c 128,-1,30
 414 1430 414 1430 414 1306 c 0,31,32
 414 1008 414 1008 56 914 c 0,33,-1
 28 998 l 0,17,18
EndSplineSet
EndChar

StartChar: notequal
Encoding: 527 8800 271
Width: 870
Flags: HMW
LayerCount: 2
Fore
SplineSet
608 962 m 1,0,-1
 768 966 l 1,1,-1
 656 804 l 1,2,-1
 790 804 l 1,3,-1
 776 676 l 1,4,-1
 566 676 l 1,5,-1
 452 514 l 1,6,-1
 786 514 l 1,7,-1
 772 386 l 1,8,-1
 364 386 l 1,9,-1
 236 204 l 1,10,-1
 80 200 l 1,11,-1
 208 386 l 1,12,-1
 68 386 l 1,13,-1
 82 514 l 1,14,-1
 298 514 l 1,15,-1
 410 676 l 1,16,-1
 72 676 l 1,17,-1
 86 804 l 1,18,-1
 500 804 l 1,19,-1
 608 962 l 1,0,-1
EndSplineSet
EndChar

StartChar: uniFB01
Encoding: 528 64257 272
Width: 1338
Flags: HMW
LayerCount: 2
Fore
SplineSet
994 1258 m 1,0,1
 934 1338 934 1338 848 1381 c 128,-1,2
 762 1424 762 1424 684 1424 c 0,3,4
 594 1424 594 1424 537 1379 c 128,-1,5
 480 1334 480 1334 464 1281 c 128,-1,6
 448 1228 448 1228 448 1164 c 2,7,-1
 448 1068 l 1,8,-1
 724 1068 l 1,9,-1
 1074 1080 l 1,10,-1
 1104 1050 l 1,11,-1
 1104 140 l 1,12,-1
 1298 98 l 1,13,-1
 1284 0 l 1,14,-1
 704 0 l 1,15,-1
 718 96 l 1,16,-1
 902 140 l 1,17,-1
 902 894 l 1,18,-1
 718 960 l 1,19,-1
 448 960 l 1,20,-1
 448 146 l 1,21,-1
 632 100 l 1,22,-1
 622 0 l 5,23,-1
 48 0 l 1,24,-1
 62 88 l 1,25,-1
 246 140 l 1,26,-1
 246 960 l 1,27,-1
 66 960 l 1,28,-1
 80 1044 l 1,29,-1
 248 1084 l 1,30,31
 274 1218 274 1218 335 1316 c 128,-1,32
 396 1414 396 1414 478 1464 c 128,-1,33
 560 1514 560 1514 643 1537 c 128,-1,34
 726 1560 726 1560 818 1560 c 0,35,36
 980 1560 980 1560 1045 1520 c 128,-1,37
 1110 1480 1110 1480 1110 1406 c 0,38,39
 1110 1366 1110 1366 1075 1321 c 128,-1,40
 1040 1276 1040 1276 994 1258 c 1,0,1
EndSplineSet
LCarets2: 1 0 
Ligature2: "<1,2> Normale Ligaturen in Latin lookup 0 subtable" f i
EndChar

StartChar: uniFB02
Encoding: 529 64258 273
Width: 1326
Flags: HMW
LayerCount: 2
Fore
SplineSet
1062 1538 m 1,0,-1
 1092 1508 l 1,1,-1
 1092 1438 l 1,2,-1
 1092 140 l 1,3,-1
 1286 98 l 1,4,-1
 1272 0 l 1,5,-1
 710 0 l 1,6,-1
 724 96 l 1,7,-1
 890 140 l 1,8,-1
 890 1320 l 1,9,10
 808 1432 808 1432 630 1432 c 0,11,12
 600 1432 600 1432 573 1423 c 128,-1,13
 546 1414 546 1414 516 1389 c 128,-1,14
 486 1364 486 1364 467 1307 c 128,-1,15
 448 1250 448 1250 448 1166 c 2,16,-1
 448 1068 l 1,17,-1
 728 1068 l 1,18,-1
 714 960 l 1,19,-1
 448 960 l 1,20,-1
 448 140 l 1,21,-1
 622 98 l 1,22,-1
 608 0 l 1,23,-1
 48 0 l 1,24,-1
 62 96 l 1,25,-1
 246 140 l 1,26,-1
 246 960 l 1,27,-1
 66 960 l 1,28,-1
 76 1042 l 1,29,-1
 248 1086 l 1,30,31
 264 1276 264 1276 396 1427 c 128,-1,32
 528 1578 528 1578 668 1578 c 0,33,34
 754 1578 754 1578 849 1557 c 128,-1,35
 944 1536 944 1536 1016 1536 c 0,36,37
 1022 1536 1022 1536 1038 1537 c 128,-1,38
 1054 1538 1054 1538 1062 1538 c 1,0,-1
EndSplineSet
LCarets2: 1 0 
Ligature2: "<1,2> Normale Ligaturen in Latin lookup 0 subtable" f l
EndChar

StartChar: Euro
Encoding: 530 8364 274
Width: 1346
UnlinkRmOvrlpSave: 1
Flags: HMW
LayerCount: 2
Fore
SplineSet
1024 210 m 0,0,-1
 1074 476 l 0,1,-1
 1180 492 l 0,2,-1
 1218 134 l 0,3,4
 1104 44 1104 44 996 7 c 128,-1,5
 888 -30 888 -30 740 -30 c 0,6,7
 478 -30 478 -30 290 133 c 128,-1,8
 102 296 102 296 68 588 c 0,9,-1
 -56 588 l 0,10,-1
 -34 716 l 0,11,-1
 60 716 l 0,12,13
 60 744 60 744 64 800 c 0,14,-1
 -48 800 l 0,15,-1
 -26 928 l 0,16,-1
 82 928 l 0,17,18
 106 1050 106 1050 158 1154 c 128,-1,19
 210 1258 210 1258 295 1347 c 128,-1,20
 380 1436 380 1436 509 1487 c 128,-1,21
 638 1538 638 1538 800 1538 c 0,22,23
 1038 1538 1038 1538 1198 1416 c 0,24,-1
 1160 1014 l 0,25,-1
 1054 1030 l 0,26,-1
 1004 1296 l 0,27,28
 956 1358 956 1358 897 1390 c 128,-1,29
 838 1422 838 1422 730 1422 c 0,30,31
 564 1422 564 1422 457 1292 c 128,-1,32
 350 1162 350 1162 326 928 c 0,33,-1
 986 928 l 0,34,-1
 950 800 l 0,35,-1
 320 800 l 0,36,-1
 320 798 l 0,37,38
 320 742 320 742 322 716 c 0,39,-1
 930 716 l 0,40,-1
 894 588 l 0,41,-1
 336 588 l 0,42,43
 372 352 372 352 495 227 c 128,-1,44
 618 102 618 102 800 102 c 0,45,46
 946 102 946 102 1024 210 c 0,0,-1
EndSplineSet
EndChar

StartChar: endash
Encoding: 531 8211 275
Width: 1164
Flags: HMW
LayerCount: 2
Fore
SplineSet
110 642 m 1,0,-1
 1078 670 l 1,1,-1
 1064 510 l 1,2,-1
 96 482 l 1,3,-1
 110 642 l 1,0,-1
EndSplineSet
EndChar

StartChar: uniFB00
Encoding: 532 64256 276
Width: 1398
Flags: HMW
LayerCount: 2
Fore
SplineSet
704 0 m 0,0,-1
 718 88 l 1,1,-1
 902 140 l 1,2,-1
 902 950 l 1,3,-1
 448 950 l 1,4,-1
 448 146 l 1,5,-1
 632 102 l 1,6,-1
 622 0 l 1,7,-1
 48 0 l 1,8,-1
 62 88 l 1,9,-1
 246 140 l 1,10,-1
 246 950 l 1,11,-1
 66 950 l 1,12,-1
 80 1038 l 1,13,-1
 248 1066 l 1,14,15
 268 1218 268 1218 347 1334 c 128,-1,16
 426 1450 426 1450 547 1504 c 128,-1,17
 668 1558 668 1558 762 1558 c 0,18,19
 882 1558 882 1558 948 1520 c 0,20,21
 1018 1482 1018 1482 1018 1424 c 0,22,23
 1018 1356 1018 1356 938 1292 c 1,24,25
 816 1408 816 1408 648 1408 c 0,26,27
 568 1408 568 1408 504 1348 c 0,28,29
 448 1298 448 1298 448 1166 c 2,30,-1
 448 1058 l 1,31,-1
 780 1058 l 1,32,-1
 904 1066 l 0,33,34
 932 1308 932 1308 1071 1444 c 128,-1,35
 1210 1580 1210 1580 1358 1580 c 0,36,37
 1460 1580 1460 1580 1522 1545 c 128,-1,38
 1584 1510 1584 1510 1584 1440 c 0,39,40
 1584 1398 1584 1398 1548 1358 c 0,41,42
 1500 1304 1500 1304 1476 1304 c 0,43,44
 1474 1304 1474 1304 1376 1412 c 0,45,46
 1340 1452 1340 1452 1264 1452 c 0,47,48
 1190 1452 1190 1452 1150 1394 c 128,-1,49
 1110 1336 1110 1336 1106 1188 c 0,50,-1
 1104 1058 l 0,51,-1
 1416 1058 l 0,52,-1
 1400 950 l 0,53,-1
 1104 950 l 0,54,-1
 1104 146 l 0,55,-1
 1402 102 l 0,56,-1
 1392 0 l 0,57,-1
 704 0 l 0,0,-1
EndSplineSet
LCarets2: 1 0 
Ligature2: "<1,2> Normale Ligaturen in Latin lookup 0 subtable" f f
EndChar

StartChar: ellipsis
Encoding: 534 8230 278
Width: 1570
Flags: HMW
LayerCount: 2
Fore
SplineSet
1324 248 m 128,-1,1
 1384 248 1384 248 1427 208 c 128,-1,2
 1470 168 1470 168 1470 110 c 0,3,4
 1470 48 1470 48 1427 5 c 128,-1,5
 1384 -38 1384 -38 1324 -38 c 128,-1,6
 1264 -38 1264 -38 1222 6 c 128,-1,7
 1180 50 1180 50 1180 112 c 0,8,9
 1180 170 1180 170 1222 209 c 128,-1,0
 1264 248 1264 248 1324 248 c 128,-1,1
784 248 m 128,-1,11
 844 248 844 248 887 208 c 128,-1,12
 930 168 930 168 930 110 c 0,13,14
 930 48 930 48 887 5 c 128,-1,15
 844 -38 844 -38 784 -38 c 128,-1,16
 724 -38 724 -38 682 6 c 128,-1,17
 640 50 640 50 640 112 c 0,18,19
 640 170 640 170 682 209 c 128,-1,10
 724 248 724 248 784 248 c 128,-1,11
244 248 m 132,-1,21
 304 248 304 248 347 208 c 132,-1,22
 390 168 390 168 390 110 c 4,23,24
 390 48 390 48 347 5 c 132,-1,25
 304 -38 304 -38 244 -38 c 132,-1,26
 184 -38 184 -38 142 6 c 132,-1,27
 100 50 100 50 100 112 c 4,28,29
 100 170 100 170 142 209 c 132,-1,20
 184 248 184 248 244 248 c 132,-1,21
EndSplineSet
EndChar

StartChar: oe
Encoding: 535 339 279
Width: 1742
UnlinkRmOvrlpSave: 1
Flags: HMW
LayerCount: 2
Fore
SplineSet
292 608 m 0,0,1
 292 474 292 474 322 362 c 128,-1,2
 352 250 352 250 418 171 c 128,-1,3
 484 92 484 92 580 92 c 128,-1,4
 676 92 676 92 741 196 c 128,-1,5
 806 300 806 300 806 440 c 0,6,7
 806 536 806 536 789 626 c 128,-1,8
 772 716 772 716 736 796 c 128,-1,9
 700 876 700 876 647 924 c 128,-1,10
 594 972 594 972 532 972 c 0,11,12
 404 972 404 972 348 867 c 128,-1,13
 292 762 292 762 292 608 c 0,0,1
1022 532 m 0,14,15
 1022 282 1022 282 876 124 c 128,-1,16
 730 -34 730 -34 554 -34 c 0,17,18
 320 -34 320 -34 198 119 c 128,-1,19
 76 272 76 272 76 514 c 0,20,21
 76 778 76 778 223 935 c 128,-1,22
 370 1092 370 1092 568 1092 c 128,-1,23
 766 1092 766 1092 894 939 c 128,-1,24
 1022 786 1022 786 1022 532 c 0,14,15
1608 548 m 1,25,-1
 1022 542 l 1,26,27
 1030 378 1030 378 1117 247 c 128,-1,28
 1204 116 1204 116 1360 116 c 0,29,30
 1436 116 1436 116 1493 129 c 128,-1,31
 1550 142 1550 142 1636 188 c 1,32,-1
 1660 128 l 1,33,34
 1504 -34 1504 -34 1262 -34 c 0,35,36
 1076 -34 1076 -34 941 113 c 128,-1,37
 806 260 806 260 806 520 c 0,38,39
 806 778 806 778 960 934 c 128,-1,40
 1114 1090 1114 1090 1304 1090 c 0,41,42
 1444 1090 1444 1090 1536 990 c 128,-1,43
 1628 890 1628 890 1628 706 c 0,44,45
 1628 632 1628 632 1608 548 c 1,25,-1
1024 640 m 1,46,-1
 1404 666 l 1,47,48
 1412 692 1412 692 1412 746 c 0,49,50
 1412 972 1412 972 1244 972 c 0,51,52
 1162 972 1162 972 1097 888 c 128,-1,53
 1032 804 1032 804 1024 640 c 1,46,-1
EndSplineSet
EndChar

StartChar: OE
Encoding: 536 338 280
Width: 2088
Flags: HMW
LayerCount: 2
Fore
SplineSet
1006 1506 m 4,0,1
 1948 1506 l 5,2,-1
 1910 1120 l 5,3,-1
 1806 1136 l 5,4,-1
 1756 1396 l 5,5,-1
 1188 1396 l 5,6,-1
 1188 820 l 5,7,-1
 1536 820 l 5,8,-1
 1588 964 l 5,9,-1
 1702 980 l 5,10,-1
 1662 510 l 5,11,-1
 1558 494 l 5,12,-1
 1518 706 l 5,13,-1
 1188 706 l 5,14,-1
 1188 116 l 5,15,-1
 1786 116 l 5,16,-1
 1904 394 l 5,17,-1
 2004 380 l 5,18,-1
 1968 0 l 5,19,-1
 950 0 l 4,20,21
 828 -32 828 -32 698 -32 c 4,22,23
 390 -32 390 -32 225 192 c 132,-1,24
 60 416 60 416 60 750 c 4,25,26
 60 1104 60 1104 242 1323 c 132,-1,27
 424 1542 424 1542 782 1542 c 4,28,29
 908 1542 908 1542 1006 1506 c 4,0,1
954 148 m 4,30,-1
 954 1364 l 5,31,32
 852 1424 852 1424 724 1424 c 4,33,34
 330 1424 330 1424 330 820 c 4,35,36
 330 680 330 680 358 555 c 132,-1,37
 386 430 386 430 426 325 c 132,-1,38
 466 220 466 220 553 158 c 132,-1,39
 640 96 640 96 750 96 c 132,-1,40
 860 96 860 96 954 148 c 4,30,-1
EndSplineSet
EndChar

StartChar: uni1E9E
Encoding: 538 7838 282
Width: 1500
Flags: HMW
LayerCount: 2
Fore
SplineSet
986 918 m 0,0,1
 1062 878 1062 878 1157 825 c 128,-1,2
 1252 772 1252 772 1314 721 c 128,-1,3
 1376 670 1376 670 1415 595 c 128,-1,4
 1454 520 1454 520 1454 428 c 0,5,6
 1454 226 1454 226 1306 98 c 128,-1,7
 1158 -30 1158 -30 942 -30 c 0,8,9
 834 -30 834 -30 719 21 c 128,-1,10
 604 72 604 72 554 148 c 1,11,-1
 570 472 l 1,12,-1
 694 454 l 1,13,-1
 740 226 l 1,14,15
 814 94 814 94 970 94 c 0,16,17
 1080 94 1080 94 1156 159 c 128,-1,18
 1232 224 1232 224 1232 348 c 0,19,20
 1232 420 1232 420 1181 482 c 128,-1,21
 1130 544 1130 544 1052 585 c 128,-1,22
 974 626 974 626 887 683 c 128,-1,23
 800 740 800 740 722 792 c 0,24,-1
 702 856 l 1,25,-1
 1066 1392 l 1,26,-1
 822 1424 l 1,27,28
 626 1424 626 1424 523 1290 c 128,-1,29
 420 1156 420 1156 420 908 c 2,30,-1
 420 0 l 1,31,-1
 0 0 l 1,32,-1
 -16 92 l 1,33,-1
 188 142 l 1,34,-1
 188 938 l 2,35,36
 188 1088 188 1088 224 1174 c 0,37,38
 262 1274 262 1274 322 1338 c 128,-1,39
 382 1402 382 1402 463 1451 c 128,-1,40
 544 1500 544 1500 615 1518 c 128,-1,41
 686 1536 686 1536 764 1536 c 1,42,-1
 1340 1506 l 1,43,-1
 1340 1414 l 1,44,-1
 986 918 l 0,0,1
EndSplineSet
EndChar

StartChar: guilsinglleft
Encoding: 539 8249 283
Width: 816
Flags: HMW
LayerCount: 2
Fore
SplineSet
106 574 m 1,0,-1
 578 994 l 1,1,-1
 622 914 l 1,2,-1
 342 572 l 1,3,-1
 626 178 l 1,4,-1
 570 94 l 1,5,-1
 108 550 l 1,6,-1
 106 574 l 1,0,-1
EndSplineSet
EndChar

StartChar: guilsinglright
Encoding: 540 8250 284
Width: 816
Flags: HMW
LayerCount: 2
Fore
SplineSet
710 514 m 1,0,-1
 240 94 l 1,1,-1
 194 176 l 1,2,-1
 476 524 l 1,3,-1
 190 910 l 1,4,-1
 246 994 l 1,5,-1
 708 538 l 1,6,-1
 710 514 l 1,0,-1
EndSplineSet
EndChar

